<?xml version="1.0" encoding="UTF-8"?>
<svg id="OBJECTS" xmlns="http://www.w3.org/2000/svg" viewBox="0 0 213.68 149.61">
  <defs>
    <style>
      .cls-1 {
        fill: #e0c068;
      }
    </style>
  </defs>
  <path class="cls-1" d="M169.95,64.81c.05-.48.13-.8.24-1.03l.68-1.14c-.12-.06-.33-.14-.68-.24-1.23-.23-1.31-.28-1.41-.35-.3-.2-.53-.59-.77-1.26-.22-.69-.25-.96-.25-1.11,0-.62.24-1.18.71-1.67.39-.41.66-.85.81-1.31v-.3c-.37.01-.87-.12-1.33-.79-.32-.48-.47-.89-.47-1.27,0-.24.07-.52.23-.89,0-.02.02-.08.04-.19-.88.05-1.3.14-1.51.2-.83.26-1.77.42-2.79.46-.05.02-.31.14-.98.85-.74.79-1.29,1.14-1.79,1.14-.46,0-1-.3-1.7-.95-.26-.23-.47-.41-.63-.56-.04.59-.03,1.35.02,2.25l.03.53h-.88l-.15-.17c-.33-.38-.64-.71-.91-1-.6-.6-.82-.66-.83-.66h-1.3s-.09-.03-.09-.03c-.1-.04-.27-.12-.65-.41-.03-.02-.06-.04-.08-.06-.03.03-.07.06-.11.1-.25.23-.3.33-.3.33l-.07.42-.41-.05h-.92l-.15-.22c-.22-.32-.5-.84-.83-1.6-.32-.7-.94-1.28-1.86-1.73-.05.12-.13.25-.23.37-.32.39-.67.57-1.06.57-.3,0-.65-.18-1.14-.59-.11-.09-.19-.16-.26-.22-.09.15-.22.36-.41.68-.6.98-.63,1.28-.63,1.33,0,0,.01.1.13.43l.38,1.06-1.04-.43c-.84-.35-1.49-.63-1.96-.87-.91-.46-1.59-1-2.02-1.62-.05-.07-.07-.07-.15-.07-.35.04-.68.06-.97.03-.18-.02-.45-.09-1.13-.43-.47-.24-.61-.26-.62-.26h-.49v.14l-.17.15c-.13.11-.26.24-.39.39-.24.27-.35.55-.35.87,0,1.41-.1,1.81-.21,2.02-.21.39-.65,1.07-1.37,2.09-.04.05-.19.31-.19,1.29l.12.78v.03c0,.8-.22,1.64-.67,2.65-.28.65-.42,1.21-.42,1.65,0,.09,0,.17.02.26,0,.05.01.11.01.17,0,.42-.18.96-.57,1.69-.51.92-.54,1.17-.54,1.19-.05,1.23-.79,1.92-2.02,1.92-.32,0-.66-.1-1.06-.31-.2-.11-.33-.15-.4-.18-.12.13-.43.52-1.07,1.71-.57,1.05-.8,1.52-.9,1.73.06.08.14.18.25.31.33.42.49.76.49,1.07,0,.52-.47,1.09-2.83,2.31l-.11.06h-.12c-.12,0-.27-.03-.67-.2-.29-.14-.38-.15-.38-.15-.04,0-.17,0-.35.31-.46.81-.7,1.06-.83,1.18-.12.08-.44.28-1.02.62-.18.1-.22.16-.23.17,0,0,.01.05.06.13l.07.12v.13c0,.26-.11.54-.35.86-.09.14-.15.29-.16.42v.49c-.03.4-.18.71-.42.92-.31.24-.82.59-1.54,1.05-.62.46-.71.74-.73.81-.05.22-.19.55-.94,1.56-.63.86-.79,1.27-.83,1.43-.03.1-.05.28-.08.57-.02.41-.08.68-.19.86-.34.48-.37.71-.37.78,0,.05.03.22.41.52.68.52.83.73.88.96.07.26.16.5.28.68.14.2.2.48.2.84,0,.07,0,.15-.01.24h.04s-.24.98-.24.98h-.03c-.1.31-.23.68-.39,1.1.02.07.07.16.22.28.14.1.27.15.42.16l1.31-.29.19.14c.11.08.2.18.28.28.22.28.33.55.33.81,0,.33-.18.64-.56.95-.12.09-.19.15-.23.18.02.14.08.21.15.25.18.12.32.23.45.35.24-.14.38-.23.45-.26.09-.08.32-.15.6-.15.4,0,.81.23,1.28.73.17.17.38.39.63.66.06.02.16.04.36.08.42.12.78.34,1.11.68.12.13.53.43,1.99.72,1.3.24,2.09.56,2.47,1.03.01.01.14.14.64.28.25.06.77.17,1.55.34.69.15,1.26.47,1.69.94,0,0,.09.07.41.17.31.12.64.38.73,1.01,0,.08.02.16.05.24.03-.03.05-.06.07-.08l-.13-.81c0-.53.17-1.17.99-1.59,1.02-.55,1.22-.69,1.25-.72.23-.21.34-.52.34-.93.1-.6.48-1.06,1.18-1.5.35-.3.7-.58.97-.79.64-.46,1.18-.66,1.6-.64.55.02,1.14-.04,1.75-.18.76-.18,1.29-.27,1.63-.27.41,0,.82.2,1.26.61.09.09.17.16.24.21.1-.21.22-.41.37-.61.54-.79,1.4-1.24,2.54-1.34.72-.08,1.9-.23,3.52-.44.67-.09,1.39-.13,2.15-.13.64,0,1.23.26,1.74.78.29.29.57.46.81.48.09-.05.36-.21,1.02-.74.86-.66,1.56-1.06,2.13-1.23.44-.14.88-.42,1.31-.83.4-.38.47-.56.48-.59,0,0-.05-.09-.2-.24-.43-.35-.53-.77-.53-1.05l.02-.15c.39-1.21.42-1.48.42-1.52l-.02-.16c-.2-.04-.54-.1-1.12-.2-.64-.1-1.01-.58-1.01-1.31v-.24l.18-.15c2.57-2.1,3.28-2.78,3.48-3-.02-.28-.09-.52-.23-.72-.38-.56-.62-.97-.74-1.25-.12-.31-.31-.5-.59-.62-.24-.11-.44-.14-.66-.1l-.6.12v-1.02c0-.2.02-.23.64-1.03.15-.21.12-.33.07-.43l-.07-.14.23-1.29-.36.05.24-.75c.12-.38.53-.63,2.48-1.06,1.38-.29,1.58-.55,1.58-.56-.02-.05-.04-.32-.14-.88-.07-.32-.12-.62-.14-.9-.86-.19-.94-.88-.94-1.12,0-.21.09-.41.59-1.02.19-.25.28-.39.31-.45-.03-.08-.11-.25-.3-.59-.27-.46-.45-.77-.54-.92l-.22-.38.35-.27c.34-.26.82-.38,1.44-.38.59,0,.96.58,1.08.77.2.31.35.31.4.31.09,0,.23-.02.41-.23.08-.09.12-.17.14-.22-.06-.08-.15-.2-.27-.35-.37-.42-.55-.82-.55-1.2s.31-.63.81-.93c.41-.23.7-.36.94-.41h.11s1.09-.01,1.09-.01l-.36.72c-.08.15-.13.35.17.66.13.13.31.3.54.52.11,0,.22,0,.32,0,.06-.12.12-.25.19-.4.41-.96.51-1.32.53-1.45.04-.37.07-.69.09-.92Z"/>
  <path class="cls-1" d="M137.1,51.36c.1.23.16.4.17.55l.02-.67c.03-.2.11-.49.42-1.25-.25.36-.51.7-.75,1.01.05.14.1.27.14.36Z"/>
  <path class="cls-1" d="M128.08,113.73s.19-.21.31-.82c.12-.74.32-1.27.61-1.62,0,0,.02-.05.04-.35.07-.44.26-.75.57-.95.08-.07.29-.19.95-.35.24-.06.41-.11.51-.15l.69-.77c.13-.14.26-.26.38-.37l-.15-.64c-.08-.31-.14-.56-.19-.76-.24-1.01-.27-1.33-.27-1.51,0-.3.18-.64,1.16-1.62,0-.01.02-.02.03-.03-.19-.27-.3-.58-.33-.9-.02-.11-.05-.17-.07-.18-.41-.13-.68-.28-.84-.47-.27-.3-.65-.51-1.13-.61-.78-.17-1.31-.29-1.59-.35-.57-.16-.93-.35-1.15-.6-.11-.13-.49-.43-1.89-.69-1.32-.26-2.12-.58-2.52-1-.2-.2-.42-.34-.63-.4-.46-.08-.65-.15-.78-.28-.29-.31-.51-.54-.7-.73-.4-.42-.56-.42-.56-.42-.08,0-.1.01-.11.01-.13.07-.38.22-.8.48l-.49.3-.23-.52s-.09-.17-.42-.39c-.39-.26-.6-.67-.6-1.17,0-.4.33-.68.63-.89.11-.09.15-.16.16-.18,0,0-.03-.05-.08-.12l-.97.2c-.38,0-.73-.12-1.05-.35-.54-.38-.65-.84-.65-1.16l.03-.18c.14-.37.26-.69.36-.98-.93-.12-1.57-.17-1.91-.17-.15,0-.48.03-1.19.18l-.97.16c-.45,0-1-.13-1.47-.77-.32-.45-.47-.94-.47-1.46,0-.38.34-.64,1.01-1.03.29-.17.44-.28.51-.34,0-.31-.05-.75-.12-1.32-.06-.38-.1-.69-.13-.93-.09.05-.18.14-.28.27-.09.1-.31.4-.95,1.33-.09.19-.32.3-.67.48-.29.16-.36.27-.37.29-.47.74-1,1.09-1.63,1.09-.55,0-.91-.35-.91-.88,0-.19.07-.41.22-.68,0,0,0,0,0,0-.07-.04-.17-.1-.34-.18-.42-.2-.77-.3-1.02-.3-.06,0-.38.03-1.28.72-.82.6-1.47.89-2.01.89-.61,0-1.09-.19-1.44-.57-.42-.5-.61-.59-.64-.6-.08-.03-.29-.12-1.4-.42-.6-.17-1.08-.46-1.43-.84-.1-.09-.52-.4-2.15-.91l-1.75-.48c-.54.01-.93.18-1.18.5-.43.56-1.01.86-1.69.86l-1.66-.16c-.35,0-.42.13-.43.44-.08.98-.3,1.5-.7,1.72-.51.26-1.08.7-1.72,1.34-.28.25-.74.39-1.51.46h-.09s-.01,0-.01,0c-.34.02-.67.03-1.04.03v-.07c-.05,0-.11,0-.16,0,0,0,0,0-.01,0,0,0,0,0,0,0-.2,0-.38,0-.55,0,.03.13.23.65,1.82,1.81l.39.29-.27.4c-.04.07-.19.34-.45.81-.24.5-.47.83-.71,1.01-.27.17-.52.39-.79.67-.48.45-.5.64-.5.64,0,.09.03.43.3,1.48.02.07.04.13.05.19l.1.47-.02.1c-.13.67-.58,1.7-1.38,3.18-1.16,2.19-1.32,2.62-1.33,2.7,0,0,0,0,0,0,0,0,.02.1.2.22.54.42.89.74,1.08.98l.11.14v2.41l-.56-.06c-.51-.06-.63.04-.63.04-.03.03-.12.14-.14.56.1.15.3.43.6.86.51.74.8,1.33.9,1.8v.1c.02.07.09.44.22,1.07.11.57.17,1.02.17,1.4,0,.08,0,.24-.26,1.61-.14.87-.22,1.54-.24,1.98-.05,1.06-.16,1.81-.35,2.3-.12.35-.19.77-.19,1.24v1.26c.1.15.47.16.64.16l1.77-.12h0c.69,0,1.48.33,2.44,1.01.01,0,.17.1.83.2.26.02.77.07,1.5.16h1.47s.36-.23.36-.23c.07-.34.07-.47.07-.51v-.36l.34-.11c.18-.06.44-.09.82-.09,1.35,0,1.57.83,1.6,1.18,0,.02.06.08.23.14.07.03.12.05.16.07h3.67l.15.14c.08.08.09.09.95,1.88.37.79.56,1.43.59,1.96,0,.32.09.92.53,2.02.51,1.32.57,1.77.57,2.02,0,.62-.09,1.21-.28,1.74-.16.4-.25.63-.27.72,0,.21.15.79.84,1.81.67.98.94,1.08.95,1.08.28,0,.88-.13,1.96-.73,1.02-.6,1.75-.88,2.3-.88.72,0,1.52.38,2.47,1.16.37.32.65.58.84.8.04,0,.08,0,.12,0,.04,0,.07,0,.1,0,.11.01.24.02.39.04-.28-2.21.24-3.45,1.55-3.7.91-.18,1.09-.25,1.12-.27.3-.18.37-.76.37-1.2l-.15-1.2c0-.39.13-.71,1.93-1.87,1.51-.97,2.05-1.56,2.24-1.88.17-.29.47-.6.92-.94.31-.23.69-.47,1.12-.73,1.33-.75,2.19-1.27,2.56-1.57,1.93-1.57,3.09-2.9,3.43-3.96.3-.96.86-1.75,1.66-2.36.36-.28.57-.45.69-.55-.08-.28-.09-.41-.09-.51l.02-.14c.29-1.03.35-1.39.36-1.52.03-.41.24-.78.62-1.1,0-.01.04-.04.73-.53Z"/>
  <path class="cls-1" d="M77.25,82.52c.07.57.15,1.03.25,1.34.5.69.95,1.33,1.34,1.92.09.11.36.32,1.02.52.07.01.34.03.79.04.61.03.96.12,1.19.3.15.11.28.31.38.6.08.19.14.28.17.32.65.87.96,1.59.96,2.24,0,.01,0,.02,0,.04.31,0,.56,0,.75,0,.23,0,.38.01.48.03h.04c.66-.06.83-.18.83-.19.69-.69,1.35-1.2,1.94-1.5,0,0,0,0,0,0,0,0,0,0,0,0,0-.02.12-.22.17-.89.03-.85.58-1.37,1.48-1.37l1.66.16c.32,0,.61-.15.85-.47.46-.59,1.14-.89,2.04-.89l.13.02,1.83.51c1.85.57,2.36.94,2.59,1.17.24.26.57.45.99.57,1.14.31,1.42.42,1.54.47.26.1.58.38.98.85.14.15.37.23.69.23.17,0,.59-.09,1.41-.69.82-.62,1.42-.92,1.88-.92.42,0,.89.13,1.45.4.45.2.98.51.98,1.02,0,.12-.03.2-.17.52-.02.04-.04.07-.05.09.15-.04.36-.17.59-.54.1-.23.37-.48.79-.71.15-.07.25-.12.31-.16.71-1.04.91-1.3,1-1.4.36-.45.77-.68,1.2-.68l.82.08v.45c0,.14.03.48.15,1.31.09.71.13,1.23.13,1.59,0,.4-.37.69-1.01,1.06-.28.16-.43.26-.5.32.03.26.12.5.28.72.23.32.44.36.57.36l.87-.15c.63-.13,1.09-.2,1.38-.2.4,0,1.11.06,2.15.2,0-.04,0-.07,0-.1h0c0-.23-.04-.3-.04-.3-.18-.28-.31-.61-.41-.99,0,.03-.12-.1-.52-.41-.53-.42-.8-.86-.8-1.31,0-.38.17-.81.53-1.32,0,0,0,0,0,0,0,0,0,0,0,0,0-.02.03-.14.04-.41.07-.61.1-.7.12-.76.09-.39.42-.98.99-1.75.67-.9.76-1.14.77-1.18.08-.44.46-.92,1.14-1.42.72-.47,1.21-.8,1.48-1.01,0,0,.05-.04.06-.18v-.49c.03-.34.14-.64.33-.93.08-.11.12-.19.15-.24-.07-.16-.1-.3-.1-.44,0-.3.13-.72.74-1.04.54-.32.84-.5.91-.54,0,0,.18-.2.57-.88.38-.68.87-.82,1.22-.82.21,0,.46.08.79.24.07.03.13.05.19.07,1.71-.9,2.05-1.29,2.12-1.39-.02-.01-.08-.15-.27-.39-.44-.54-.52-.68-.52-.88,0-.17,0-.28,1.07-2.26,1.03-1.9,1.43-2.25,1.86-2.25.26,0,.56.1.96.31.3.16.48.19.59.19.7,0,.99-.26,1.02-.94h0c0-.22.08-.6.66-1.64.4-.75.45-1.08.45-1.2,0-.02,0-.03,0-.04-.02-.13-.03-.26-.03-.4,0-.58.17-1.25.51-2.04.39-.88.59-1.62.59-2.2l-.12-.78v-.06c0-.97.12-1.55.38-1.89.67-.96,1.11-1.62,1.29-1.96.01-.03.1-.3.1-1.57,0-.57.2-1.08.6-1.53.03-.03.05-.06.08-.09l-.3.29-.48-.39c-.25-.28-.37-.55-.37-.83,0-.34.09-.85.27-1.55.13-.62.21-1.56.21-2.78,0-.88-.09-2-.28-3.33h0s-.29-.53-.29-.53l.13-.03c-.12-.52-.28-1.24-.47-2.2l-.38-2.09c0-.28.03-.68.39-1.93.26-.96.51-1.67.76-2.17.12-.26.58-1.16,1.36-2.69.75-1.36.82-1.67.83-1.71-.06-.57-.03-1.1.07-1.58-25.65-1.55-40.68-2.52-44.7-2.87-.72-.08-1.5-.1-2.33-.06-.46.03-.79-.09-.96-.37-.12-.15-.28-.33-.46-.47l-.13-.11-.04-.17c-.07-.32-.18-.54-.31-.59-.08-.03-.34-.11-1.05-.09h-.25s-.16-.18-.16-.18c-.17-.21-.54-.65-.3-1.07.06-.1.07-.14.07-.14-.02,0-.25-.47-2.37-1.89-2.81-1.89-2.81-2.09-2.81-2.41.25-1.48.28-1.92.28-2.05,0-.04-.02-.31-.48-1.23-.28-.56-.59-1.1-.92-1.59-.1-.15-.26-.46-.54-1.4v-.02c-.19-.76-.34-1.31-.44-1.64-.13-.45-.22-.65-.26-.73-.01,0-.03,0-.04-.01-.04.23-.24.64-1.05,1.83-.72,1.05-.87,1.36-.9,1.43.01,0,.05.2.28.75.24.56.35,1.1.35,1.58,0,.24-.1.99-.85,4.6,0,.16.04.32.12.48l.3.7h-22.82v.04c0,.85-.27,1.7-.81,2.52-.59.86-.67,1.08-.68,1.12,0,.13.07.63.37,1.87.27,1.1.39,1.81.39,2.24,0,.14-.02.41-.2,1.27-.17.79-.18.98-.18,1,0,0,.02.16.31.63.35.64.42.89.42,1.08,0,.42-.07,1.29-.22,2.68l-.12.99c2.69.14,4.89.23,6.56.25l.46-.13c.27,0,.54.08.79.23.27.15.53.4.78.73.17.23.42.49.66.52l1.02-.22h1.32l.03.47c.02.32.02.74,0,1.28.04.17.16.41.55.61l.13.09.14.15.03.24c0,.37-.23.49-1.35,1.05-.52.37-.8.89-.8,1.54.44.2.74.53.84,1v.1s.04.25.1.66c.04.3.1.46.14.54.08.17.31.58.68,1.24.5.94.57,1.26.57,1.48,0,.4-.34.78-1.21,1.34-.54.33-.78.74-.78,1.29l.15.83c0,.32-.09.48-.77,1.17-.47.45-.57.72-.58.85l-.13.86c-.06.3-.26.51-.61.67-.02,0-.04.02-.05.02v.79c0,.7-.35,1.06-.65,1.25-.09.06-.32.18-1.18.62.44.37.7.74.8,1.13.46,1.9.46,2.03.46,2.12,0,.21-.09.45-.33.83-.1.16-.14.28-.16.36.09.15.26.42.51.81.32.5.54.9.65,1.22.03.04.06.08.09.11.34.54.54,1.01.62,1.47.22,1.48.29,1.77.31,1.82l.05.1v.1s0,1.56,0,1.56l-.38.1c-.05.01-.22.07-.59.29-.15.09-.24.16-.29.2.03.06.09.16.21.29.35.38.51.79.48,1.23-.02.26,0,.57.06.93.11.73.17,1.19.19,1.38.06.46.19,1.03.39,1.68.24.82.28,1.12.28,1.29-.03.28.01.46.13.63.09.14.25.29.63.29,0,0,.18-.04.49-.11.42-.09.77-.14,1.09-.14.35,0,1.56.06,3.7.19,2.1.12,3.42.19,3.92.19.32,0,.62-.03.88-.08.3-.07.61-.11.93-.11,1.01,0,1.47.47,1.67.87.21.37.31.95.31,1.81,0,.25-.14.47-.53.86-.15.17-.23.34-.23.53l.03.41c.01.17.02.33.03.48Z"/>
</svg>