<?xml version="1.0" encoding="UTF-8"?>
<svg id="OBJECTS" xmlns="http://www.w3.org/2000/svg" viewBox="0 0 213.68 149.61">
  <defs>
    <style>
      .cls-1 {
        fill: #ff9076;
      }
    </style>
  </defs>
  <path class="cls-1" d="M144.03,40.44c-.33-.1-.76-.33-1.33-.69-.37-.24-.81-.4-1.33-.5-.22-.04-.41-.09-.59-.14-.21.08-.44.15-.71.2-.21.04-.86.13-1.94.28l-.02.08s-.05.16-.07.48v.19s-.15.13-.15.13c-.03.03-.19.2-.48.5-.23.25-.33.38-.38.44.01.08.05.25.13.56l.02.13c0,.2-.07.5-.88,2.04-.43.78-.78,1.38-1.06,1.83-.23.46-.41.84-.54,1.11-.31.59-.63.98-.98,1.2-.17.1-.47.2-1.57.38-.25.04-.3.11-.3.11,0,.71-.3,1.11-.55,1.32.29.15.62.29,1,.41.49.16.93.27,1.3.33,1.05.19,1.3.17,1.33.17.46-.13.82-.43,1.1-.92.09-.3.19-.58.25-.76.2-.66.7-.73.91-.73.14,0,.33.04.58.11.08-.03.31-.13.77-.46.63-.46,1.32-.69,2.06-.69,0,0-.01,0-.01,0,0,0,.04-.03.1-.05.21-.09.39-.13.54-.13h.17l.13.1c.21.15.45.45.45.97s-.33.98-.97,1.38c-.46.26-.73.54-.82.85,0,.03-.03.12-.03.31,0,.15.01.36.04.66v.05s0,.05,0,.05c-.03.32-.17.61-.41.88-.03.03-.05.06-.07.08.37.07.69.22.95.45.26.24.42.53.47.85.06-.06.12-.14.19-.26.37-.6,1.1-.91,2.17-.91.92,0,1.6.47,1.98,1.35.28.65.46.74.46.74.19,0,.28-.09.34-.21.07-.12.1-.23.1-.33l-.17-.95.17-1.06c0-.07-.03-.41-.16-1.13-.19-.8-.2-.83-.2-.9h0v-.18l.11-.14c.11-.14.17-.23.19-.29l.06-.12.12-.08c.87-.56,1.07-.64,1.2-.67h.11s1.04-.01,1.04-.01v1.36c.2.03.36.05.47.06.24,0,.79-.01,1.61-.03h.31s.15.26.15.26c.17.32.43.49.82.53.26.02.79,0,1.55-.06.1,0,.28,0,2.59.1l-.07-.39c-.07-.45-.14-.89-.22-1.32,0-.02-.05-.16-.26-.42-.23-.35-.35-.64-.38-.91-.17-1.13-.26-2.06-.29-2.72v-1.25c-.01-.12-.06-.32-.13-.54-.25-.64-.25-.65-.25-.76-.05-.2-.1-.42-.14-.56-.04-.14-.12-.27-.26-.4-.03-.03-.14-.12-.62-.42-.3-.18-.46-.26-.53-.29-1.06.18-1.35.21-1.49.21-.61-.09-1.15-.13-1.67-.13-.12,0-.32-.02-.87-.14-.45-.1-.64-.11-.71-.11l-1.37.06c-.29-.03-.58-.03-.97,0-.31.01-.72-.07-1.19-.21-.47-.17-.77-.27-.91-.31Z"/>
  <path class="cls-1" d="M68.83,72.94c.06.08.27.29.97.58.85.33,1.29.78,1.29,1.35,0,.38-.12.7-.34.96-.04.04-.07.07-.09.1.04.06.14.18.35.36.47.39.72.86.72,1.39l-.13,1.07c0,.11,0,.55,1.1.81.34.07.88.12,1.59.14.13-.62.3-1.1.53-1.46.38-.68.44-.86.45-.89.11-.56.17-1.49.17-2.71l-.51-1.43c-.38-1.04-.57-2-.57-2.85,0-.63.24-1.16.69-1.53.99-.79,1.39-1.17,1.55-1.36.1-.13.21-.32.29-.55.07-.22.09-.37.09-.48,0-.06,0-.1-.01-.13-.03-.08-.05-.19-.05-.32,0-.24.08-.56.36-.91.22-.3.37-.51.44-.63.03-.24.14-.55.35-1.01.12-.3.21-.48.28-.61-.03-.29-.04-.68-.04-1.18v-.14l.07-.12c.14-.23.28-.59.42-1.07.28-.61.74-.98,1.38-1.17,5.69-1.68,6.94-2.77,7.17-3.27h0s.07-.19.52-.81c.25-.34.28-.46.28-.46h0c0-.33.14-1.15,1.34-1.31.04-.02.33-.15.81-.37.86-.35,1.19-.39,1.38-.39.41,0,.79.18,1.14.53.16.16.35.23.59.23.07,0,.22-.02.49-.14.52-.28,1.14-.35,1.81-.15.61.17,1.28.05,1.7-.22.21-.13.34-.25.36-.35.41-1.52.45-1.82.46-1.87,0-.46-.08-.58-.08-.59-.43-.17-.86-.64-1.28-1.4-.19-.38-.37-.86-.55-1.46-.18-.67-.27-1.17-.27-1.53,0-.48.1-.88.31-1.17.22-.33.4-.68.53-1.03v-.12s.18-.17.18-.17c.1-.09.2-.18.31-.28,1.02-.94,1.07-1.27,1.07-1.28,0-.32-.12-.96-.71-2.18-.8-1.67-.81-1.78-.81-1.92h0c0-.56.3-1.13.88-1.69.12-.11.24-.23.36-.34-.1-.08-.23-.19-.41-.33-.7-.54-1.02-.98-1.02-1.41,0-.34.22-.78,1.34-1.93.3-.32.62-.65.94-.97-.07-.21-.1-.37-.1-.51,0-.51.32-.95.95-1.29.4-.19.63-.39.67-.57.27-.96.7-1.51,1.3-1.63.27-.05.63-.08.9.15.03.02.05.05.07.07.1.02.2.05.3.08.05-.02.11-.07.17-.22.34-.83.54-1.11.65-1.24.11-.13.35-.36,1.16-.93.23-.21.44-.52.61-.9-.37-.27-.68-.48-.93-.64-.38-.22-.82-.35-1.3-.37h-.12v-.22s-.06.17-.06.17c0,0-.25-.01-1.49.15h-.04c-2.57,0-3.96-.42-4.4-1.32-.05-.03-.15-.09-.35-.18l-.14-.09c-.35-.33-.6-.56-.74-.68-.46-.41-.65-.49-.7-.5-.06,0-.32-.01-.74-.01-.52.06-.9.09-1.07.09-.24,0-.5-.11-.83-.35-.1-.07-.17-.12-.22-.16h-.04s-.07.07-.1.1c-.35.35-.67.57-.97.69-.21.07-.38.15-.5.25-.18.15-.35.26-.55.26l-.15-.02-.99-.32-1.17.06c-.83,0-2.01,0-2.01-.78v-.14l.07-.12c.05-.08.07-.13.09-.18l-.46-.88c-.09-.12-.12-.34-.08-.6.01-.08.02-.14.02-.17.1-.63.15-.99.17-1.18-.16-.06-.44-.17-.93-.32-1.01-.29-1.28-.41-1.42-.48-.55-.32-.7-.73-.72-1.02.02-.42.01-.57,0-.63-.05-.26-.09-.43-.12-.53-.1-.01-.28-.02-.56-.02-.43,0-.84.23-1.28.69-.76.82-1.06.98-1.34.98-.34,0-.64-.19-.91-.55-.23-.32-.35-.67-.35-1.05.08-.5.12-.75.13-.84,0-.16-.04-.21-.04-.21-.74.19-.97.22-1.11.22-.32,0-.59-.13-.79-.37-.14-.17-.27-.3-.39-.37l-1.28-.85c-.08.17-.19.35-.32.53-.37.52-.45.83-.45,1.01,0,.31-.19.65-.63,1.15-.41.41-.41.58-.41.58,0,.04,0,.16.16.33.26.33.38.6.38.87,0,.73-.08,1.33-.25,1.81-.25.64-.67,1.22-1.28,1.76-.1.08-.12.25-.12.35,0,.5-.06.84-.19,1.07-.12.19-.33.49-.63.9-.28.35-.33.46-.33.47,0,0-.03.23-.14,1.55-.09.86-.31,1.57-.64,2.14-.15.36-.3.69-.43.93-.25.49-.6.88-1.04,1.14-.46.24-.82.5-1.1.78-.27.25-.32.4-.31.45.09.5-.04,1.06-.39,1.76-.32.48-.5.77-.58.91-.11.17-.2.38-.27.64-.05.2-.19.48-1.33,1.62-.89.89-1.18,1.4-1.27,1.66-.04.11-.11.29-.21.77-.24.77-.72.91-.98.93-.29.03-.53.09-.7.17-.22.2-.42.37-.58.49-1.04.51-1.91.98-2.7,1.45-.78.48-1.48,1.03-2.08,1.65.17.05.29.07.36.09.03,0,.15.02.64.02l2.32-.06c.09-.03.29-.11.6-.22.59-.18,1.03-.24,1.39-.19l.45.07-.08,1.33c.12.07.37.2.85.41.98.43,1.56,1.11,1.72,2.02.69,4.6.76,5.57.76,5.9,0,.29-.09.81-.81,2.19-.44.86-.66,1.58-.64,2.12.03,1.14-.5,1.68-.95,1.94-.12.07-.21.14-.28.2l.7-.09c.43,0,.63.04.78.14.21.14.32.39.32.73,0,.22-.09.55-.51.83h0l.49.77c.46.7.81,1.22,1.05,1.55.21.26.67.72,1.36,1.35.38.32.66.7.84,1.14.58-.15,1.25-.39,2-.72.93-.42,1.55-.61,1.97-.61.32,0,1.07.15,1.07,1.54,0,.35-.13.86-.75,1.29-.46.28-.8.49-1.03.63,0,.4-.1.69-.28.93-.92.84-1.06,1.04-1.08,1.07l-.1.11c-.51.44-.72.67-.8.79,0,0-.07.15-.32.83-.16.38-.26.79-.3,1.24.43.42.7.82.82,1.23.09.3.17.71.25,1.24Z"/>
  <path class="cls-1" d="M110.08,26.3c-.26.15-.36.32-.36.58,0,.13.09.53.88,1.28l.16.15v.22c0,.13-.04.28-.24.71-.16.3-.18.44-.18.49,0,.08.02.18.18.3.37.3.55.77.55,1.41v.48c.49.11.62.19.72.26.35.29.39.78.39,1.13,0,.11,0,.34-.49,2.54-.41,1.71-.49,2.43-.49,2.74,0,.82.31,1.43.95,1.86.24.17.55.38.94.63l.13.09.06.15c.17.41.38,1.06.65,1.94l.02.14c0,.19-.03.63-.29,2.17-.21,1.11-.31,1.94-.31,2.48,0,.06.03.33.4,1.12.55,1.1.55,1.18.55,1.31h0s.01.05.01.17c0,.15-.01.44-.04.94,0,.05,0,.1,0,.15,0,.34.06.49.09.54.04.07.32.36,1.56.59,1.41.27,1.71.93,1.71,1.44,0,.33-.13.77-.4,1.32-.35.67-.46,1-.5,1.16-.06.21-.13.53-.2.96.32-.07.42-.08.49-.09h0c.33,0,.71.14,1.18.42.27.16.53.24.75.24.14,0,.46-.07,1.08-.56.63-.51,1.26-.77,1.89-.77.2,0,.47.09,1.2.51.52.29.96.49,1.3.58.42.12.74.35.95.69l.41.67c.21.22.4.58.5.99.11.33.17.42.17.43,0,0,0,0,0,0,.02,0,.28.18,1.34.72.09-.05.26-.2.5-.63.1-.22.22-.47.36-.74l-.13-.12.3-.27.15-.68.31.27c.16-.14.34-.3.55-.48.03-.49.14-.91.33-1.31.07-.14.13-.24.16-.32l-.44-.89c-.55-1.13-.59-1.33-.59-1.49,0-.17.01-.2.52-.99.24-.38.36-.71.36-1l-.12-1.89v-.02c0-.17,0-.33.02-.46l-.03-.02.24-1.04.13.08c.07-.1.16-.18.26-.25,0,0,0,0,0,0,.05-.04.16-.18.16-.5,0-.28.11-.95,1.14-1.12.99-.16,1.2-.25,1.23-.26.11-.07.33-.27.59-.77.12-.25.31-.65.56-1.16.29-.48.64-1.07,1.05-1.82.55-1.03.7-1.41.75-1.54-.13-.5-.14-.67-.14-.77,0-.26.16-.53.61-1.01.19-.2.33-.35.42-.45.02-.23.06-.4.1-.54.06-.4.35-.7.77-.75,1.02-.13,1.65-.22,1.9-.27-.01-.04-.02-.07-.03-.11-.1-.03-.23-.12-.34-.22-.04-.03-.42-.26-2.38-.82-.54-.19-.99-.78-1.49-1.92-.06-.15-.21-.4-.56-.83-.34-.38-.59-.67-.74-.87-.13-.25-.19-.31-.21-.33-.03-.04-.12-.13-.46-.22-.37-.12-.66-.31-.88-.56-.08-.1-.14-.15-.19-.15-.47-.08-1.02-.36-1.72-.85-.51-.37-.9-.66-1.17-.86l-.16-.07c-.92-.49-1.58-.88-2.02-1.19-1.64-1.05-1.72-1.15-1.79-1.25l-1.27-1.39c-.37-.41-.78-.76-1.23-1.05-.15-.1-.57-.36-1.8-1.02-1.23-.67-1.69-.89-1.85-.96-.88-.41-1.37-.5-1.64-.5-.25,0-.44.04-.57.13-.3.22-.67.35-1.08.37-.73.14-1.47.26-2.15.34-.05,0-.2.03-2.1.1-.34.02-.73.05-1.16.1l.02.12v.05c0,.97-.27,1.58-.8,1.9Z"/>
  <path class="cls-1" d="M132.17,101.18c.11-.1.29-.26.63-.51.06-.1.15-.26.24-.53l.07-.14c.27-.36.59-1.04.98-2.03.2-.52.49-1.15.88-1.86.42-.78.59-1.02.69-1.13,1.06-1.39,1.75-2.35,2.03-2.83.11-.2.26-.46.48-.77-.18-.02-.48-.08-1.1-.26-.88-.25-1.4-.4-1.56-.44-.33-.1-.69-.38-.69-1.21,0-.37,0-.61-.01-.73-.13-.3-.24-.68-.33-1.17-.05-.34-.08-.5-.09-.57-.12-.12-.35-.31-.84-.66-.35-.25-.53-.7-.53-1.39,0-.5.06-1.03.47-1.24l.3-.15.88.79c.14.02.42.02.86,0,.04-.19.11-.44.22-.8.12-.39.15-.64.15-.81,0-.06,0-.1,0-.14-.02-.14-.03-.27-.03-.4,0-.65.28-1.06.53-1.3.28-.26.34-.41.35-.45-.01,0-.06-.13-.24-.41-.21-.29-.35-.69-.4-1.17-.14-.01-.34-.02-.63-.02h-.5v-.5s-.08-.27-.26-.91c-.01-.04-.03-.08-.06-.15l-.03-.13c0-.09-.03-.22-.06-.4-.09-.54-.1-.72-.1-.81,0-.26.11-.53.33-.81h0c-.06-.04-.14-.06-.26-.09-.57-.06-.99-.12-1.26-.2l-.37-.1v-.38c0-.23-.05-.49-.16-.77l-.06-.14c-.2-.49-.29-.88-.29-1.2v-.11s.17-.71.17-.71c-.04-.02-.1-.05-.18-.08-.36-.17-.67-.25-.95-.25-.55.04-1,.06-1.33.06h-.71l.24-.67c.06-.16.08-.27.08-.36,0-.19-.11-.23-.22-.27-.73-.15-1.3-.36-1.66-.65-.03-.02-.3-.15-1.65-.31-.55-.06-.94-.26-1.15-.59-.07-.11-.11-.22-.14-.35-1.06.3-1.45.46-1.59.53-.01.06-.04.19-.05.41-.04.63-.43,1.01-1.04,1.01-.22,0-.43-.08-.63-.24-.05,0-.09,0-.13,0,.04.13.05.26.05.4,0,.58-.49,1.16-1.58,1.87l-.1.05c-.18.07-.5.12-1.62.06-.1,0-.14.02-.14.02,0,.11.03.33.35,1.27l.03.16c0,.24-.11.8-1.11.85-.51-.04-.78-.06-.88-.06-.04,0-.22.02-.56.32-.45.39-.78.57-1.09.57l-.85-.06-.05-.4c-.12-.88-.13-1.16-.13-1.3,0-.41.34-.73.63-.96.03-.02.06-.05.09-.07-.15-.12-.38-.31-.75-.59-.21-.2-.35-.45-.51-.84-.13-.37-.21-.57-.24-.69-.04-.03-.15-.09-.41-.15-.73-.13-.86-.19-.97-.27-.35-.29-.45-.34-.46-.35-.41-.08-.78-.16-1.07-.22-.49.46-1.01.98-1.57,1.55,0,0,0,0-.01.01,0,0,0,0,0,0,0,0,0,0-.01.02l-.03.03s-.03.03-.04.04c-.01.01-.02.02-.03.03l-.08.07c-1,.66-1.27.91-1.33.99-.07.23-.13.41-.19.56-.04.09-.07.16-.11.23,0,0,0,0,0,0,0,0,0,0,0,0-.16.26-.47.49-1.04.77l-.1.05h-.5l-1.45-.16c-.7,0-1.5.38-2.32,1.14-1.32,1.22-1.8,1.39-2.14,1.39-.59,0-1.18-.33-1.77-.99-.36-.43-.69-.65-.95-.65-.04,0-.21.01-.61.2l-.78.27c-.31,0-.5-.21-.95-.89-.05-.09-.11-.18-.15-.26-.46.37-1.05.73-1.79,1.12-.5.27-.71.43-.81.52.06.13.24.45.77,1.09.98,1.19,1.03,1.37,1.03,1.58,0,.23,0,.52-1.94,2.94-1.59,1.97-1.8,2.45-1.82,2.54l-.06.43h-1.04s-1.22-.14-1.22-.14c-.88,0-1.64.41-2.26,1.25-1.26,1.66-1.32,1.66-1.6,1.66l-.21-.05c-2.1-.98-2.63-1.42-2.85-1.67-2.14-2-2.15-2.05-2.15-2.32h0s.24-1.26.24-1.26c-.05-.13-.16-.37-.32-.71-.11-.26-.2-.48-.27-.68-.09.11-.19.21-.3.3-.04.04-.07.07-.11.11.03.07.05.15.05.25,0,.6-.66.89-1.23,1.08-.55.18-.9.45-1.05.8-.31.64-.71,1.2-1.21,1.7-.68.68-.89.94-.95,1.03-.83,1.17-1.12,1.61-1.21,1.77-.42.72-.65,1.36-.69,1.91.11.11.38.36,1.07.89,1.25.93,1.46,1.24,1.46,1.56,0,.21-.01.23-.75,1.11-.37.4-.55.75-.55,1.04.1.07.35.3.35.79,0,.38-.14.73-.4.99-.04.04-.07.08-.09.11,1.63,2.53,1.63,2.78,1.63,2.98,0,.13-.03.35-.22.87-.1.29-.16.59-.16.87,0,.24-.01.53-.03.88,0,.33-.03.64-.07.89-.02.44-.06.77-.15,1.01-.15.35-.16.49-.16.53,0,.1.04.32.29.7.29.42.46.36.54.34l.15-.02h.82l-.02,1.56c-.19.64-.55,1.24-1.07,1.78-.29.3-.43.63-.43.98,0,.03,0,.21.2.8.21.6.35.73.37.75-.02-.02.18.04,1.08.21.8.21,1.58.51,1.58,1.15v.14l-.92,1.54s-.07.19-.12.65c-.02.23-.05.54-.09.95-.03.22-.12.59-.55,1.58.05-.01.1-.02.15-.03l.12-.02c.17,0,.34.06.56.21l.22.15v1.39l-.46.04s-.14.03-.44.41c-.09.11-.16.2-.2.27.28-.11.74-.34,1.49-.84,1.48-.97,2.08-1.12,2.41-1.16.34-.03.63-.16.89-.38.18-.15.39-.36.65-.65l.74-.67c.27-.21.62-.43,1.12-.68.17-.08.63-.28,1.41-.64.66-.33.89-.5.96-.56.08-.27.16-.51.24-.73.27-.57.61-.91,1.02-1.03.41-.12.82-.18,1.22-.18.98.02,1.5.03,1.55.03.07,0,.44-.03,2.25-.34.19,0,.37.01.82.14l.36.1v.83c-.14.57-.51.95-1.04,1.05-.03.55.58,1.04,1.09,1.36.69.44,1.29.68,1.8.71.07-.06.21-.19.46-.49,1.03-1.25,2.35-1.11,3.97.12,1.59,1.22,2.07,1.53,2.21,1.6.05.02.09.04,1.92,1.4,1.26.93,1.6.98,1.63.98.66,0,1.18-.12,1.56-.36.25-.15.45-.28.62-.42l.13-.11h.17c.96,0,1.75.32,2.35.94.28.28.57.66.85,1.1.16.17.33.45.33.92,0,.06,0,.1,0,.14.07.03.14.06.21.09.15.06.48.25.48.78l-.09.75c.27-.04.75-.17,1.54-.51q1.42-.61,1.56-.61t1.44.81c.87.45,1.81.74,2.75.84.6.05,1.4.39,2.43,1.06,1.32.89,1.59,1.33,1.59,1.72,0,.26,0,.53-2.21,2.67-.6.64-1.02,1.09-1.26,1.32-.25.3-.39.6-.39.88,0,.15.03.21.04.23.21.3.35.56.43.77l.22.58-.61.09c-.68.1-1.14.19-1.38.24-.28.07-.28.16-.29.21-.02.23,0,.61.03,1.13,0,.53-.11.93-.31,1.23v.36c1.1.33,2.04,1.43,2.84,3.34l.04.19c0,.15-.05.32-.29.86v.28c.89.14,1.15.2,1.27.25.46.14,1.09.47,1.91,1,.2.13.38.27.54.42.03-.07.05-.13.08-.2.28-.76.99-1.57,2.16-2.47.06-.17.15-.37.26-.6.24-.42.38-.65.42-.74.1-.32.17-.71.17-1.07l-.16-3.93c0-.61.15-1.36.47-2.32.35-1.06.58-1.96.68-2.66.11-.91.44-1.77.97-2.55.38-.56.58-1.04.58-1.39,0-.39-.07-.78-.2-1.17-.12-.29-.23-.49-.37-.64l-.11-.18c-.18-.56-.36-1.33-.55-2.37-.36-1.85-.54-3.65-.54-5.33,0-.77.13-1.5.38-2.17.14-.37.31-1.17.28-2.98,0-.65.09-1.46.26-2.43.11-.64.15-1.32.13-2.03-.02,0-.05-.02-.08-.02l-.35-.11v-.85l.07-.12c.13-.23.25-.47.34-.72.18-.34.49-.6.97-.84.25-.14.62-.4,1.08-.77.18-.16.54-.38,1.12-.68l.11-.06h.12c.27,0,.42.18.68.5.02.03.05.05.06.07.1-.03.24-.07.43-.14l.16-.03c.1,0,.16,0,.21,0Z"/>
  <path class="cls-1" d="M148.34,78.97c.06-.13.16-.35.37-.75.18-.39.49-.73.91-.99.38-.28,1.08-.96,2.05-2,.21-.23.88-.93,2-2.09.92-1.03,1.6-1.91,2.01-2.61-.13,0-.25-.01-.38-.02-2.18-.14-2.59-.05-2.65-.03-.42.16-.53.19-.64.19l-.2-.04-.57-.25s-.03-.01-.05-.02h-.28c-.15,0-.29.05-.43.14-.2.16-.43.32-.66.48,0,.05-.02.1-.03.15-.12.46-.44.85-.95,1.17-.5.29-.78.47-.86.53-.61.54-1.36.81-2.22.81-.33,0-.7.11-1.09.32-.84.44-.85.44-1,.44-.16,0-.31-.05-.84-.35-.55-.32-.69-.44-.77-.57-.03-.04-.22-.32-1.5-.93-.41-.15-.68-.26-.79-.3-.34-.17-.54-.43-.62-.77-.07-.32-.15-.45-.18-.48-.01.02-.05.05-.11.12-.32.32-.69.47-1.12.47-.59,0-.9-.64-1.03-.96-.03.5-.05.87-.05,1.09l-.02.13c-.11.42-.51.72-1.29,1-.46.15-.91.37-1.33.64l1.19.71c.17.07.3.15.4.24,1.03.59,2.01,1.18,2.91,1.75.52.34.96.58,1.33.71.1.04.38.1,1.08.13.61.02,1.07.16,1.43.4.11.07.35.2.89.41,0,0,.02,0,.02,0,.22.11.51.33.51.88,0,.13-.02.3-.05.52.05.08.17.27.5.64.32.36.48.52.56.58.2-.01.4-.06.62-.15l.19-.04h.64l.12.34c.02.07.04.15.04.42,0,.07,0,.15,0,.24l1.99-2.31Z"/>
  <path class="cls-1" d="M157.08,66.1c.19-.66.39-1.68.58-3.03.2-1.29.32-2.35.36-3.16-.19-.2-.34-.28-.43-.32-.44-.17-.76-.41-.94-.71-.07-.11-.14-.19-.2-.25-.36.32-1.04.5-2.13.56-.01,1.11-.54,1.51-.99,1.64-.06.02-.21.06-.83.33-.46.23-.87.36-1.24.39-1.48.06-2.25.1-2.31.1-.64.05-.97.12-1.14.17.02.06.04.13.07.23l.02.15c0,.41-.25.88-.97.88-.16-.02-.3-.04-.41-.06,0,.11,0,.22,0,.35v.11c-.08.31-.31.73-1,.96-.07.02-.35.13-1.44.83-.87.56-1.48.84-1.91.87-.41.03-.94-.15-1.24-1.22-.05-.2-.11-.42-.18-.65-.67-.66-.98-1.14-.98-1.57,0-.35.29-.56.65-.77.02-.01.1-.15.14-.46.04-.15.05-.23.06-.32l.03-.36c-.02-.25-.03-.5-.03-.68,0-.48.25-.85.68-1.01.22-.09.47-.21.75-.35-.25.03-.5.04-.74.02-.79-.08-1.01-.5-1.08-.77-.12.09-.42.34-1.07.95-.89.85-1.43,1.36-1.62,1.53-1.17,1.1-1.85,1.73-2.07,1.91-.26.23-.77.33-1.7.33l-1.42-.05.03-1.03s.01-.04.01-.05c0-.02-.01-.04-.04-.08-.05-.05-.09-.09-.2-.09-.19.17-.44.36-.77.54l-.11.06h-.96l-.11-.34c-.06-.18-.15-.33-.29-.47-.14-.11-.3-.24-.46-.37-.09.18-.17.35-.25.52-.45.82-.92,1.2-1.46,1.2h-.12l-.11-.05c-1.55-.79-1.71-.95-1.8-1.04-.12-.15-.21-.31-.37-.79-.08-.3-.18-.51-.34-.67l-.47-.74c-.08-.12-.2-.21-.38-.26-.42-.12-.92-.34-1.53-.68-.58-.34-.74-.38-.75-.38-.34,0-.76.19-1.22.56-1.25.97-2.02.94-2.97.39-.42-.26-.61-.28-.66-.28-.01,0-.19.03-.96.23-.12.04-.26.08-.41.13-.04.01-.08.02-.13.04l.04.24c0,.11-.02.66-.06,1.66,0,.02.14.24.8.53l.3.13v.33c0,.58-.05.98-.16,1.26-.03.11-.15.43-.64,1.48-.27.61-.93,1.25-2.01,1.94-1.22.8-1.91,1.25-2.06,1.35,0,0,0,0,0,0,0,0,0,0,0,0,0,0-.01,0-.02.01,0,0,0,0,0,0-.2.16-.4.33-.62.52.12.03.25.05.39.08.16.03.36.13.76.47.07.02.23.06.62.13.57.12.93.33,1.11.66l.06.17c.03.1.11.31.22.63.14.36.23.44.23.45,1.15.88,1.25,1.02,1.25,1.3,0,.33-.25.6-.63.9-.22.17-.27.26-.27.26.01.02.03.21.08.67.03-.03.17-.1.4-.31.43-.38.83-.57,1.21-.57.11,0,.41.02.9.07,0,0,0,0,0,0-.26-.79-.3-1.06-.3-1.21,0-.68.45-1.1,1.16-1.1.83.04,1.12.02,1.22,0,1.03-.69,1.06-.99,1.06-.99,0-.12-.03-.2-.11-.28l-.29-.29.23-.34c.22-.34.64-.51,1.24-.51.26,0,.49.09.67.27.02-.56.09-1.04.43-1.24.16-.12.58-.31,2.24-.78l.13-.02h1.09l-.24.67c-.03.1-.04.15-.04.19,0,.02,0,.03,0,.03s.07.09.41.13c1.54.18,1.94.35,2.15.51.16.13.52.31,1.31.47.63.22.94.66.94,1.23h0c.2,0,.43-.02.69-.04.44,0,.92.11,1.39.33.27.11.82.34.82.83v.11s-.22.92-.22.92c0,.08.02.18.06.33.49-.31,1-.56,1.53-.73.42-.15.58-.27.63-.32,0-.41.05-1.11.13-2.12l.04-.46.95.02c.34.1.57.42.84,1.16.09.24.17.35.2.39.16-.02.24-.08.3-.13.23-.29.53-.46.86-.46.4,0,.93.22,1.15,1.28.12.09.39.2.83.36,1.41.67,1.79,1.05,1.94,1.29,0,0,0,0,0,0,.02,0,.13.08.44.26.13.08.24.13.32.18.12-.06.3-.15.55-.28.53-.29,1.05-.44,1.56-.44.62,0,1.13-.19,1.57-.57.03-.03.08-.09.99-.62.28-.17.45-.36.5-.55.02-.09.04-.19.05-.3l.03-.22.19-.12c.28-.18.55-.37.82-.58.26-.17.51-.27.77-.31.28-.17.63-.05.96.08l.42.19c.05-.02.14-.05.25-.1.28-.1.85-.18,3.06-.03.26.02.52.02.77.03.19-.47.34-.93.44-1.38.23-1,.41-1.69.51-2.05Z"/>
  <path class="cls-1" d="M142.03,84.18l.15-.15c.26-.17.55-.35.84-.52,1.01-.6,1.8-1.09,2.36-1.48-.02-.11-.04-.23-.05-.36,0-.11,0-.21,0-.3-.24.06-.48.1-.71.1-.27,0-.5-.13-1.2-.93-.55-.63-.76-.97-.76-1.26,0-.03,0-.07,0-.1.04-.2.06-.35.06-.45-.44-.17-.77-.33-.98-.47h0s0,0,0,0c-.2-.13-.5-.21-.89-.23,0,0,0,0-.01,0-.66-.02-1.1-.08-1.38-.19-.44-.16-.94-.43-1.52-.81-.71-.45-1.48-.92-2.29-1.39l-.06.08c-.13.17-.14.23-.14.23,0,.09.03.3.09.64.03.17.05.31.06.41l.02.06c.1.36.17.62.22.79.41.01.68.05.88.11l.34.11v.36c0,.46.08.8.25,1.03.35.55.41.78.41.96,0,.38-.22.77-.66,1.19-.1.09-.22.25-.22.57,0,.08,0,.16.02.25.01.09.02.19.02.29,0,.32-.06.68-.19,1.1-.21.7-.26.96-.27,1.05l-.05.42-.42.03c-.71.04-1.12.06-1.23.06-.28,0-.53-.09-.73-.27.02.32.1.4.1.4.55.39.89.67,1.07.87.11.11.18.28.28,1.02.09.52.2.81.27.95.06.12.08.2.08,1.11,0,.14.01.22.03.26.23.06.73.2,1.51.42.76.22.94.23.97.23.03,0,.23-.02.57-.06.23-.34.39-.6.47-.76,1.05-2.41,1.96-4.22,2.68-5.38Z"/>
  <path class="cls-1" d="M106.71,24.01c-.24.58-.57,1.07-.97,1.44-.75.53-.97.74-1.04.81-.05.06-.2.27-.48.96-.3.74-.86.85-1.16.85l-.19-.04c-.13-.05-.26-.08-.38-.09l-.47-.03v-.16c-.18.07-.36.4-.5.9-.12.47-.52.88-1.18,1.2-.24.13-.41.29-.41.4,0,0,0,.11.15.43l.13.31-.24.24c-.4.4-.78.79-1.16,1.19-.87.89-1.04,1.21-1.07,1.28h0s.13.19.63.57c.86.67,1.02.83,1.02,1.12v.21l-.15.15c-.24.24-.48.47-.74.71-.25.24-.56.61-.56.96,0-.06.11.23.71,1.49.54,1.13.81,1.99.81,2.62,0,.51-.42,1.11-1.39,2.01-.05.04-.09.08-.14.12l-.12.12c-.16.39-.36.79-.61,1.17-.09.14-.14.34-.14.61,0,.19.04.55.23,1.26.16.53.32.96.47,1.27.37.67.67.91.86,1,.55.22.61.94.61,1.47,0,.11,0,.29-.49,2.12-.1.36-.37.67-.8.93-.62.42-1.57.59-2.5.34-.44-.13-.75-.1-1.08.08-.37.17-.67.25-.93.25-.51,0-.95-.18-1.3-.53-.23-.23-.39-.23-.44-.23-.04,0-.25.02-.98.31-.84.39-.95.42-1.01.43-.54.08-.54.25-.54.37,0,.27-.14.58-.48,1.03-.33.45-.4.57-.4.59-.37.8-1.56,2.01-7.82,3.85-.37.11-.61.29-.73.56-.12.43-.26.82-.43,1.12,0,.61.03.93.06,1.09l.03.22-.14.17s-.09.12-.28.57c-.26.58-.28.74-.28.76l-.03.16c-.03.08-.06.17-.61.92-.11.15-.16.25-.16.3,0,0,0,.02,0,.02.04.14.06.29.06.44,0,.25-.05.51-.15.81-.13.34-.28.62-.46.84-.29.34-.84.83-1.69,1.51-.21.17-.32.41-.32.75,0,.74.17,1.59.51,2.51l.57,1.69c0,1.35-.06,2.34-.2,3.03-.05.18-.15.42-.56,1.16-.15.24-.27.56-.37.97.35.02.7.08,1.06.19.11-.08.22-.17.32-.28.21-.19.37-.39.49-.59l.14-.25h1.2v.5c0,.08.03.35.34,1.03.42.91.42.96.42,1.08h0s-.22,1.16-.22,1.16c.19.2.66.66,1.83,1.76.16.18.63.54,2.24,1.31.15-.18.42-.52.91-1.15.81-1.09,1.86-1.65,3.11-1.65l1.22.13h.2c.21-.42.72-1.16,1.88-2.6,1.19-1.48,1.56-2.06,1.68-2.27-.09-.13-.29-.41-.76-.98-.91-1.09-1.03-1.51-1.03-1.8,0-.42.37-.78,1.37-1.32.92-.48,1.61-.94,2.03-1.37l.46-.46.32.57c.08.15.23.4.44.75.1.15.17.26.23.33l.26-.1c.4-.19.73-.29,1-.29.57,0,1.15.34,1.71,1,.37.42.72.64,1.01.64.01,0,.34-.09,1.46-1.13,1.02-.93,2.05-1.4,3.06-1.4l1.45.16h.2c.43-.22.51-.33.52-.34.03-.05.11-.22.23-.63l.02-.06c.09-.21.3-.49,1.65-1.38.42-.44.83-.85,1.22-1.22h-.02s.71-.65.71-.65h0s.19-.18.19-.18h0c.39-.36.77-.68,1.12-.96.02-.01.03-.02.05-.04,0,0,0,0,.01,0,.02-.01.03-.02.05-.04.01-.02.03-.03,2.16-1.42h0s.04-.03.06-.04c1.07-.7,1.45-1.19,1.58-1.48.44-.93.57-1.27.61-1.4.03-.09.08-.25.1-.61-.45-.22-1.1-.65-1.1-1.33.04-.89.06-1.42.06-1.59l-.21-1.01.46-.12c.24-.06.46-.13.66-.18.1-.7.2-1.19.28-1.49.07-.29.26-.75.57-1.36.26-.55.29-.79.29-.88,0-.17-.34-.35-.89-.46-1.2-.22-1.9-.55-2.22-1.04-.17-.28-.24-.63-.24-1.08,0-.06,0-.13,0-.2.03-.51.04-.75.04-.87,0-.06,0-.09,0-.1,0-.01-.07-.19-.46-.97-.34-.74-.5-1.21-.5-1.55,0-.6.11-1.47.33-2.65.21-1.24.26-1.73.27-1.93-.21-.71-.39-1.26-.54-1.63-.34-.22-.61-.4-.83-.55-.92-.62-1.38-1.52-1.38-2.68,0-.53.17-1.5.52-2.96.42-1.9.46-2.25.46-2.32,0-.17-.02-.27-.03-.33-.09-.03-.29-.08-.67-.16l-.4-.08v-1.29c0-.31-.06-.54-.16-.62-.46-.35-.56-.78-.56-1.08,0-.28.09-.58.28-.93.02-.05.04-.09.06-.13-.65-.66-.97-1.25-.97-1.78,0-.62.29-1.12.85-1.44.26-.16.32-.63.32-.99l-.05-.22c-1.46-.09-2.49-.16-3.13-.22Z"/>
  <path class="cls-1" d="M133.89,73.95s.01,0,.02,0l-.02-.02v.02Z"/>
  <polygon class="cls-1" points="140.3 57.97 140.3 57.97 140.3 57.97 140.3 57.97"/>
  <path class="cls-1" d="M158.06,58.71c-.03-.97-.17-1.78-.4-2.4-.38-1.06-.75-2.49-1.11-4.24-2.18-.09-2.66-.11-2.75-.11-.77.06-1.33.08-1.68.06-.62-.07-1.1-.34-1.43-.78-.68.02-1.14.02-1.41.02-.25-.02-.56-.07-.99-.13l-.43-.06v-1.2c-.1.05-.3.17-.7.43-.03.05-.06.1-.1.15.03.12.08.32.14.58.12.68.17,1.13.17,1.41l-.15.98.14.87v.05c0,.33-.07.6-.21.85-.25.47-.7.73-1.26.73-.69,0-1.1-.77-1.34-1.35-.22-.51-.54-.74-1.06-.74-.48,0-1.09.07-1.31.43-.35.58-.76.87-1.22.87-.33,0-.53-.14-.63-.25-.09-.1-.19-.27-.19-.52,0-.03,0-.06,0-.1,0-.01,0-.03,0-.04,0-.13-.05-.24-.16-.33-.13-.12-.31-.19-.55-.22-.49-.09-.79-.43-.79-.91,0-.28.13-.56.4-.83.07-.08.12-.16.13-.25-.03-.27-.04-.51-.04-.71,0-.25.02-.45.07-.6.16-.56.59-1.05,1.28-1.43.27-.17.45-.34.47-.48-.17.07-.28.09-.38.09-.53,0-1.01.17-1.47.5-.65.47-1.07.67-1.4.67l-.16-.03c-.17-.06-.27-.08-.33-.09,0,.01-.01.03-.02.05h0c-.07.2-.17.46-.29.83-.44.81-1.02,1.29-1.76,1.49-.18.05-.47.08-1.74-.15-.42-.06-.92-.18-1.46-.36-.33-.11-.64-.23-.91-.36l.12,1.78h0c0,.51-.18,1.02-.52,1.56-.15.24-.26.41-.33.52.05.12.17.4.45.98l.59,1.18v.12c0,.15-.05.31-.31.8-.15.31-.23.65-.23,1v.23l-.17.24c-.23.2-.44.38-.61.53.18.15.36.3.53.43.18.18.32.36.43.56h.02c.17-.1.3-.2.39-.3.46-.46,1.26-.38,1.7.13.19.22.29.47.29.73,0,.04,0,.08,0,.12h.4c.84.01,1.04-.09,1.06-.1.14-.11.6-.52,2.02-1.87.2-.18.73-.68,1.61-1.52,1.28-1.21,1.49-1.27,1.73-1.27.67,0,.95.41,1,.8.02,0,.08.01.19.02.24.01.51,0,.8-.06.25-.03.45.03.6.17.19.17.28.42.28.77,0,.43-.19.78-.54.97-.32.16-.61.29-.87.4-.02.12-.03.23-.03.36s0,.26.02.41l-.03.42c-.01.17-.04.32-.09.46-.05.48-.25.86-.58,1.08-.05.03-.09.05-.12.08.08.14.27.39.69.79l.09.09.04.12c.1.31.18.59.23.83.11.4.23.48.23.48.09-.02.46-.1,1.41-.72,1.14-.73,1.5-.89,1.67-.94.11-.04.26-.1.31-.2,0-.36.01-.65.04-.86l.05-.45h.45c.19,0,.45.02.8.08-.05-.18-.07-.32-.07-.43,0-.75,1.06-.89,2.14-.97.12,0,.87-.03,2.29-.1.21-.02.51-.11.87-.29.7-.31.9-.37,1.01-.39.02,0,.23-.07.23-.71v-.93h.49c1.72-.06,1.97-.34,1.98-.36l.11-.35.78.03.12.08c.23.14.45.38.68.71.08.14.24.24.46.32.04.01.07.03.11.05Z"/>
</svg>