<?xml version="1.0" encoding="UTF-8"?>
<svg id="OBJECTS" xmlns="http://www.w3.org/2000/svg" viewBox="0 0 213.68 149.61">
  <defs>
    <style>
      .cls-1 {
        fill: #98c476;
      }
    </style>
  </defs>
  <path class="cls-1" d="M106.14,127.39c-.03-.09-.11-.31-.36-.77-.31-.56-.51-.92-.58-1.06-.09-.18-.15-.41-.2-.7-.04-.28-.06-.48-.07-.58-.02-.11-.06-.14-.13-.16-.38-.14-.58-.44-.58-.84,0-.82.36-1.49,1.07-1.99.16-.08.29-.15.39-.2-.23-.25-.34-.53-.38-.74v-.05s0-.05,0-.05c0-.24.01-.46.01-.64h-.26l-.86.18c-.45,0-.87-.26-1.25-.77-.11-.14-.21-.25-.32-.33-.21,0-.43-.01-.66-.03-1.47-.02-3.48-.1-5.97-.24l-.44-.02.21-1.7c.12-1.09.18-1.8.18-2.12,0,0-.04-.12-.24-.48-.25-.42-.37-.71-.37-.93,0-.11.02-.32.17-1,.14-.66.15-.84.15-.88,0-.19-.05-.64-.3-1.66-.29-1.19-.33-1.6-.33-1.8,0-.17.05-.39.7-1.33.35-.53.53-1.08.53-1.62v-.03h-.94l-.1-.26c-.04-.11-.07-.2-.1-.29l-.38-.03c-.21,0-.25.08-.27.21-.15.78-.68.86-.9.86-.62,0-.91-.3-1.05-.56-.15-.26-.23-.38-.27-.44-.06-.02-.17-.04-.3-.06-.28-.06-.5-.21-.62-.44-.06-.1-.1-.21-.13-.33l-.42.1c-.44,0-.68-.37-.7-1.11-.01-.24-.03-.42-.05-.55-.21-.04-.46-.13-.63-.33-.37-.29-.68-.55-.92-.77-.42-.42-.66-.86-.71-1.32h-.38c-2.61.18-3.16.18-3.34.17-.42-.04-.64-.05-.75-.05h0c-.07.06-.15.12-.24.18-.28.13-.46.28-.57.45l-.09.69c-.09.36-.35.57-.7.57l-.13-.02c-.11-.04-.23-.05-.36-.06,0,0,0,0,0,0,0,.02-.06.07-.14.19-.14.19-.21.4-.21.62,0,.03,0,.17.14.55l.02.13c0,.26-.04.56-.11.9l-.06.29-.82.09h-.07s.01.05.02.05c.08.1.14.27.14.45,0,.24-.12.46-.34.61-.18.14-.39.32-.61.52l-.08.07-.11.02c-.05.01-.11.01-.16.01-.05.01-.11.02-.16.02l-.13-.02c-.7-.23-.88-.15-.88-.14-.02.5-.36.79-.87.79l-.15-.03-.47-.19c-.38-.05-.63-.06-.71-.07-.08,0-.15,0-.2,0l.03.2v.02c0,.19-.06.41-.54,1.4-.1.23-.25.41-.45.5l-.68.52h-.14c-.27,0-.73-.12-.88-.94,0-.02,0-.04-.01-.06-.01.01-.02.02-.02.02-.04.04-.09.08-.21.15.02.02.03.05.05.08l.07.11v.13c0,.34-.3.54-.56.68l-.15.08-.16-.05c-.27-.08-.37-.07-.38-.07h-.06s-.78-.11-.78-.11c-.02.03-.06.09-.1.17-.11.19-.17.34-.2.47l-.04.19c.15.01.31.08.45.14.09.04.17.08.25.12,0,0,0-.01,0-.02.18-.4.5-.61.91-.61.35,0,.84.17,1.17.97.17.39.27.8.27,1.2-.04.86.07,1.25.16,1.43.23.4.34.67.34.87s-.11.35-.57.82c-.24.23-.35.44-.35.65,0,.27.13.61.38,1.01.33.54.48.94.48,1.27,0,.53-.26,1-.76,1.4,0,0-.07.08-.14.43-.03.16-.05.35-.07.56.05.29.11.55.18.77.08.27.28.73.59,1.37.03.07.12.21.39.49.53.53.57.59.6.64.18.23.33.5.43.76l.15.57s.06,0,.1,0c.49-.04.93.07,1.31.34.57.34,1.07.7,1.45,1.05.16.14.54.5,1.16,1.08.54.42,1.1.65,1.63.65-.02,0,.1-.04.48-.33.82-.7,1.81-.81,2.88.3.4.42.58.54.64.58.02-.01.09-.03.23-.08l.14-.02c.96,0,1.63.26,2.01.77.13.18.26.32.39.43.07.07.13.12.19.17l.1.11c.4.66.51.78.52.8.05.05.16.16.71.37.66.26,1.7.58,3.08.96.24.08.58.31,1.5,1.45.71.9,1.07.97,1.17.97,0,0,.07-.03.21-.17.24-.29.77-.44,1.71-.44.23,0,.55.07,1.02.23.38.12.82.19,1.34.19.09,0,.2,0,1.33.36.96.31,1.18.4,1.27.48.92-.46,1.21-.62,1.29-.67.08-.05.15-.12.15-.33v-.81c.05-.31.23-.49.55-.62,0,0,.01,0,.02,0l.09-.61c.05-.37.28-.76.73-1.18.21-.21.32-.33.38-.4l-.11-.59c0-.8.35-1.41,1.03-1.84.39-.25.54-.4.6-.46Z"/>
  <path class="cls-1" d="M131.02,36.24s-.03,0-.05.02c.02,0,.04,0,.06,0v-.02Z"/>
  <path class="cls-1" d="M128.71,108.05c3.32.29,15.87,1.1,37.28,2.39.19-.35.57-.97,1.15-1.86.3-.53.61-1.23.9-2.06.42-.82,1.17-1.59,2.29-2.42.5-.37.86-.8,1.07-1.28.15-.29.37-.78.68-1.47.05-.08.07-.14.09-.21.04-.32.18-.77.4-1.3.31-.73.36-1.05.36-1.18,0-.09-.06-.43-.79-1.24-1.02-.99-1.02-1.05-1.02-1.24h0c0-.49.34-.94,1.02-1.4.28-.19.62-.49.62-.81l-.13-1.11h0c0-.96.56-1.52,1.54-1.59.46-.03,1.12-.21,1.49-1.46.11-.46.49-.84,1.12-1.12.43-.19.5-.3.5-.31.03-.6.28-1.08.73-1.36.07-.04.28-.17.28-.72l-.1-1.25h0c0-.39.24-.74.76-1.15.18-.15.28-.25.34-.33-.07-.04-.19-.1-.35-.17-.36-.17-.7-.31-1.03-.4-.04-.01-.26-.05-1.38-.14-.3-.02-.54-.1-.72-.24l-.23-.18.09-.28c.19-.59.39-1.01.63-1.29l.19-.22h0c.61-.67,1.33-1.27,2.16-1.78.67-.41,1.43-.81,2.24-1.2.06-.06.22-.19.4-.35l.08-.06c.24-.13.55-.22.94-.26.02,0,.06-.05.09-.16.07-.33.13-.57.2-.72.13-.41.54-.97,1.24-1.67.76-.76.88-.96.9-1,.07-.28.18-.52.31-.72.06-.1.22-.35.47-.73.24-.49.25-.76.22-.88-.08-.36.08-.75.49-1.13.28-.28.65-.54,1.09-.77.21-.12.39-.32.53-.6.11-.2.22-.44.35-.76.24-.41.38-.9.44-1.48.11-1.24.13-1.35.14-1.4.03-.14.11-.31.42-.7.23-.31.39-.53.47-.67,0,0,0,0,0,0,0,0,.04-.11.04-.46,0-.51.22-.79.4-.93.38-.34.66-.72.81-1.1.1-.29.16-.7.16-1.21,0,0-.02-.06-.12-.19-.21-.23-.33-.51-.33-.81,0-.33.19-.67.57-1.05.26-.3.3-.42.3-.42,0-.36.17-.78.52-1.28.11-.16.2-.3.25-.44l-.02-.03s-.03-.04-.3-.12c-.3-.1-.47-.16-.51-.18.03.01-.09,0-.57,0-.22-.04-.38-.11-.61-.24-.02-.01-.06-.03-.16-.05l-.1-.03c-.39-.19-.69-.34-.91-.44-.44-.22-.9-.41-1.37-.56-.07-.02-.5-.12-1.28-.31-.37-.1-.65-.29-.87-.57-.21-.27-.34-.43-.38-.48-.03-.03-.05-.04-.07-.06-.02.03-.04.06-.06.1-.15.24-.38.55-.73.55l-.51-.08-.55.05c-.46,0-.77-.22-1.06-.65-.1-.16-.16-.25-.2-.3-.06.02-.15.06-.3.14-.33.16-.58.24-.81.24-.61,0-1.15-.12-1.61-.36-.82-.43-1.57-.76-2.23-1l-.27-.1v-1.03l.31-.03s0-.04,0-.07c0-.36-.07-.44-.07-.45-1.05.09-1.78.13-2.16.13-.13,0-.3-.03-.53-.09-.24-.05-.56-.14-.71-.39,0,.01-.07-.04-.29-.12-.45-.18-.59-.25-.67-.29-.67-.43-1.15-.76-1.47-.99-.27-.2-.51-.39-.72-.58-.05-.05-.11-.1-.17-.17l-.08-.14c-.07-.21-.18-.43-.33-.64-.18-.26-.32-.35-.4-.35-.06,0-.21.02-.47.18-.34.2-.58.29-.79.29-.32,0-.65-.17-1.02-.51-.38-.36-.58-.74-.58-1.14l.05-.67c-.03-.22-.06-.41-.08-.57-.25,0-.52.04-.81.09-.64.88-.73,1.09-.74,1.12-.31,1.16-.6,1.88-.91,2.25-.32.41-.89.69-1.72.87-.34.07-.99.36-2.21,1.38,0,.01,0,.03,0,.04-.02.52-.09.84-.23,1.03-.26.4-.75,1.02-1.44,1.81l-.83.94c.02.15.06.42.16.96v.04c0,.63-.18.96-.52,1.04l-.06.02h-.06c-.31-.02-.65-.03-1.02-.03-.25.01-.45.09-.59.23-.17.2-.44.47-.78.47-.31,0-.59-.13-.81-.37-.1-.13-.17-.26-.21-.39-.23,0-.44-.03-.65-.08-.8-.17-.92-.64-.92-.9,0-.02,0-.04,0-.06,0-.27-.08-.51-.24-.75-.35-.56-.41-.75-.41-.91v-.09c.06-.22.07-.36.08-.45-.16.08-.28.11-.4.11h-.33l-.36-1.58c-.2-.87-.64-1.48-1.35-1.88-.33-.19-.6-.55-.81-1.1-.14-.48-.23-.75-.26-.83-.14-.35-.35-.72-.61-1.09-.22-.28-.34-.66-.34-1.1,0-.21.09-.59.68-.79.07-.03.09-.06.09-.06-.01-.35-.25-.7-.73-1.04-.72-.5-1.09-1.04-1.09-1.62,0-.23.09-.51.28-.89.05-.1.09-.18.12-.24-.09-.06-.22-.16-.44-.29-.62-.4-.83-.59-.93-.7-.07-.02-.27-.06-.77-.07-.95-.03-1.24-.11-1.41-.25-2.79-1.58-3.43-1.71-3.56-1.71-.11,0-.3.03-.65.18-.66.29-1.24.34-1.53.04l-.12-.12v-.81l.09-.11c.06-.08.07-.2.07-.3,0-.03,0-.05,0-.07,0-.14-.03-.4-.08-.81,0-.05,0-.1,0-.15,0-.22.04-.45.13-.71.1-.32.11-.48.11-.55,0-.1-.04-.35-.28-.94-.07-.18-.15-.36-.23-.53-.03-.02-.07-.05-.1-.08.02.02-.1-.02-.49-.02s-1.01.13-1.84.38c-.21.1-.45.21-.67.3-.95.39-1.93.33-2.47,0-.16-.12-.28-.21-.37-.27-.1.14-.2.27-.3.39-.23.33-.3.47-.33.52h0s.09.13.39.35c.48.39.71.79.71,1.22s-.24.85-.74,1.28c-.52.43-1.08.65-1.69.65h-.09c-.2-.05-.39-.09-.56-.11l-.15-.05c-.24-.13-.75-.29-1.82-.29-.13,0-.4.03-.94.17-.79.17-.83.17-.89.17-.31,0-.68-.11-1.15-.33-.48-.24-.6-.27-.61-.28-.21,0-.42.06-.57.16,0,.06.01.14.04.26l.02.07v.07c-.02.12-.03.22-.03.31,0,.3-.25.51-.33.58l-.1.06c-1.11.49-1.33.53-1.48.53-.09,0-.19,0-1.32-.36-.04,0-.07.01-.08.03v.34c0,.37-.25.67-.73.9-.72.34-1.18.39-1.86-.42-.11-.15-.18-.27-.24-.34-.44.03-.53.14-.54.16,0,0-.03.09-.03.37l.03.61c0,.31-.22.53-.44.7l-.12.08-.44.21c-.28.12-.53.17-.78.17-.15,0-.43-.04-1.28-.31-.14-.05-.25-.09-.36-.12.05.54.12,1.08.21,1.62.18,1.03.27,1.86.27,2.45v.1c-.02.27-.08.64-.2,1.12-.07.26-.12.47-.15.63h0s-.01.07-.02.1c-.02.08-.03.15-.03.2,0,0,0,.01,0,.02,0,.06.03.18.07.35.02.05.06.16.1.29.12.35.18.66.18.92,0,.04,0,.08,0,.12-.01.08-.02.15-.02.21,0,.15.03.25.08.31.38.32.46.66.46.89l-.11.7v.03c.43.18.75.6.95,1.24.29.87.45,1.02.46,1.04.65.38,1.12.9,1.38,1.52.04.1.13.27.42.58.14.14.26.28.36.42l.41.25s.06-.06.1-.12c.18-.26.4-.52.71-.52.28,0,.47.21.59.38.14.19.21.33.21.48,0,.12-.04.24-.18.49-.07.11-.1.19-.1.24,0,0,.01.27.95.82.08.06.41.24,2,1.09.23.13.46.28.7.44.03.02.16.07.45.03.12-.02.33-.06.61-.12h.09c.34-.01.73.21.73.82,0,.17-.03.31-.08.41.29.14.56.34.79.6.18.21.36.33.53.37.56.1.89.44.89.93,0,.03,0,.06,0,.09.03,0,.1.01.24.01h.08s.02,0,.03-.02c.31-.13.53-.22.7-.26.19-.05.38-.06.59-.04l.28.02s.14-.09.31-.25c.33-.33.7-.5,1.09-.5.27,0,.43.03.56.1.15.07.35.25.35.68,0,.5-.6.77-1.56,1.03-.68.18-.98.58-.98,1.3h0c0,.23,0,.39.02.45v.04s.6.07.6.07l-.4.56c-.28.4-.72,1.21-1.3,2.4-.58,1.23-4.22,9.08-10.82,23.33l.05.68h0c0,.14-.02.26-.26.75.05.07.17.24.47.53.2.18.45.41.75.67.19.22.27.46.27.76v.52c0,.06,0,.12.01.17.26.1.48.18.68.25l.09.05c.17.12.33.34.53,1.07.09.27.21.75.37,1.4.19.66.3.86.34.92.29.43.56.9.81,1.41.43.87.49,1.2.49,1.39,0,.15-.02.49-.21,1.6.15.15.61.51,1.94,1.4,1.93,1.3,2.33,1.85,2.33,2.28,0,.09-.02.18-.06.29.43,0,.74.05.96.14.34.15.58.46.71.94.14.12.27.26.39.42.02,0,.06,0,.1,0,.25-.01.49-.02.73-.02.47,0,.92.02,1.34.07ZM128.9,37.43l1.39-.91c.19-.13.39-.24.59-.26l.68-.51v.74l.32.15-.55.36c-.05.03-.1.04-.16.06-.15.09-.29.15-.41.18-.05.02-.12.03-.21.04l-1.66.15Z"/>
  <path class="cls-1" d="M193.75,113.88s.05-.02.08-.03c-.23-.06-.44-.08-.65-.08h-.31c-.83,0-1.43-.06-1.84-.14-1.29-.3-1.56-1-1.56-1.53l.11-.89c0-.07-.03-.25-.3-.47-.42-.35-.62-.66-.62-.97,0-.24.17-.44.33-.61.02-.02.06-.09.06-.23,0,0-.04-.15-.55-.35-.72-.3-1.12-.6-1.28-.96l-.03-.1c-.07-.43-.13-.77-.2-1-.06-.22-.27-.49-.59-.77l-.15-.13v-.2c.04-.54.15-1.04.33-1.48.21-.59.29-.76.34-.84.15-.22.4-.48.78-.8.1-.13.32-.38.95-.95,0,0,.02-.09.02-.19-.03-.26.08-.53.32-.69.2-.13.5-.31.9-.56.25-.17.25-.32.25-.38,0-.37-.08-.46-.08-.46-.08.01-.4.06-1.28.45-.85.38-1.59.63-2.22.74l-.49.09v-.49c-.07-.29-.25-.57-.53-.81-.63-.57-1.03-.97-1.24-1.24-.22-.29-.52-.73-.91-1.34l-.59-.91v-.12c0-.24.09-.45.25-.61l-.96.08h-.05c-.1-.04-.42-.16-.42-.65,0-.4.26-.76.8-1.09.18-.1.39-.29.38-.86-.02-.6.18-1.31.62-2.16.54-1.04.58-1.36.58-1.43,0-.26-.11-1.3-.62-4.76-.08-.46-.39-.8-.93-1.04-.98-.42-1.22-.61-1.22-.93l.03-.48c-.1.02-.23.05-.38.1-.59.23-.61.23-.7.23l-1.98.05h0c-.46,0-.61-.02-.69-.03-.17-.03-.41-.09-.72-.2-.06.1-.12.23-.19.4h0c1.36.11,1.49.15,1.56.18.36.11.74.25,1.12.44.54.23.92.46.92.84,0,.32-.22.64-.73,1.05-.42.33-.45.47-.45.48l.1,1.24h0c0,.71-.22,1.19-.67,1.46-.07.05-.31.2-.35.77-.04.48-.55.76-.98.95-.38.17-.6.37-.66.59-.48,1.63-1.48,2.02-2.24,2.07-.63.04-.76.32-.76.71l.13,1.11h0c0,.6-.33,1.1-.99,1.54-.43.28-.58.49-.63.6.1.11.31.33.77.77.7.78,1.02,1.35,1.02,1.82,0,.34-.14.82-.43,1.5-.19.46-.31.86-.36,1.18-.06.18-.1.28-.15.37-.3.67-.53,1.17-.67,1.45-.27.59-.71,1.13-1.33,1.59-1.01.75-1.69,1.45-2.03,2.09-.28.82-.61,1.57-.95,2.16-.65,1-1.04,1.64-1.19,1.94l-.05.1c-.17.37-.23.87-.17,1.49.02.18-.02.44-.78,1.83-.64,1.24-1.01,1.97-1.11,2.2-.18.37-.38.93-.58,1.66-.27.95-.3,1.23-.3,1.3l.31,1.65c.18.91.32,1.55.41,1.94.02.04.04.1.06.15l.08.11-.02.12c.15,1.14.24,2.11.24,2.88,0,1.07-.06,1.91-.19,2.5-.09.33-.14.58-.17.75.02-.03.05-.05.07-.08.29-.36.59-.76.9-1.2.39-.56.83-.87,1.32-.91l.45-.04-.04.91c-.51,1.16-.68,1.6-.73,1.77.11.05.26.11.43.2.5.25.64.27.65.27.16.01.38,0,.63-.03.37-.03.68.11.89.41.27.4.73.76,1.36,1.07.24.12.53.25.88.41.04-.24.18-.63.62-1.35.57-.96.65-1.09.93-1.09.22,0,.47.14.88.5.31.26.43.29.43.29.03,0,.12-.06.2-.17.13-.17.11-.26.1-.29l-.19-.77.74.29c1.23.48,2.07,1.17,2.48,2.07.2.44.37.78.51,1.01h.07c.08-.11.19-.23.33-.36.31-.28.44-.37.62-.37.17,0,.32.08.6.3.15.11.23.17.28.2h.92c.32,0,.7.24,1.26.8.04.04.08.08.12.13,0-.7.03-1.26.12-1.68v-.73l.64.38c.08.06.29.22,1.17,1,.6.56.83.58.85.58,0,0,.25,0,.88-.68.76-.82,1.11-.95,1.34-.97.8-.03,1.51-.15,2.14-.35.32-.1.84-.17,1.58-.21,0-.1.01-.21.01-.32.02-.29.03-.51.03-.7,0-.32.06-.66.18-1,.13-.34.13-.44.13-.44-.01-.02-.17-.4-1.32-2.18l-.07-.1v-.12c0-.25.12-.5.36-.74.06-.06.09-.13.09-.23,0,0,0,0,0,0-.19-.16-.29-.38-.29-.65,0-.45.22-.93.66-1.4.13-.16.23-.28.31-.38-.12-.12-.35-.31-.78-.63-1.11-.86-1.21-1.03-1.21-1.27,0-.63.23-1.34.69-2.12.13-.22.47-.72,1.04-1.52.07-.11.25-.33.88-.97.35-.35.63-.74.84-1.17.22-.5.68-.87,1.37-1.1Z"/>
  <path class="cls-1" d="M138.06,36.3c.13-.02.29-.07.49-.16.39-.17.71-.25.98-.25.36,0,1.13.21,4.03,1.86.03.02.2.08.96.1.86.02,1.21.12,1.38.37,0,.01.13.13.75.54.72.45.89.63.89.9,0,.11-.02.2-.28.71-.18.37-.19.5-.19.52,0,.36.4.71.74.94.71.5,1.07,1.09,1.07,1.76,0,.2-.08.57-.62.8-.14.05-.16.08-.17.08.02.19.08.39.2.55.31.44.54.86.71,1.27.04.09.13.39.28.88.17.44.35.6.44.65.9.51,1.49,1.32,1.74,2.41l.18.78c.33-.1.62.06.73.18.13.14.2.34.2.59,0,.03,0,.06,0,.08h0c0,.14-.02.32-.07.55.02.03.09.17.27.46.25.36.38.77.38,1.19,0,.03,0,.06,0,.09,0-.01.08.04.28.08.26.06.53.08.84.04l.66-.07-.22.62s0,.03,0,.05c0,.03.01.06.05.1.05.06.11.08.15.08h0s.06-.06.17-.19c.3-.32.69-.49,1.19-.51.3,0,.59,0,.85.01,0-.04,0-.1,0-.18-.16-.81-.18-1.06-.18-1.18v-.16l1.05-1.19c.66-.76,1.13-1.35,1.38-1.73,0-.01.07-.13.09-.6,0-.1.02-.2.03-.29l.03-.15.11-.1c1.17-.99,2.05-1.53,2.7-1.66.62-.13,1.05-.33,1.25-.58.13-.16.4-.61.76-1.97.06-.18.22-.48.96-1.5l.09-.13.16-.03c.4-.08.77-.13,1.1-.14.06-.16.2-.37.5-.72.24-.28.36-.63.37-1.08.02-.48.22-1.12.62-1.95.42-.88.51-1.33.51-1.55,0,0,0-.25-.73-.8-.07-.05-.31-.19-1.07-.31-.93-.17-1.08-.27-1.19-.38-.15-.19-.28-.4-.43-.66l-.08-.15c-.17-.3-.25-.47-.27-.5-.13-.32-.22-.52-.27-.64-.02-.03-.04-.05-.1-.06-.88.23-.89.23-.96.23-.23,0-.45-.14-.73-.46l-.06-.1c-.02-.05-.06-.12-.09-.19-.09-.22-.19-.44-.32-.69-.3-.64-.48-1.12-.53-1.48-.11-.55-.24-.97-.38-1.23-.81-1.5-.81-1.68-.81-1.82,0-.05,0-.09.19-1.07.12-.6.18-1.16.18-1.65,0-1.03-.03-1.23-.04-1.26-.16-.38-.39-.98-.69-1.73-.2-.62-.39-1.14-.57-1.56-.35-.82-.57-.96-.6-.98-.14,0-.22.01-.28.02,0,.03,0,.07.02.12l.08.82c0,.38-.08.69-.25.94-.18.23-.31.39-.41.52-.13.18-.38.35-.81.55-.34.14-.62.32-.85.54-.44.42-.85.91-1.24,1.44-.14.19-.39.65-.78,1.83-.27.9-.52,1.49-.73,1.81,0,.01-.05.13-.11.29-.08.2-.2.37-.35.5,0,.35-.05.57-.13.73-.09.17-.21.44-.38.84-.22.57-.36.92-.41,1.06-.09.21-.3.5-1.2,1.25-.45.38-.79.62-1.04.75l-.09.04-.2.05-.42.06c-.31.04-.61.07-.82,0-.74-.01-1.19-.13-1.45-.37-.11-.1-.27-.15-.48-.15-.56.12-.78.13-.89.13-.35,0-.73-.11-1.18-.33-.23-.12-.39-.2-.48-.24-.2.03-.46.21-.73.49-.51.51-.98.76-1.45.76-1.74-.23-1.8-.29-1.92-.41-.03-.03-.08-.08-.3-.18-.4-.18-.53-.25-.6-.31-.08-.05-.18-.17-.45-.62-.03-.05-.06-.1-.09-.14l-.14-.04c-.06-.02-.13-.04-.21-.07.08.25.11.45.11.62,0,.2-.05.46-.15.8-.06.19-.09.34-.09.46,0,.02,0,.04,0,.06.05.45.08.75.08.88,0,.04,0,.08,0,.12,0,.25-.05.47-.16.66v.02Z"/>
  <path class="cls-1" d="M66.39,110.12c.33-.3.67-.45,1.04-.45.11,0,.19.02.73.28.37.17.48.19.49.2,0,0,.09-.01.48-.12.07-.02.13-.04.19-.05h-.07l-.12-.1c-.57-.47-.93-.81-1.1-1.02-.07-.09-.15-.18-.23-.2-.15-.05-.28-.08-.39-.09h0s-.41.02-.41.02c-.5,0-.76.1-.89.18h0s-.16.14-.93.84c-.14.13-.39.34-.74.66l-.09.06c-.16.08-.3.15-.43.22.07-.02.32-.05,1.97-.16.19-.01.36-.1.51-.26Z"/>
  <path class="cls-1" d="M79.79,22.08c-.21-.54-.47-.54-.58-.54-.13,0-.42.03-1.05.2-.54.14-.76.19-.86.21.47.4,1.02.81,1.64,1.21,1.64,1.06,1.76,1.32,1.76,1.6,0,.32-.24.66-.82,1.17-.35.31-.47.5-.52.59.09.14.3.46.82,1.19.36.54.44.74.48.86.02.09.04.21.04.77,0,.21-.01.41-.04.6l.2.69c0,.2-.03.37-.08.5h.04c.15,0,.45,0,.91.03.07,0,.13,0,.19,0,.22,0,.5-.03.87-.08.77-.12,1.03-.13,1.15-.13.41,0,.67.06.83.19.13.07.34.29.34.77,0,.37-.1.77-.31,1.2.17.02.31.03.42.03.14,0,.32,0,.52-.03l.45-.04v.45c0,.12.03.33.15.68.92-.39,1.51-.43,2.25.22.41.37.61.73.61,1.1l-.03.16-.68,1.64c.09.11.3.33.74.75l.07.08c.1.15.14.34.14.57,0,.11-.01.24-.04.37-.05.27-.06.41-.06.49,0,.05,0,.07,0,.07.04.18.12.33.26.46.26.24.44.46.53.67.14.35.22.64.24.89v.04c0,.17,0,.4-.03.7l-.13,1.48c0,.1.03.36.19.83.16.47.23.8.23,1.02,0,.24-.05.48-.13.7-.04.08-.06.15-.08.2.08.14.28.51.81,1.4.84,1.39.95,1.86.95,2.12,0,.84-.42,1.48-1.21,1.84-.37.16-.58.26-.69.33.03.01.08.03.15.04.6.07,1.09.38,1.4.91.05.09.21.38.46.89.19.37.38.67.56.9.15.18.4.38.73.58.43.28.69.35.83.36h0c.15,0,.31.08.53.27,0-.12.06-.27.29-.66.18-.31.18-.42.18-.43,0-.08-.07-.18-.13-.25-.23-.28-.34-.61-.34-.98,0-.27.13-.54.41-.82.09-.11.16-.27.17-.44v-.5c.03-.3.13-.57.31-.82.05-.11.23-.29.86-.6.56-.27.71-.32.81-.33.35-.07.76-.11,1.23-.11.8,0,1.06.1,1.21.19.33.19.52.63.61,1.37,0,0,.04.08.39.45.24.25.41.46.51.63h.08c.14-.06.45-.2,1.25-.52.08-.04.11-.1.11-.19,0,0-.03-.05-.12-.14-.21-.19-.4-.39-.4-.65,0-.16.06-.45.48-.64,0-.02,0-.05,0-.07,0-.18.03-.41.1-.7.01-.37.16-.88.45-1.56.06-.29.22-.7.45-1.19l.08-.16c.18-.36.35-.64.52-.86,0-.01.02-.02.02-.03.31-.36.62-.55.95-.55l2.01.11c1.1,0,2.45-.15,3.99-.44.09-.01.17-.03.25-.05.02-.08.04-.18.07-.27,0,0,0-.01,0-.02h0s0,0,0-.01c0-.04.02-.07.03-.11.1-.42.16-.74.17-.96,0-.61-.09-1.38-.26-2.37-.11-.62-.19-1.25-.24-1.87-.16.03-.22.04-.27.04-.62,0-1.25-.11-1.87-.34-.16-.06-.32-.19-.64-.65-.33-.45-.41-.67-.42-.84,0,.03-.04-.02-.16-.1-.1-.07-.16-.1-.2-.11h-.13l-.12-.14c-.29-.33-.42-.45-.48-.5-.21-.19-.5-.42-.87-.69-.22-.11-.22-.44-.22-.75,0-.4.11-.76.34-1.08.1-.16.16-.35.16-.55,0-.07,0-.19-.28-.29-.38-.14-.84-.54-.82-1.65,0-.11-.04-.45-.3-1.48-.33-1.23-.33-1.26-.33-1.33,0-.41.2-.95.63-1.7.47-.85.49-1.11.49-1.15,0-.27-.04-.35-.04-.35-.06-.08-.13-.19-.21-.31-.03-.03-.08-.1-.13-.18l-.06-.08v-.1c-.03-.16-.04-.39-.04-.7,0-.4.24-.9.77-1.57.53-.67.56-.88.57-.9,0-.39-.12-.7-.38-.96-.45-.47-.62-.75-.62-1,0-.16.05-.37.16-.65.09-.24.1-.31.1-.32-.09-.01-.16-.04-.24-.04-.21.05-.54.08-.92.08-1.16,0-1.33-.57-1.33-.91,0-.16.05-.41.63-1.39.32-.57.49-1.07.49-1.46,0-.46-.2-.75-.63-.93,0,0-.17-.03-.84,0-.34.02-.53.05-.64.07.03.17.09.37.19.6l.03.16c0,.39-.21.76-.63,1.09-.65.49-1.08.85-1.3,1.07-.19.17-.33.35-.43.53-.24.45-.26.47-.31.52-.12.12-.34.26-1.11.49-.7.19-1,.32-1.13.4-.88.6-1.45,1-1.72,1.17-.46.27-1.12.44-2.03.51-.46.03-.84.18-1.15.45-.26.23-.56.38-.88.46-.14.05-.33.08-.53.09h-.1s-.29-.12-.29-.12c-.36-.18-.58-.28-.7-.33,0,.03,0,.06,0,.09-.13.53-.48.78-.96.78-.28,0-.49-.15-.57-.39-.03,0-.08,0-.12,0,0,.1.04.19.1.29.13.27.19.47.19.66,0,.13-.03.32-.1.6,0,.23-.11.53-.61.79-.14.11-.39.21-.97.32-.54.12-.71.14-.81.14-.2,0-.32-.02-.42-.07-.15-.09-.24-.21-.34-.39-.34-.37-.43-.54-.47-.66-.05-.34-.09-.55-.13-.69-.07-.26-.15-.26-.21-.26-.02,0-.06,0-.1.15-.06.26-.31.74-1.21.74-.19,0-.41-.09-1.01-.53-.33-.24-.64-.36-.93-.36l-.72.08c-.45,0-1.05-.18-1.38-1.06Z"/>
  <path class="cls-1" d="M116.61,95.22s-.07-.09-.1-.14l-.06-.02-.05-.22c-.03-.13-.05-.31-.06-.53h0s0-.55,0-.55c0-.1-.02-.16-.03-.18-.25-.22-.51-.45-.72-.64-.54-.52-.76-.86-.76-1.17v-.1l.04-.09c.17-.33.22-.47.24-.53l-.06-.83.04-.1c6.63-14.31,10.28-22.2,10.87-23.43.49-1,.87-1.73,1.16-2.2-.05-.09-.1-.21-.12-.35-.01-.05-.03-.18-.03-.62,0-.66.2-1.18.58-1.56-.04,0-.13,0-.19.02-.08.02-.24.07-.56.21-.14.06-.38.17-.59.08-.33-.02-.56-.12-.73-.29-.09-.1-.2-.27-.2-.53,0-.02,0-.04,0-.06,0-.02,0-.03,0-.04,0-.06-.03-.09-.21-.13-.36-.07-.7-.28-1-.63-.21-.24-.45-.39-.72-.48l-.3-.09v-.94c-.17.04-.3.06-.4.07-.41.05-.75,0-1-.16-.24-.17-.45-.3-.65-.42-1.93-1.03-2-1.09-2.05-1.13-.89-.52-1.32-1.01-1.32-1.51,0-.11.02-.22.06-.34-.18.17-.39.25-.61.25h-.11l-.84-.5-.05-.08c-.07-.11-.17-.24-.31-.37-.31-.33-.5-.61-.59-.86-.19-.44-.53-.81-1.05-1.12-.21-.12-.45-.39-.81-1.48-.15-.48-.36-.74-.62-.77l-.37-.04v-.79l.11-.69s0-.05-.17-.19l-.06-.06c-.21-.21-.31-.51-.31-.88,0-.09,0-.19.02-.3,0-.01,0-.02,0-.04,0-.11-.03-.32-.14-.67-.04-.12-.07-.21-.1-.3-.05-.22-.08-.37-.1-.47-1.58.3-2.98.45-4.15.45l-2.01-.11s-.1.02-.29.25c-.14.17-.29.42-.44.73l-.08.16c-.2.42-.34.79-.41,1.08-.34.81-.41,1.17-.41,1.34v.09c-.09.35-.1.55-.1.64,0,.02,0,.05,0,.07,0,.22-.12.44-.35.59.26.24.39.49.39.75,0,.42-.21.75-.6.95-1.07.43-1.25.52-1.28.54l-.09.05h-.89s-.07-.32-.07-.32c0-.01-.06-.15-.45-.56-.51-.54-.61-.76-.61-.97-.07-.6-.21-.72-.22-.72-.02,0-.17-.07-.78-.07-.42,0-.79.03-1.09.1h-.07s0,0,0,.01c0,.01-.14.06-.52.25-.44.22-.53.31-.54.32-.1.15-.16.27-.17.39v.49c-.02.38-.15.69-.38.97-.18.18-.19.26-.19.26,0,.18.05.33.14.44.21.24.33.51.33.79,0,.22-.09.48-.29.83-.08.14-.14.25-.17.32.02.03.05.07.12.13.27.22.44.38.44.61,0,.14-.04.32-.13.55l-.12.3-.32-.05c-.34-.05-.7-.27-1.08-.68-.23-.26-.34-.35-.38-.37-.36-.04-.73-.2-1.17-.48-.4-.25-.7-.5-.93-.76-.22-.28-.43-.62-.65-1.04-.24-.48-.38-.76-.43-.84-.18-.31-.43-.47-.79-.51-.6-.08-.95-.44-.95-.96,0-.35.29-.58,1.25-.98.48-.22.72-.57.72-1.08,0-.05-.04-.39-.83-1.7-.94-1.58-.95-1.64-.95-1.78h0c0-.08.01-.16.05-.26.02-.08.06-.18.12-.31.04-.11.07-.24.07-.38,0-.06-.02-.25-.19-.76-.16-.46-.23-.83-.23-1.13l.13-1.5c.02-.29.02-.51.02-.64-.01-.13-.07-.35-.18-.6-.02-.05-.1-.18-.34-.4-.26-.26-.42-.55-.49-.87-.02-.07-.03-.16-.03-.26,0-.17.03-.38.08-.64.02-.09.02-.16.02-.22s0-.09-.01-.11c-.89-.84-.99-1.04-.99-1.27l.03-.16.72-1.73c-.02-.08-.1-.22-.32-.42-.21-.18-.4-.29-.54-.29-.24,0-.55.08-.93.25l-.17.04h-.62l-.11-.25c-.13-.31-.22-.58-.27-.82-.07,0-.14,0-.21,0-.22-.01-.5-.04-.86-.08-.08.12-.16.24-.25.36-.78,1.01-1.6,1.52-2.45,1.52-.77-.15-.94-.16-.97-.16-.15,0-.44,0-.48.78-.02.41-.03.94-.03,1.58l-.03.15c-.14.38-.49.88-1.31,1.07-.75.18-1.42.46-1.99.83-.48.34-1.08.67-1.78,1-.8.39-1.34.67-1.62.82-.42.22-.8.68-1.14,1.35-.39.7-1.01,1.06-1.78,1.06-.43,0-.89-.27-.89-1.04,0-.34.17-.69.51-1.03.18-.19.27-.38.27-.54,0,0,0,0,0-.01-.6.14-1.22.51-1.83,1.1-.77.75-1.57,1.11-2.36,1.14-.86,0-1.65-.36-2.34-1.07-.31-.32-.83-1.03-1.59-2.15-.38.3-.47.34-.55.37l-.13.02h-1.15l-.02-.39c-.09-1.75-.11-2.06-.11-2.14,0-.18.05-.42.15-.75.1-.31.11-.47.11-.53,0-.28-.33-.53-.6-.69l-1.17-.71.02-.25c.03-.41.05-.79.05-1.14,0-.12,0-.22-.01-.31-.02.03-.03.06-.05.08-.32.6-1.05.91-2.24.95-.21.01-.23.08-.25.14-.05.15-.13.41-.23.77l-.03.08c-.21.4-.54.66-.95.76-.13.03-.4.06-1.27.06-1.68.05-4.48.08-8.3.08-.4-.02-.76-.04-1.08-.06l-.03.24c-.13.83-.15,1.17-.15,1.31v1.03c.48.03,1.18.05,1.97.04.68,0,1.26.18,1.72.53l.16.12v.2c0,.73.16,1.34.48,1.81.42.6.62,1.05.62,1.41l-.02.13c-.27.82-.76.99-1.13.99-.45,0-.83-.25-1.05-.7-.07-.16-.16-.24-.39-.24-.69,0-1.41.17-2.16.51-.45.2-.85.44-1.2.71-.06.41-.19,1-.38,1.79-.19.76-.26,1.13-.29,1.31.14.11.52.37,1.48.93,1.26.73,1.87,1.55,1.8,2.46-.01.28.08.55.3.8.38.5.61.9.71,1.25.12.45.22,1.09.3,1.91,0,.17-.01.28-.03.37-2.64,18.83-3.09,19.37-3.31,19.63-.25.34-.57.56-.91.63h-.09s-.81,0-.81,0c-.71,0-1.3-.2-1.74-.6-.38-.37-.51-.42-.52-.43-.86,0-1.59.32-2.16.97-.79.89-1.69,1.43-2.67,1.6-.35.06-.97.07-1.89.03-.88-.04-1.28.03-1.46.1-.4.18-.91.44-1.49.76-.52.29-.89.51-1.1.67-.46.31-1.22.8-2.31,1.49-.83.62-1.45,1.3-1.82,1.99-.06.13-.16.42-.21,1.02-.04.29-.07.65-.1,1.12-.09.68-.39,1.16-.9,1.48-.34.2-.38.4-.38.56,0,.28.1.5.31.68.37.35.56.76.56,1.23,0,.53-.23,1.24-1.32,1.64-1.08.4-1.97.93-2.66,1.59-.03.03-.23.29-.29,1.47,3.27,1.28,6.21,2.34,8.76,3.15,2.17.69,3.52,1.11,4.04,1.25,1.53.41,3.1.73,4.66.93,1.53.2,2.6.48,3.27.86.43.27,1.35.87,2.75,1.79.65.37,2.22.97,4.66,1.76.05.02.1.03,13.84,6.81l.27.07c.17.05.34.11.51.17.28-.21.71-.45,1.28-.74.33-.3.56-.5.69-.62.9-.82.98-.88,1.02-.91.33-.2.72-.3,1.22-.32.13-.05.28-.04.43-.03.21-.02.47.04.72.12.23.04.47.21.67.49.07.08.26.28.7.66.04-.08.08-.15.12-.23.08-.15.31-.62.75-.62l.87.13c.09,0,.18,0,.29.01-.04-.09-.06-.15-.06-.23,0-.4.28-.52.36-.55.09-.05.19-.1.23-.13,0,0,.05-.07.14-.16.14-.18.31-.28.5-.28.57,0,.72.7.77.93.02.08.03.14.05.19l.4-.3c.07-.04.1-.07.13-.15.34-.69.43-.94.46-1.02l-.04-.3h0c0-.41.2-.67.52-.75.05-.02.16-.04.46-.04h.05c.07,0,.39.02.85.08,0,0,.01,0,.02,0l.1.03.44.18s.02,0,.02,0h0c0-.39.26-.8.91-.8.25,0,.55.06.92.17l.08-.04c.17-.15.34-.29.5-.41-.09-.16-.13-.34-.13-.53v-.41l.34-.43.58.08h.12c.02-.15.03-.27.04-.38-.11-.33-.16-.57-.16-.74,0-.4.12-.78.37-1.11.16-.23.42-.54.78-.54.15,0,.29.01.43.04l.12-.7c.18-.36.5-.66.95-.87.04-.02.06-.04.06-.05l.07-.14.13-.03c.12-.05.3-.08,1.19,0,.12,0,.73,0,3.26-.18l1.29.04-.06.46s0,.09,0,.13c0,.31.15.62.47.93.22.21.53.46.9.75l.1.11s.09.03.34.04h.31s.08.31.08.31c.05.2.09.52.12.99,0,.12.01.2.02.26l.45-.1c.31,0,.54.2.59.51.02.14.04.23.08.31.42.1.56.13.66.2.13.08.26.25.54.74.03.05.07.13.32.13.02,0,.06-.04.09-.19.11-.56.51-.88,1.11-.88l1.27.09-.14.49s0,0,0,0c0,0,0,0,0,0h18.93c0-.06,0-.13,0-.19v-.08c.64-3.01.71-3.58.71-3.68,0-.29-.08-.63-.23-.99-.26-.62-.29-.85-.29-1,0-.18.06-.4.88-1.6.65-.94.73-1.17.74-1.21,0-.02-.02-.05-.02-.05Z"/>
</svg>