<?xml version="1.0" encoding="UTF-8"?>
<svg id="OBJECTS" xmlns="http://www.w3.org/2000/svg" viewBox="0 0 213.68 149.61">
  <defs>
    <style>
      .cls-1 {
        fill: #7fc5dd;
      }
    </style>
  </defs>
  <path class="cls-1" d="M108.79,108.29c.26-.24.32-.38.34-.42l.37-1.54c.2-.85.74-1.53,1.6-2.02.75-.42,1.64-.63,2.65-.63.21,0,.41.05.58.14.17-.14.31-.25.42-.36.14-.12.26-.23.37-.33-.15-.03-.31-.06-.5-.1-.51-.12-.9-.18-1.16-.18-.66,0-1.24-.05-1.73-.13l-.22-.04-.12-.2c-.19-.32-.36-.65-.5-1-.62.09-.94.19-1.11.26h0s0,0-.01,0l-3.58,1.56c-.13,0-.26-.02-.91-.33-.42-.21-.53-.24-.54-.24h-.02s.06.08.09.12c.1.16.11.36.11.65v.82h-.5s0,0,0,0c0,0-.23.07-1.16.41-.86.29-1.6.44-2.23.44-.71,0-1.1-.08-1.33-.27-.11-.09-.42-.27-1.28-.47l-.41-.09.09-1.62c0-.06-.02-.08-.07-.11-.38-.27-.56-.55-.56-.87-.05-.3-.14-.44-.17-.46-.34-.19-.71-.47-1.09-.82l-.19-.17.03-.25c.04-.38.13-.88.26-1.47.19-.87.31-1.41.35-1.63-.33-1.09-.33-1.13-.33-1.23h0c0-.33.23-.61.84-1.04.37-.26.42-.39.42-.39,0-.34-.08-.44-.08-.44h0s-.19-.06-.81-.06l-1.95.28c-.48-.01-.96-.15-1.31-.88-.18-.38-.27-.85-.27-1.38-.02-.57-.21-1.15-.56-1.73-.59-.94-.67-1.3-.67-1.52,0-.31.18-.64.56-1.02.15-.16.23-.48.23-.91,0-.15-.03-.27-.07-.3h-.02c-.06-.04-.28-.12-1.04-.36l-.35-.11v-.65l.09-.13c.1-.14.18-.25.22-.32v-.03l.07-.12s.02-.04.02-.15c0-.25-.07-.54-.21-.88-.19-.44-.35-.54-.39-.55h0s-.13-.02-.5-.02c-.42.02-.73,0-.96-.1-.16-.08-.39-.21-.71-.42-.14-.1-.22-.11-.27-.11-.22,0-.49.03-.53.18-.12.39-.46.86-1.41.89-.15.07-.47.24-.98.51-.79.42-1.61.63-2.45.63-.36,0-.89-.13-1.66-.41l-.78-.34c.17.33.25.63.25.94,0,.27-.02.42-.08.54-.11.23-.32.41-.63.57l-.11.05h-1.31v-1.64c-.02-.2-.07-.36-.16-.45h-.08c-.36.77-.89.95-1.29.95-.73,0-1.19-.43-1.23-1.14.01-.2.02-.36.02-.48,0-.32-.04-.45-.05-.51-.06-.16-.35-.18-.59-.18-1.21.07-1.34.02-1.5-.08,0,0,0,0,0,0,0,.02-.3-.06-1.45-.11-1.1-.02-1.86-.1-2.31-.24-.97-.23-1.3-.39-1.46-.49-.22-.12-.45-.31-.67-.56,0,0-.06,0-.15,0-.67,0-1.2.22-1.63.67-.54.56-1.24.97-2.1,1.24l.19.8-.27.19c-.17.12-.33.27-.5.44l-.84.93c-.09.06-.22.12-.85.29-.49.12-.6.19-.61.2-.08.05-.13.11-.16.25-.02.39-.11.67-.26.86-.12.15-.29.46-.4,1.16-.13.71-.35,1.18-.68,1.45-.41.29-.63.45-.68.5-.25.21-.27.37-.27.42-.02.18-.07.55-.37,1.62.01.06.04.19.12.43l.03.16c0,.28-.11.42-1.14,1.22-.64.49-1.07,1.1-1.31,1.87-.42,1.27-1.65,2.72-3.76,4.44-.4.31-1.19.8-2.4,1.5.69.12,1.84.35,3.82.81.45,0,.76-.12.95-.35.8-.91,1.88-1.03,2.57.05.18.27.35.31.5.31.28,0,.92.02,1.92.06,1.65.07,1.77.09,1.85.1l3.39.99c.42.12.77.41,1.02.87.07.11.15.19.35.19.01,0,.12,0,.51-.13.35-.14.66-.21.92-.21,1.17,0,1.99.03,2.53.1,1.08.15,1.75.48,2.07.99.15.25.55.69,1.62,1.43.95.64,1.39,1.21,1.39,1.8l-.02.14-.7,2.34c.04.14.23.59,1.33,1.53.65.55,1.09,1.07,1.35,1.57.2.34.31.7.31,1.05,0,.06,0,.13-.02.19.07.32.11.64.11.95,0,.28-.08.79-.77,1.98.02.02.05.04.08.07.18.15.26.18.26.18,0,0,.27-.03,1.55-.43l.17-.05.17.07c.09.04.17.06.25.06.05,0,.23-.01.75-.12.62-.15.83-.17.95-.17h.73c.32.05.85.24.85,1.1,0,.39-.18.94-.57,1.73v.09c.21-.01.47-.02.8-.04.92.05,1.59.31,2.06.78.09.09.17.2.23.31.59-.58,1.37-1.24,2.37-2.03,1.41-1.06,2.38-1.79,2.9-2.21,1.09-.88,2.11-1.57,3.02-2.04.83-.43,1.42-.78,1.75-1.05l1.02-.96c.45-.38,1.55-.99,3.38-1.88,2.63-1.28,2.8-1.28,2.97-1.28.53,0,1.2.15,2.07.47.71.25,1.04.34,1.18.37-.01-.09-.04-.17-.08-.23-.17-.27-.23-.44-.23-.61,0-.47.42-.82,1.53-1.31.39-.17.76-.32,1.11-.45.13-.11.27-.23.42-.37Z"/>
  <path class="cls-1" d="M64.64,79.43c-.77.77-.88.99-.89,1.01,0,0,.03.24.25,1.18.02.08.04.16.06.25.67-.22,1.21-.54,1.62-.96.62-.65,1.41-.97,2.35-.97.41,0,.71.12.9.35.13.15.28.27.42.35.09.05.36.18,1.23.39.27.09.83.18,2.07.21,1.34.06,1.71.15,1.9.23,0,0,0,0,0,0,0,0,.21,0,.97-.04,1.05-.03,1.43.44,1.57.84.08.21.11.48.11.82,0,.16,0,.33-.02.52,0,.09.01.12.23.12s.38-.33.47-.61l.11-.34h1.05l.11.05c.12.06.26.16.38.3l.21-.12c.33-.19.69-.29,1.07-.29l.2.04.95.41c.81.29,1.15.34,1.29.34.67,0,1.34-.17,1.98-.51q1.18-.63,1.34-.63c.19,0,.52-.02.56-.18.1-.33.42-.9,1.49-.9.3,0,.58.1.84.29.24.15.43.27.55.33,0,0,.04.02.28.02.06,0,.14,0,.22,0,.59.03.79.05.91.1.39.16.69.52.94,1.09.19.46.29.89.29,1.27,0,.23-.04.43-.13.6-.02.04-.04.09-.07.15.55.18.69.25.76.31.24.16.51.49.51,1.12,0,.69-.17,1.23-.51,1.6-.25.25-.28.35-.28.36,0,0,0,.14.53.96.45.73.69,1.48.71,2.24,0,.4.06.73.17.97.15.31.28.31.34.31l1.95-.28c.81,0,1.22.07,1.47.25.33.22.49.64.49,1.29,0,.52-.48.91-.85,1.17-.21.15-.33.25-.39.31.05.15.15.48.3.97l.02.15c0,.07,0,.09-.39,1.88-.1.44-.17.81-.21,1.12.25.22.5.39.73.52.36.22.58.63.66,1.25h0s0,0,0,0c0,0,.03.04.11.1.33.2.53.55.53.98l-.04.81c.6.16,1.02.35,1.28.57,0,0,0,0,0,0,.02,0,.2.05.69.05s1.15-.13,1.89-.38c.47-.17.78-.28.99-.35,0-.03,0-.06,0-.09-.03-.02-.09-.06-.18-.1l-.26-.14v-1.27l1.28-.1h0c.19,0,.39.06.95.34.19.09.33.16.44.2l3.21-1.44c.28-.12.67-.22,1.18-.3l-.02-.06,1.03-.07v.03c.06,0,.1,0,.15-.01,0,0,0,0,0,0,.53-.03,1.19-.44,1.93-1.18.28-.28.71-.43,1.31-.46.65-.05.8-.08.82-.09.09-.04.27-.09.75-.19.16-.02.24-.05.28-.06.27-.36.58-.57.92-.63.46-.11,1.16-.12,2.1-.02.09-.03.25-.1.47-.2.59-.25.78-.3.93-.3.23,0,.6-.04,1.12-.12.49,0,.88.14,1.16.43.14.13.24.27.3.43.32-.21.99-.6,2.49-1.43.43-.24.81-.45,1.13-.64l2.15-3.04c.31-.55.48-1.39.48-2.46,0,0,0,0,0,0-.1-.1-.22-.31-.22-.66v-.27l.22-.15c.09-.06.17-.11,1.55-.45.14-.03.37-.09.38-.62h-.03s.03-1.04.03-1.04l.09.02c.09-.38.24-.66.46-.84,0,0,0,0,.01-.01.11-.1.17-.24.17-.44l-.35-2.24v-.45l1.12-.11c.25,0,.56.05.98.18.35.09.55.11.65.11.42,0,.56-.06.59-.08,0,0,0-.02,0-.05v-.1c0-.14,0-.39-.04-.8l-.02-.2.13-.16c.21-.26.53-.57.98-.95.44-.4.77-.72.96-.93.31-.39.69-1.07,1.11-2.02.48-1.15.56-1.59.56-1.75,0,.08-.13-.24-.88-1.29-.68-.91-1.07-1.42-1.15-1.53l-.11-.14v-1.24h1.63c-.18-.32-.28-.65-.28-.98,0-.05,0-.09,0-.14h0s-.01-.21-.42-.62c-.35-.35-.47-.42-.49-.42l-.36-.12.04-.37c.03-.57.39-1.07,1.06-1.48.12-.06.64-.3,1.59-.75.35-.17.5-.4.5-.76v-.02s0-.04,0-.06c0-.34.15-.57.27-.7.24-.25.59-.37,1.08-.37l1.3.15c.75-.16,1.19-.22,1.47-.24.04-.09.06-.15.08-.19-.73-1.67-1.53-2.57-2.41-2.67l-.44-.05v-1.6l.15-.15c.11-.11.17-.34.17-.66-.04-.54-.05-.96-.03-1.24.02-.31.18-.89,1.04-1.11.17-.04.42-.09.75-.15-.14-.22-.21-.48-.21-.79,0-.52.22-1.04.66-1.56.26-.26.67-.7,1.28-1.34,1.32-1.28,1.75-1.79,1.88-1.99-.09-.08-.35-.35-1.1-.86-1.08-.7-1.67-.87-1.98-.9-1.08-.11-2.14-.44-3.16-.97-.47-.3-.79-.5-.98-.62-.21.09-.58.25-1.12.48-.96.41-1.66.61-2.16.61-.14,0-.29-.04-.51-.13l-.3-.13v-.46l.11-.96c-.13-.05-.25-.12-.37-.18l-.11-.08c-.17-.18-.21-.44-.21-.83,0-.14-.03-.21-.05-.22l-.1-.12c-.25-.41-.5-.74-.75-.98-.38-.4-.87-.61-1.48-.64-.17.12-.36.25-.57.37-.53.34-1.24.51-2.09.51-.32,0-.83-.14-2.22-1.17-1.52-1.12-1.78-1.31-1.83-1.33-.17-.09-.62-.38-2.32-1.67-.68-.52-1.27-.78-1.75-.78-.29,0-.56.17-.84.51-.55.64-.82.85-1.11.85-.74,0-1.54-.28-2.45-.87-1.05-.66-1.59-1.39-1.59-2.16,0-.53.31-.91.84-1.03.07-.01.14-.03.2-.14-.04,0-.06,0-.07,0-2.01.35-2.24.35-2.34.35-.04,0-.56-.01-1.56-.03-.3,0-.61.05-.92.14-.12.04-.26.2-.38.46-.06.18-.14.43-.22.71-.16.33-.44.59-1.46,1.1-.8.37-1.27.58-1.42.64-.51.25-.77.43-.9.53l-.67.61c-.25.3-.51.55-.72.72-.39.35-.88.56-1.43.61-.19.02-.7.17-1.95,1-1.47.98-2.07,1.09-2.39,1.09-.47,0-.78-.33-.78-.82,0-.34.18-.71.55-1.17.15-.2.3-.35.45-.48-.21.03-.43.05-.65.06-.25.04-.58.05-.9.03h-.18s-.13-.13-.13-.13c-.3-.28-.54-.51-.71-.68-.28-.29-.44-.61-.49-.93-.07.03-.15.08-.23.13-.14.08-.23.15-.28.19.04.09.12.23.29.43.46.56.53.69.53.9,0,.31-.13.63-.4.95-.42.49-.87.59-1.18.59-.34,0-.83-.13-1.24-.77-.18-.27-.27-.31-.28-.31-.15,0-.28.01-.39.03.07.12.15.26.25.42.37.65.45.91.45,1.11,0,.22-.09.48-.55,1.06-.21.25-.31.39-.35.46.03.05.12.09.4.09h.5v.5c0,.32.05.71.15,1.16.09.54.14.91.14,1.15,0,.86-1.19,1.22-2.36,1.47-.78.17-1.24.3-1.5.39h0s-.27,1.56-.27,1.56c.11.33.13.79-.24,1.3-.11.14-.2.26-.27.35.16.03.33.09.49.16.51.21.89.6,1.11,1.15.06.15.22.46.64,1.07.27.4.4.88.4,1.42,0,.31,0,.48-3.64,3.47.03.09.09.1.15.11,1.51.27,1.55.29,1.63.33l.24.12.09.84c0,.24-.05.6-.43,1.79.01.06.06.14.19.25.37.36.53.68.53.98,0,.39-.24.79-.79,1.31-.54.51-1.11.87-1.71,1.06-.46.13-1.06.49-1.81,1.06-1.12.89-1.35.96-1.57.96-.54,0-1.07-.26-1.58-.78-.33-.33-.67-.49-1.04-.49-.71,0-1.39.04-2.02.12-1.62.21-2.81.36-3.55.44-.85.07-1.45.37-1.82.92-.2.27-.33.54-.4.79l-.1.37h-.38c-.41,0-.83-.21-1.24-.62-.32-.29-.5-.33-.56-.33-.18,0-.56.04-1.4.24-.7.16-1.37.23-2.03.2-.12,0-.38.03-.95.44-.26.2-.59.47-.98.8-.66.42-.76.68-.78.78,0,.6-.21,1.16-.66,1.57-.06.06-.17.17-1.46.87-.41.21-.46.45-.46.63l.15.93c0,.3-.07.43-.77,1.15-.09.1-.21.24-.35.38Z"/>
  <path class="cls-1" d="M138.39,94.63c0-.15.02-.46.17-1.37.06-.27.1-.52.12-.76-2.2-.43-2.69-.51-2.78-.52,0,0,0,0,0,0-.94-.03-1.43-.17-1.66-.48-.17-.19-.34-.36-.46-.48-.36-.43-.49-.68-.49-.92,0-.2.06-.44.2-.76.05-.17.09-.39.09-.63v-.03c-.21-.04-.41-.08-.59-.13-.11.93-.73,1.24-1.12,1.33-.38.09-.65.16-.84.21.04.11.05.22.05.35,0,1.24-.21,2.25-.63,2.99l-2.4,3.31c-.34.2-.76.43-1.24.7-2.1,1.16-2.5,1.43-2.57,1.49l-.14.12h-1.53s.32-.7.32-.7c-.15-.17-.27-.21-.43-.21-.5.08-.92.13-1.2.13,0,0,0,0,0,0,0,0-.14.04-.54.21-.63.28-.71.29-.83.29-1.13-.13-1.67-.08-1.94-.01-.12.02-.25.13-.37.31-.22.23-.47.33-.87.39-.27.05-.46.09-.56.13-.08.04-.25.1-1.13.16-.47.02-.62.13-.66.17-.88.88-1.67,1.36-2.41,1.46.06.13.13.26.2.39.38.05.83.08,1.33.08.33,0,.79.07,1.38.2.69.15.96.18,1.06.18h.5v.95l-.1.13c-.21.28-.52.59-.9.91-.11.1-.26.23-.45.38.07.18.1.35.11.53.21-.06.62-.22,1.33-.6.92-.51,1.65-.75,2.23-.75.42,0,1.04.16,1.55.91.31.43.48.44.5.44.07,0,.26-.03.63-.29.09-.06.17-.12.24-.16-.1-.09-.16-.15-.2-.2-.14-.18-.2-.45-.2-.9,0-.51.55-.8,1.56-1.17.04-.03.23-.12.5-.22.41-.14.57-.16.67-.16.77,0,1.04.51,1.04.94,0,.51-.15.93-.45,1.25-.01.02-.03.04-.04.05l.5.06h5.18c.79,0,1.1-.18,1.21-.28.12-.12.2-.38.21-.73-.09-.11-.18-.23-.28-.34-.41-.5-.53-.73-.53-.96,0-.51.34-1.11,4.44-2.86,2.97-1.29,3.66-1.86,3.81-2.04l-.58-2.49Z"/>
  <path class="cls-1" d="M79.94,84.22v.65h.07s.07-.05.08-.06c0,0,0-.04,0-.09h0c0-.17-.05-.33-.14-.5Z"/>
  <path class="cls-1" d="M130.81,89.76s-.03-.03-.06-.05c.02.02.04.03.05.05h0Z"/>
  <path class="cls-1" d="M141.44,87.83c.15-.15.49-.5,1.04-1.07.63-.63.88-.94.99-1.1.19-.32.35-.67.44-1.02.09-.42.21-.75.37-1.01.13-.22.32-.5.55-.85.07-.14.12-.32.1-.5,0-.81.39-1.61,1.2-2.49.56-.64,1.23-1.28,1.98-1.88.33-.33.51-.86.51-1.57,0-.6-.12-1.67-.37-3.17-.28-1.69-.24-2.79.12-3.45.13-.24.26-.5.39-.8-.15-.2-.37-.4-.66-.6-.92-.59-1.41-.81-1.67-.89-.09-.03-.42-.11-1.92-.33l-.74-.11.36-.6c-.21.04-.48.09-.83.16l-.08.02-1.41-.17c-.22,0-.3.06-.3.06v.02c0,.82-.37,1.4-1.07,1.73h0c-.73.34-1.2.56-1.41.66,0,0-.01,0-.02,0h0s-.05.02-.06.03c0,0,0,0,0,0,0,0,0,0,0,0h0s0,0,0,0h-.02s0,0,0,0c0,0,0,0,0,0h0c-.22.13-.37.27-.46.41.12.09.26.22.43.4.48.48.72.91.72,1.32,0,.03,0,.05,0,.08,0,.02,0,.04,0,.06,0,.34.23.71.68,1.1l.17.15v1.17l-1-.05c-.31-.15-.59-.28-.82-.39h-.32c.19.26.52.69.99,1.32,1,1.39,1.08,1.66,1.08,1.88,0,.27-.07.8-.64,2.15-.47,1.05-.88,1.79-1.27,2.27-.24.27-.58.6-1.06,1.03-.32.27-.56.5-.74.68.02.23.03.42.03.57,0,.42-.06.62-.14.77-.25.51-.95.57-1.45.57-.23,0-.53-.05-.91-.14-.44-.13-.61-.14-.67-.14h-.11s.29,1.73.29,1.73v.03c0,.54-.18.94-.5,1.24-.02.02-.1.1-.16.36.28.07.59.13.93.2,0,0,0,0,0,0,.22.04.59.21.59.96,0,.35-.05.68-.15.98-.09.22-.12.33-.13.38.02,0,.08.1.23.28.1.1.28.28.49.52,0,0,.2.1.94.12h0c.07,0,.21.01,2.78.51.02-.04.05-.07.08-.11.09-.13.2-.29.33-.46.62-.85.87-1.12,1.01-1.24,0,0,.12-.14.54-.81.35-.53.59-.86.76-1.04Z"/>
</svg>