<?xml version="1.0" encoding="UTF-8"?>
<svg id="OBJECTS" xmlns="http://www.w3.org/2000/svg" viewBox="0 0 213.68 149.61">
  <defs>
    <style>
      .cls-1 {
        fill: #b493d8;
      }
    </style>
  </defs>
  <path class="cls-1" d="M141.85,56.28v-.42c-.01-.09-.06-.14-.08-.15-.29-.29-.74-.45-1.35-.49-.7.04-1.15.06-1.3.06h-.5v-1.35l.05-.11c.47-.93.52-1.28.52-1.39,0-.05,0-.08,0-.11h-.57s-.17.02-.74.15c-.62.13-.85.14-.97.14-.15,0-.3-.02-.45-.07-1.2.37-1.55.42-1.73.42-.25,0-.52-.12-.85-.4-.26-.22-.53-.48-.53-.83v-.14l.07-.12c.71-1.18.78-1.6.78-1.73,0-.26-.04-.54-.11-.82l-.03-.12v-.05c-.06-.27-.12-.54-.18-.79-.2-.37-.57-.78-1.08-1.22-1.17-1-1.69-1.72-1.69-2.34l.02-.14.7-2.34c-.03-.11-.19-.42-.94-.93-1-.68-1.62-1.25-1.92-1.74-.07-.11-.33-.38-1.35-.52-.47-.06-1.28-.09-2.4-.09-.07,0-.24.02-.57.15-.41.14-.66.19-.85.19-.53,0-.97-.25-1.22-.69-.12-.22-.26-.35-.43-.4l-3.35-.98s-.27-.02-1.65-.08c-.98-.04-1.6-.06-1.88-.06-.38,0-.92-.13-1.33-.76-.13-.19-.25-.31-.34-.31-.21,0-.42.12-.63.36-.39.47-.99.71-1.77.71h-.11c-3.22-.76-4.29-.92-4.62-.92-.13,0-.27,0-.44.01-.34.27-.49.45-.55.56-.36.62-1.2,1.35-2.56,2.22-1,.65-1.35.95-1.46,1.07l.14,1.1c0,1.09-.29,1.79-.87,2.13-.12.07-.32.16-1.42.38-.79.15-1.01,1.23-.65,3.21l.12.68-.69-.1c-.29-.04-.53-.07-.72-.1-.06.17-.21.33-.46.59-.12.16-.2.34-.2.5,0,.16.03.27.08.32.02.01.04.04.07.05l.23.15v.27c0,1.12.06,1.6.11,1.81.09.38.14.82.14,1.32,0,1.14-.49,2.44-1.5,3.97-1.05,1.61-1.29,2.09-1.33,2.23.02,0,.07.07.2.18.19.16.28.17.28.17.21,0,.44-.15.7-.43.45-.53.92-.8,1.41-.8.18,0,.44.05,1.12.4.46.25.81.47,1.08.67.4.31.61.73.61,1.22v.8c.02.1.04.32.06.91,0,.13.07.25.22.38,1.65,1.54,1.65,1.56,1.65,1.82,0,.15-.04.3-.12.48.39,0,.94-.05,1.7-.15.45.03.83.21,1.14.65.17.2.31.2.35.2,0,0,.16-.03.76-.28.56-.24,1.1-.35,1.58-.35.27,0,.61.04,1.05.14.35.05.66.08.91.08h.5v.5c.06.07.1.1.12.12l1.1-.12c.38,0,.88.11,1.47.35.65.26.82.28.83.28h0c.42,0,.88.08,1.36.25.43.15.68.24.76.27h0s.27.04,1.03,0c.1,0,.19,0,.28,0,.45,0,.82.05,1.12.16.13.04.34.15.86.6.26.24.37.25.37.25.09,0,.25-.03.53-.17.04-.02.08-.04.11-.06-.06-.13-.14-.3-.24-.51-.3-.64-.43-1.06-.43-1.35,0-.73.39-.96.63-1.04.08-.04.29-.09.89-.09.35,0,.73.07,1.12.22.37.12.48.13.49.13.34,0,.67-.33.96-1,.32-.73,1.08-1.59,2.89-1.59.24,0,.5.09.79.26.14.07.33.12.56.12l1.59-.16h0c.97,0,1.67.34,2.15,1,.29.39.63.58,1.02.58.67,0,1.16-.21,1.51-.64.58-.72,1.22-1.16,1.91-1.28.41-.07,1.23-.11,2.51-.13h.95c.07-.41.28-.83.63-1.25.47-.54.84-1,1.11-1.38.27-.37.49-.81.66-1.33.13-.38.3-.74.51-1.07Z"/>
  <path class="cls-1" d="M139.28,62.7c-.07-.15-.14-.28-.19-.4h-1.11c-1.21.02-2,.06-2.35.12-.44.08-.88.39-1.3.92-.54.67-1.31,1.01-2.29,1.01-.71,0-1.32-.33-1.82-.99-.29-.4-.71-.59-1.31-.59l-1.59.16c-.42-.01-.8-.08-1.11-.25-.21-.13-.29-.13-.3-.13-1.03,0-1.68.33-1.97,1-.46,1.06-1.1,1.59-1.88,1.59-.12,0-.3-.02-.81-.18-.7-.26-1.2-.16-1.31-.15h0s0,.06,0,.11c0,.02,0,.22.33.93.42.88.42.89.42,1.03h0c0,.51-.55.77-.76.87-.75.38-1.29.41-2-.24-.39-.34-.51-.4-.52-.4-.16-.06-.46-.12-1.01-.1-.77.05-1.08.03-1.26,0-.09-.01-.24-.06-.92-.31-.36-.13-.71-.19-1.03-.19-.16,0-.42-.04-1.2-.35-.58-.23-.89-.28-1.05-.28l-1.15.12c-.28-.02-.54-.12-.79-.36-.09-.09-.16-.19-.21-.28-.21-.02-.45-.04-.71-.09-.39-.08-.67-.12-.87-.12-.35,0-.76.09-1.2.28-.71.29-.97.35-1.14.35-.29,0-.73-.1-1.14-.59-.16-.22-.25-.27-.28-.27-1.01.15-1.69.17-2.22.15-.04.16-.08.35-.12.56.06.44.09,1,.09,1.73,0,1.31-.25,2.41-.74,3.28.52.06,1.14.12,1.85.17,1.06.08,2.14.14,3.2.16,0,0,.15,0,.7-.17.69-.2.81-.21.9-.21.38,0,.72.17,1.03.51.15.13.26.15.29.15,0,0,.13-.01.59-.14l.13-.02c.17,0,.51.04,1.77.36,1.05.27,1.69.5,2.04.73l.56.29c.35.2.6.38.78.56.1.1.23.28.43.85,0,0,0,0,0,0,0,.01.15-.01.67-.18.72-.23.9-.25,1.01-.25.87,0,2.08.77,3.82,2.41,1.5,1.39,2.45,2.46,2.9,3.28.12.2.29.53.5.98.16.25.34.4.52.47,0,0,0,0,0,0,.21.07.76.16,2.11.16.74.06,1.73.07,2.98.03,1.58.07,1.91.72,1.91,1.26,0,.28-.11.8-.83,1.07-.76.31-.98.45-1.04.5,0,0-.1.13-.1.67,0,.12,0,.27.02.44,0,.11.01.21.01.32,0,.55-.13,1.04-.38,1.48.05,0,.1-.01.15-.01.25,0,.49.13,1.35.92.01.01.03.02.04.04.54-.78,1.08-1.51,1.59-2.19,1-1.29,2.49-2.34,4.44-3.13,1.08-.43,1.58-1.16,1.58-2.28l-.19-4.4c.13-1.07.19-1.91.19-2.58.17-1.38.19-1.65.19-1.71,0-.34-.04-.7-.12-1.07-.09-.33-.15-.64-.19-.91l-.02-.16.07-.14c.14-.27.17-.43.17-.53,0-.11-.02-.34-.12-.85-.11-.44-.17-.79-.17-1.04,0-.44.3-.98.98-1.75.65-.77.72-1.03.73-1.07,0-.32-.09-.63-.26-.96Z"/>
  <path class="cls-1" d="M119.8,103.39c.25-.27.74-.9,1.68-2.45,1.27-2.13,1.35-2.23,1.38-2.28.36-.46.83-.85,1.38-1.18.39-.25.77-.62,1.11-1.09.16-.21.33-.52.53-.91.36-.73.58-1.19.66-1.36,1.94-3.57,2.28-4.18,2.36-4.31.32-.51.63-1.01.94-1.5-.05-.05-.1-.09-.16-.15-.39-.36-.6-.53-.71-.61-.05.04-.15.12-.29.27-.79.79-1.43.64-1.78.5l-.31-.13v-1.1l.29-.14c.93-.44,1.37-1.05,1.37-1.92,0-.08,0-.16-.01-.24-.01-.19-.02-.36-.02-.52,0-.79.17-1.25.53-1.49.11-.08.38-.25,1.25-.61.14-.05.2-.1.2-.14,0-.08-.25-.23-.91-.26-1.26.04-2.29.03-3.02-.03h-.05c-1.15,0-1.91-.07-2.34-.21-.41-.15-.76-.45-1.05-.9l-.03-.06c-.16-.34-.3-.61-.41-.81-.02-.03-.04-.06-.05-.09h0s0,0,0,0c0,0,0,0,0,0,0,0,0,0,0,0,0,0,0,0,0,0,0,0,0,0,0,0,0,0,0,0,0,0h0s0,0,0,0h0s0,0,0-.01c-.4-.72-1.32-1.74-2.72-3.05-1.97-1.86-2.81-2.14-3.14-2.14,0,0-.14.02-.7.2-.64.21-.87.24-1,.24-.42,0-.76-.25-.91-.68-.14-.39-.21-.49-.21-.5-.07-.06-.23-.2-.54-.38l-.58-.31c-.18-.11-.59-.31-1.79-.62-.98-.25-1.34-.31-1.46-.33-.49.13-.67.15-.78.15-.34,0-.67-.15-1-.45-.11-.12-.22-.22-.33-.22-.05.01-.27.07-.62.17-.62.19-.85.21-.99.21-1.09-.02-2.18-.07-3.26-.16-.99-.07-1.82-.15-2.45-.25-.2.21-.42.4-.67.57-.85.56-2.64,1.55-5.49,3-1.8,1.16-3.33,2.29-4.51,3.34-.22.19-.73.54-2.77,1.53-1.65.77-2.31,1.32-2.58,1.64,0,0,0,0,0,0,0,0-.06.14-.26.68-.2.54-.49.98-.87,1.31l-1.88,1.76c-.51.49-1.1,1.2-1.73,2.1-.57.83-1.15,1.48-1.72,1.91-.59.45-1.59,1.34-2.96,2.65-2.17,2.06-2.48,2.69-2.53,2.83.02-.01.22.15.86.38.15-.03.49-.15,1.14-.67,1.54-1.33,3.52-1.24,5.44.39,1.49,1.31,1.8,1.54,1.87,1.58,2.43,1.13,2.64,1.26,2.72,1.31.76.45,1.15.96,1.15,1.53,0,.4-.06.87-.18,1.43.35-.15.62-.35.8-.59.26-.36.63-.55,1.06-.55.55,0,1.04.25,1.48.74.25.27.47.5.64.69.79.15,1.29.37,1.6.69.23.26.4.65.55,1.23.08.15.19.21.38.22h0c.64,0,1.15.09,1.53.27.48.21.81.66.97,1.35.03.14.32.22.75.22.77.03,1.35.26,1.73.71.21.21.44.58.68,1.1.05.1.39.49,1.96,1.31,1.42.71,2.38,1.41,2.92,2.13.66.91,1.33,1.52,2,1.8.33.15,1.12.44,2.34.87.86.29,1,.85,1,1.17,0,.96-.75,1.74-2.22,2.3-.73.28-1.61.73-1.61,1.3,0,.66.06,1.33.18,2,.18.93.37,1.09.38,1.1.21-.02.75-.19,1.68-.98.71-.63,1.28-1.32,1.69-2.05.56-.75.97-1.29,1.26-1.69.48-.66.72-1.22.72-1.66,0-.08-.02-.39-.21-1.49-.23-1.21-.23-1.22-.23-1.29,0-.71.55-1.83,4.8-4.29,4.33-2.53,5.73-3.59,6.13-4.04Z"/>
</svg>