<?xml version="1.0" encoding="UTF-8"?>
<svg id="Camada_1" xmlns="http://www.w3.org/2000/svg" version="1.1" viewBox="0 0 36 36">
  <!-- Generator: Adobe Illustrator 29.8.2, SVG Export Plug-In . SVG Version: 2.1.1 Build 3)  -->
  <path d="M23.9,19.2c-1.1,0-2.1.4-2.9,1l-1.2-1.2c.3-.6.3-1.3,0-1.9l1.2-1.2c.8.6,1.8,1,2.9,1,2.6,0,4.7-2.1,4.7-4.7,0-2.6-2.1-4.7-4.7-4.7s-4.7,2.1-4.7,4.7.4,2.1,1,2.9l-1.2,1.2c-.6-.3-1.3-.3-1.9,0l-1.2-1.2c.6-.8,1-1.8,1-2.9,0-2.6-2.1-4.7-4.7-4.7s-4.7,2.1-4.7,4.7c0,2.6,2.1,4.7,4.7,4.7,1.1,0,2.1-.4,2.9-1l1.2,1.2c-.1.3-.2.6-.2.9s0,.7.2.9l-1.2,1.2c-.8-.6-1.8-1-2.9-1-2.6,0-4.7,2.1-4.7,4.7,0,2.6,2.1,4.7,4.7,4.7,2.6,0,4.8-2.1,4.7-4.7,0-1.1-.4-2.1-1-2.9l1.2-1.2c.3.1.6.2.9.2s.7,0,.9-.2l1.2,1.2c-.6.8-1,1.8-1,2.9,0,2.6,2.1,4.7,4.7,4.7,2.6,0,4.8-2.1,4.7-4.7,0-2.6-2.1-4.7-4.7-4.7h0ZM23.9,15.6c-.9,0-1.7-.3-2.4-.9.1-.2.4-.4.6-.4h3.5c.3,0,.5.1.6.4-.6.6-1.5.9-2.4.9h0ZM23,12.2c0-.5.4-.9.9-.9s.9.4.9.9c0,.5-.4.9-.9.9-.5,0-.8-.4-.8-.9h0ZM23.9,8.6c1.9,0,3.5,1.6,3.5,3.5s-.1,1.1-.4,1.6c-.3-.3-.7-.5-1.2-.6.1-.3.2-.6.2-.9,0-1.2-1-2.1-2.1-2.1s-2.1,1-2.1,2.1,0,.6.2.9c-.5,0-.9.3-1.2.6-.2-.5-.4-1-.4-1.6,0-1.9,1.6-3.5,3.5-3.5h0ZM12.1,15.6c-.9,0-1.7-.3-2.4-.9.1-.2.4-.4.6-.4h3.5c.3,0,.5.1.6.4-.6.6-1.5.9-2.4.9ZM11.2,12.2c0-.5.4-.9.9-.9s.9.4.9.9c0,.5-.4.9-.9.9-.5,0-.8-.4-.8-.9ZM15.2,13.7c-.3-.3-.7-.5-1.2-.6.1-.3.2-.6.2-.9,0-1.2-1-2.1-2.1-2.1s-2.1,1-2.1,2.1,0,.6.2.9c-.5,0-.9.3-1.2.6-.2-.5-.4-1-.4-1.6,0-1.9,1.6-3.5,3.5-3.5s3.5,1.6,3.5,3.5c0,.6-.1,1.1-.4,1.6h0ZM12.1,27.4c-.9,0-1.7-.3-2.4-.9.1-.2.4-.4.6-.4h3.5c.3,0,.5.1.6.4-.6.6-1.5.9-2.4.9ZM11.2,24c0-.5.4-.9.9-.9s.9.4.9.9c0,.5-.4.9-.9.9-.5,0-.8-.4-.8-.9ZM15.2,25.5c-.3-.3-.7-.5-1.2-.6.1-.3.2-.6.2-.9,0-1.2-1-2.1-2.1-2.1s-2.1,1-2.1,2.1,0,.6.2.9c-.5,0-.9.3-1.2.6-.2-.5-.4-1-.4-1.6,0-1.9,1.6-3.5,3.5-3.5s3.5,1.6,3.5,3.5c0,.6-.1,1.1-.4,1.6h0ZM18.6,18.6c-.2.2-.4.2-.6.2s-.4,0-.6-.2-.2-.4-.2-.6,0-.4.2-.6c.2-.2.4-.2.6-.2s.4,0,.6.2c.3.3.3.8,0,1.1ZM23.9,27.4c-.9,0-1.7-.3-2.4-.9.1-.2.4-.4.6-.4h3.5c.3,0,.5.1.6.4-.6.6-1.5.9-2.4.9h0ZM23,24c0-.5.4-.9.9-.9s.9.4.9.9c0,.5-.4.9-.9.9-.5,0-.8-.4-.8-.9h0ZM27,25.5c-.3-.3-.7-.5-1.2-.6.1-.3.2-.6.2-.9,0-1.2-1-2.1-2.1-2.1s-2.1,1-2.1,2.1,0,.6.2.9c-.5,0-.9.3-1.2.6-.2-.5-.4-1-.4-1.6,0-1.9,1.6-3.5,3.5-3.5s3.5,1.6,3.5,3.5c0,.6-.1,1.1-.4,1.6h0Z"/>
</svg>