<?xml version="1.0" encoding="UTF-8"?>
<svg id="Camada_1" xmlns="http://www.w3.org/2000/svg" version="1.1" viewBox="0 0 36 36">
  <!-- Generator: Adobe Illustrator 29.8.2, SVG Export Plug-In . SVG Version: 2.1.1 Build 3)  -->
  <path d="M28.8,20.2h-1.4c.9-.9,1.4-2,1.4-3.3,0-2.6-2.1-4.7-4.7-4.7s-4.7,2.1-4.7,4.7.5,2.5,1.4,3.3h-5.6c.9-.9,1.4-2,1.4-3.3,0-2.6-2.1-4.7-4.7-4.7s-4.7,2.1-4.7,4.7.5,2.5,1.4,3.3h-1.4c-.4,0-.7.3-.7.7v2.8c0,.4.3.7.7.7h9.6l-1.7,2.9h-2.4c-.4,0-.7.3-.7.7s.3.7.7.7h10.4c.4,0,.7-.3.7-.7s-.3-.7-.7-.7h-2.4l-1.7-2.9h9.6c.4,0,.7-.3.7-.7v-2.8c0-.4-.3-.7-.7-.7ZM20.7,16.9c0-1.8,1.5-3.3,3.3-3.3s3.3,1.5,3.3,3.3-1.5,3.3-3.3,3.3h0c-1.8,0-3.3-1.5-3.3-3.3ZM8.6,16.9c0-1.8,1.5-3.3,3.3-3.3s3.3,1.5,3.3,3.3-1.5,3.3-3.3,3.3h0c-1.8,0-3.3-1.5-3.3-3.3ZM19.3,27.2h-2.5l1.3-2.2,1.3,2.2ZM28.1,23H7.9v-1.5h20.2v1.5Z"/>
  <path d="M11.9,19.2c.9,0,1.6-.5,2-1.3.2-.3,0-.7-.3-.9-.3-.2-.7,0-.9.3-.2.3-.4.5-.8.5s-.5,0-.8-.5c-.2-.3-.6-.4-.9-.2-.3.2-.4.6-.2.9.5.8,1.1,1.2,2,1.2h0Z"/>
  <path d="M24.1,19.2c.9,0,1.6-.5,2-1.3.2-.3,0-.7-.3-.9s-.7,0-.9.3c-.2.3-.4.5-.8.5s-.5,0-.8-.5c-.2-.3-.6-.4-.9-.2-.3.2-.4.6-.2.9.5.8,1.1,1.2,2,1.2Z"/>
  <path d="M15,8.8h5.9c.4,0,.7-.3.7-.7s-.3-.7-.7-.7h-5.9c-.4,0-.7.3-.7.7s.3.7.7.7h0Z"/>
  <path d="M15,11.3h5.9c.4,0,.7-.3.7-.7s-.3-.7-.7-.7h-5.9c-.4,0-.7.3-.7.7s.3.7.7.7h0Z"/>
  <circle cx="10.7" cy="15.8" r=".7"/>
  <circle cx="13.2" cy="15.8" r=".7"/>
  <circle cx="22.8" cy="15.8" r=".7"/>
  <circle cx="25.3" cy="15.8" r=".7"/>
</svg>