<?xml version="1.0" encoding="UTF-8"?>
<svg id="Camada_1" data-name="Camada 1" xmlns="http://www.w3.org/2000/svg" viewBox="0 0 176 171">
  <defs>
    <style>
      .cls-1 {
        fill: #fff;
      }
    </style>
  </defs>
  <path class="cls-1" d="M81.83,129.5h2.03v22.15h-22.15c-2.04,0-3.69,1.65-3.69,3.69s1.65,3.69,3.69,3.69h51.69c2.04,0,3.69-1.65,3.69-3.69s-1.65-3.69-3.69-3.69h-22.15v-22.15h2.03c23.31,0,42.28-18.97,42.28-42.28,0-2.04-1.65-3.69-3.69-3.69s-3.69,1.65-3.69,3.69c0,19.24-15.65,34.89-34.89,34.89h-11.45c-19.24,0-34.89-15.65-34.89-34.89,0-2.04-1.65-3.69-3.69-3.69s-3.69,1.65-3.69,3.69c0,23.31,18.97,42.28,42.28,42.28Z"/>
  <path class="cls-1" d="M81.83,114.73h11.45c15.17,0,27.51-12.34,27.51-27.51v-48.37c0-15.17-12.34-27.51-27.51-27.51h-11.45c-15.17,0-27.51,12.34-27.51,27.51v48.37c0,15.17,12.34,27.51,27.51,27.51ZM61.7,38.85c0-11.1,9.03-20.12,20.12-20.12h11.45c11.1,0,20.12,9.03,20.12,20.12v2.03h-14.77c-2.04,0-3.69,1.65-3.69,3.69s1.65,3.69,3.69,3.69h14.77v14.77h-14.77c-2.04,0-3.69,1.65-3.69,3.69s1.65,3.69,3.69,3.69h14.77v14.77h-14.77c-2.04,0-3.69,1.65-3.69,3.69s1.65,3.69,3.69,3.69h13.95c-2.36,8.49-10.08,14.77-19.31,14.77h-11.45c-9.23,0-16.94-6.28-19.31-14.77h13.95c2.04,0,3.69-1.65,3.69-3.69s-1.65-3.69-3.69-3.69h-14.77v-14.77h14.77c2.04,0,3.69-1.65,3.69-3.69s-1.65-3.69-3.69-3.69h-14.77v-14.77h14.77c2.04,0,3.69-1.65,3.69-3.69s-1.65-3.69-3.69-3.69h-14.77v-2.03Z"/>
</svg>