<?xml version="1.0" encoding="UTF-8"?>
<svg id="Camada_1" xmlns="http://www.w3.org/2000/svg" version="1.1" viewBox="0 0 176 171">
  <!-- Generator: Adobe Illustrator 29.8.2, SVG Export Plug-In . SVG Version: 2.1.1 Build 3)  -->
  <defs>
    <style>
      .st0 {
        fill: #fff;
      }
    </style>
  </defs>
  <path class="st0" d="M141.5,74.6h-10.7v-26.8c0-1.5-1.2-2.7-2.7-2.7H34.5c-1.5,0-2.7,1.2-2.7,2.7v73.6c0,5.2,4.2,9.4,9.4,9.4h93.6c5.2,0,9.4-4.2,9.4-9.4v-44.1c0-1.5-1.2-2.7-2.7-2.7h0ZM37.2,121.4V50.5h88.3v70.9c0,1.4.4,2.8.9,4H41.2c-2.2,0-4-1.8-4-4ZM138.8,121.4c0,2.2-1.8,4-4,4s-4-1.8-4-4v-41.5h8v41.5h0Z"/>
  <path class="st0" d="M117.4,82.6H45.2c-1.5,0-2.7,1.2-2.7,2.7v10.7c0,1.5,1.2,2.7,2.7,2.7h72.2c1.5,0,2.7-1.2,2.7-2.7v-10.7c0-1.5-1.2-2.7-2.7-2.7ZM114.8,93.4H47.9v-5.4h66.9v5.4Z"/>
  <path class="st0" d="M117.4,104.1H45.2c-1.5,0-2.7,1.2-2.7,2.7s1.2,2.7,2.7,2.7h72.2c1.5,0,2.7-1.2,2.7-2.7s-1.2-2.7-2.7-2.7Z"/>
  <path class="st0" d="M74.6,114.8h-29.4c-1.5,0-2.7,1.2-2.7,2.7s1.2,2.7,2.7,2.7h29.4c1.5,0,2.7-1.2,2.7-2.7s-1.2-2.7-2.7-2.7Z"/>
  <path class="st0" d="M117.4,71.7H45.2c-1.5,0-2.7,1.2-2.7,2.7s1.2,2.7,2.7,2.7h72.2c1.5,0,2.7-1.2,2.7-2.7s-1.2-2.7-2.7-2.7Z"/>
  <path class="st0" d="M74.6,59.7h-29.4c-1.5,0-2.7,1.2-2.7,2.7s1.2,2.7,2.7,2.7h29.4c1.5,0,2.7-1.2,2.7-2.7s-1.2-2.7-2.7-2.7Z"/>
</svg>