<?xml version="1.0" encoding="UTF-8"?>
<svg id="Camada_1" xmlns="http://www.w3.org/2000/svg" version="1.1" viewBox="0 0 176 171">
  <!-- Generator: Adobe Illustrator 29.8.2, SVG Export Plug-In . SVG Version: 2.1.1 Build 3)  -->
  <defs>
    <style>
      .st0 {
        fill: #fff;
      }
    </style>
  </defs>
  <path class="st0" d="M82.9,121.2h1.6v18h-18c-1.7,0-3,1.3-3,3s1.3,3,3,3h42c1.7,0,3-1.3,3-3s-1.3-3-3-3h-18v-18h1.6c18.9,0,34.3-15.4,34.3-34.3s-1.3-3-3-3-3,1.3-3,3c0,15.6-12.7,28.3-28.3,28.3h-9.3c-15.6,0-28.3-12.7-28.3-28.3s-1.3-3-3-3-3,1.3-3,3c0,18.9,15.4,34.3,34.3,34.3h0Z"/>
  <path class="st0" d="M82.9,109.2h9.3c12.3,0,22.3-10,22.3-22.3v-39.3c0-12.3-10-22.3-22.3-22.3h-9.3c-12.3,0-22.3,10-22.3,22.3v39.3c0,12.3,10,22.3,22.3,22.3ZM66.6,47.5c0-9,7.3-16.3,16.3-16.3h9.3c9,0,16.3,7.3,16.3,16.3v1.6h-12c-1.7,0-3,1.3-3,3s1.3,3,3,3h12v12h-12c-1.7,0-3,1.3-3,3s1.3,3,3,3h12v12h-12c-1.7,0-3,1.3-3,3s1.3,3,3,3h11.3c-1.9,6.9-8.2,12-15.7,12h-9.3c-7.5,0-13.8-5.1-15.7-12h11.3c1.7,0,3-1.3,3-3s-1.3-3-3-3h-12v-12h12c1.7,0,3-1.3,3-3s-1.3-3-3-3h-12v-12h12c1.7,0,3-1.3,3-3s-1.3-3-3-3h-12v-1.6h0Z"/>
</svg>