<?xml version="1.0" encoding="UTF-8"?>
<svg id="Camada_1" xmlns="http://www.w3.org/2000/svg" version="1.1" viewBox="0 0 176 171">
  <!-- Generator: Adobe Illustrator 29.8.2, SVG Export Plug-In . SVG Version: 2.1.1 Build 3)  -->
  <defs>
    <style>
      .st0 {
        fill: #fff;
      }
    </style>
  </defs>
  <path class="st0" d="M133.5,32.2h-52.8c-8.1,0-14.7,6.6-14.7,14.7v2.9h-2.9c-8.1,0-14.7,6.6-14.7,14.7v2.9h-2.9c-8.1,0-14.7,6.6-14.7,14.7v46.9c0,8.1,6.6,14.7,14.7,14.7h52.8c8.1,0,14.7-6.6,14.7-14.7v-2.9h2.9c8.1,0,14.7-6.6,14.7-14.7v-2.9h2.9c8.1,0,14.7-6.6,14.7-14.7v-46.9c0-8.1-6.6-14.7-14.7-14.7h0ZM107.1,129c0,4.8-3.9,8.8-8.8,8.8h-52.8c-4.8,0-8.8-3.9-8.8-8.8v-46.9c0-4.8,3.9-8.8,8.8-8.8h52.8c4.8,0,8.8,3.9,8.8,8.8,0,0,0,46.9,0,46.9ZM124.7,111.4c0,4.8-3.9,8.8-8.8,8.8h-2.9v-38.1c0-8.1-6.6-14.7-14.7-14.7h-44v-2.9c0-4.8,3.9-8.8,8.8-8.8h52.8c4.8,0,8.8,3.9,8.8,8.8v46.9h0ZM142.3,93.8c0,4.8-3.9,8.8-8.8,8.8h-2.9v-38.1c0-8.1-6.6-14.7-14.7-14.7h-44v-2.9c0-4.8,3.9-8.8,8.8-8.8h52.8c4.8,0,8.8,3.9,8.8,8.8,0,0,0,46.9,0,46.9Z"/>
  <path class="st0" d="M91.2,120.6h-38.6c-4.6,0-8.3-3.7-8.3-8.3v-22.2c0-4.6,3.7-8.3,8.3-8.3h38.6c4.6,0,8.3,3.7,8.3,8.3v22.2c0,4.6-3.7,8.3-8.3,8.3ZM52.6,86.9c-1.7,0-3.1,1.4-3.1,3.1v22.2c0,1.7,1.4,3.1,3.1,3.1h38.6c1.7,0,3.1-1.4,3.1-3.1v-22.2c0-1.7-1.4-3.1-3.1-3.1,0,0-38.6,0-38.6,0Z"/>
</svg>