<?xml version="1.0" encoding="UTF-8"?>
<svg id="Camada_1" xmlns="http://www.w3.org/2000/svg" version="1.1" viewBox="0 0 176 171">
  <!-- Generator: Adobe Illustrator 29.8.2, SVG Export Plug-In . SVG Version: 2.1.1 Build 3)  -->
  <defs>
    <style>
      .st0 {
        fill: #fff;
      }
    </style>
  </defs>
  <path class="st0" d="M139.6,59.1c-.7-1.8-1.7-3.5-2.9-5l-13.6-17c-3.7-4.7-9.3-7.4-15.2-7.4h-42.2c-10.8,0-19.5,8.8-19.5,19.5v30.7h-2.8c-4.6,0-8.4,3.8-8.4,8.4v27.9c0,4.6,3.8,8.4,8.4,8.4h3.1c1.4,9.4,9.4,16.7,19.2,16.7h55.8c10.8,0,19.5-8.8,19.5-19.5v-55.5c0-2.3-.4-4.6-1.2-6.8,0-.1,0-.2-.2-.4h0ZM132.4,57.6s0,0,0,0h-10.9c-1.5,0-2.8-1.3-2.8-2.8v-14.3s0,0,0,0l13.6,17h0ZM40.6,116.2v-27.9c0-1.5,1.3-2.8,2.8-2.8h50.2c1.5,0,2.8,1.3,2.8,2.8v27.9c0,1.5-1.3,2.8-2.8,2.8h-50.2c-1.5,0-2.8-1.3-2.8-2.8h0ZM135.4,121.8c0,7.7-6.3,14-14,14h-55.8c-6.7,0-12.4-4.8-13.7-11.2h41.6c4.6,0,8.4-3.8,8.4-8.4v-27.9c0-4.6-3.8-8.4-8.4-8.4h-41.8v-30.7c0-7.7,6.3-14,14-14h42.2c1.8,0,3.6.4,5.2,1.1v18.4c0,4.6,3.8,8.4,8.4,8.4h13.6c.2,1,.4,2,.4,3.1v55.5h0Z"/>
  <path class="st0" d="M93.6,52h-27.9c-1.5,0-2.8,1.2-2.8,2.8s1.2,2.8,2.8,2.8h27.9c1.5,0,2.8-1.2,2.8-2.8s-1.2-2.8-2.8-2.8Z"/>
  <path class="st0" d="M93.6,63.2h-27.9c-1.5,0-2.8,1.2-2.8,2.8s1.2,2.8,2.8,2.8h27.9c1.5,0,2.8-1.2,2.8-2.8s-1.2-2.8-2.8-2.8Z"/>
</svg>