<?xml version="1.0" encoding="UTF-8"?>
<svg id="Camada_1" data-name="Camada 1" xmlns="http://www.w3.org/2000/svg" viewBox="0 0 176 171">
  <defs>
    <style>
      .cls-1 {
        fill: #fff;
      }
    </style>
  </defs>
  <path class="cls-1" d="M156.1,70.98h-13.62v-34.05c0-1.88-1.52-3.4-3.4-3.4H19.9c-1.88,0-3.4,1.52-3.4,3.4v93.63c0,6.57,5.35,11.92,11.92,11.92h119.17c6.57,0,11.92-5.35,11.92-11.92v-56.18c0-1.88-1.52-3.4-3.4-3.4ZM23.31,130.56V40.33h112.36v90.23c0,1.83.45,3.55,1.2,5.11H28.42c-2.82,0-5.11-2.29-5.11-5.11ZM152.69,130.56c0,2.82-2.29,5.11-5.11,5.11s-5.11-2.29-5.11-5.11v-52.77h10.21v52.77Z"/>
  <path class="cls-1" d="M125.45,81.19H33.52c-1.88,0-3.4,1.52-3.4,3.4v13.62c0,1.88,1.52,3.4,3.4,3.4h91.93c1.88,0,3.4-1.52,3.4-3.4v-13.62c0-1.88-1.52-3.4-3.4-3.4ZM122.05,94.81H36.93v-6.81h85.12v6.81Z"/>
  <path class="cls-1" d="M125.45,108.43H33.52c-1.88,0-3.4,1.52-3.4,3.4s1.52,3.4,3.4,3.4h91.93c1.88,0,3.4-1.52,3.4-3.4s-1.52-3.4-3.4-3.4Z"/>
  <path class="cls-1" d="M70.98,122.05h-37.45c-1.88,0-3.4,1.52-3.4,3.4s1.52,3.4,3.4,3.4h37.45c1.88,0,3.4-1.52,3.4-3.4s-1.52-3.4-3.4-3.4Z"/>
  <path class="cls-1" d="M125.45,67.29H33.52c-1.88,0-3.4,1.52-3.4,3.4s1.52,3.4,3.4,3.4h91.93c1.88,0,3.4-1.52,3.4-3.4s-1.52-3.4-3.4-3.4Z"/>
  <path class="cls-1" d="M70.98,52.01h-37.45c-1.88,0-3.4,1.52-3.4,3.4s1.52,3.4,3.4,3.4h37.45c1.88,0,3.4-1.52,3.4-3.4s-1.52-3.4-3.4-3.4Z"/>
</svg>