<?xml version="1.0" encoding="UTF-8"?>
<svg id="Camada_1" data-name="Camada 1" xmlns="http://www.w3.org/2000/svg" viewBox="0 0 176 171">
  <defs>
    <style>
      .cls-1 {
        fill: #fff;
      }
    </style>
  </defs>
  <path class="cls-1" d="M148.7,13h-70.98c-10.87,0-19.72,8.84-19.72,19.72v3.94h-3.94c-10.87,0-19.72,8.84-19.72,19.72v3.94h-3.94c-10.87,0-19.72,8.84-19.72,19.72v63.09c0,10.87,8.85,19.72,19.72,19.72h70.98c10.87,0,19.72-8.84,19.72-19.72v-3.94h3.94c10.87,0,19.72-8.84,19.72-19.72v-3.94h3.94c10.87,0,19.72-8.84,19.72-19.72v-63.09c0-10.87-8.85-19.72-19.72-19.72ZM113.21,143.13c0,6.52-5.31,11.83-11.83,11.83H30.4c-6.52,0-11.83-5.31-11.83-11.83v-63.09c0-6.52,5.31-11.83,11.83-11.83h70.98c6.52,0,11.83,5.31,11.83,11.83v63.09ZM136.87,119.47c0,6.52-5.31,11.83-11.83,11.83h-3.94v-51.26c0-10.87-8.85-19.72-19.72-19.72h-59.15v-3.94c0-6.52,5.31-11.83,11.83-11.83h70.98c6.52,0,11.83,5.31,11.83,11.83v63.09ZM160.53,95.81c0,6.52-5.31,11.83-11.83,11.83h-3.94v-51.26c0-10.87-8.85-19.72-19.72-19.72h-59.15v-3.94c0-6.52,5.31-11.83,11.83-11.83h70.98c6.52,0,11.83,5.31,11.83,11.83v63.09Z"/>
  <path class="cls-1" d="M91.81,131.81h-51.95c-6.16,0-11.18-5.01-11.18-11.18v-29.86c0-6.16,5.01-11.18,11.18-11.18h51.95c6.16,0,11.18,5.01,11.18,11.18v29.86c0,6.16-5.01,11.18-11.18,11.18ZM39.86,86.59c-2.3,0-4.18,1.87-4.18,4.18v29.86c0,2.3,1.87,4.18,4.18,4.18h51.95c2.3,0,4.18-1.87,4.18-4.18v-29.86c0-2.3-1.87-4.18-4.18-4.18h-51.95Z"/>
</svg>