<?xml version="1.0" encoding="UTF-8"?>
<svg id="Camada_1" data-name="Camada 1" xmlns="http://www.w3.org/2000/svg" viewBox="0 0 176 171">
  <defs>
    <style>
      .cls-1 {
        fill: #fff;
      }
    </style>
  </defs>
  <path class="cls-1" d="M157.15,52.78c-.96-2.44-2.24-4.76-3.89-6.81l-18.35-22.94c-5-6.31-12.49-9.93-20.56-9.93h-56.9c-14.52,0-26.34,11.82-26.34,26.34v41.39h-3.76c-6.22,0-11.29,5.06-11.29,11.29v37.63c0,6.22,5.06,11.29,11.29,11.29h4.14c1.85,12.73,12.73,22.58,25.96,22.58h75.26c14.52,0,26.34-11.82,26.34-26.34V62.41c0-3.15-.6-6.23-1.68-9.14-.06-.17-.13-.33-.22-.49h0ZM147.4,50.7s.02.03.03.04h-14.71c-2.08,0-3.76-1.69-3.76-3.76v-19.32s.05.04.07.07l18.38,22.98ZM23.57,129.77v-37.63c0-2.07,1.69-3.76,3.76-3.76h67.74c2.08,0,3.76,1.69,3.76,3.76v37.63c0,2.07-1.69,3.76-3.76,3.76H27.34c-2.08,0-3.76-1.69-3.76-3.76ZM151.52,137.3c0,10.38-8.44,18.82-18.82,18.82H57.44c-9.08,0-16.69-6.47-18.44-15.05h56.07c6.22,0,11.29-5.06,11.29-11.29v-37.63c0-6.22-5.06-11.29-11.29-11.29h-56.45v-41.39c0-10.38,8.44-18.82,18.82-18.82h56.9c2.48,0,4.85.57,7.07,1.48v24.86c0,6.22,5.06,11.29,11.29,11.29h18.29c.31,1.35.52,2.73.52,4.14v74.89h0Z"/>
  <path class="cls-1" d="M95.07,43.22h-37.63c-2.08,0-3.76,1.68-3.76,3.76s1.68,3.76,3.76,3.76h37.63c2.08,0,3.76-1.68,3.76-3.76s-1.68-3.76-3.76-3.76Z"/>
  <path class="cls-1" d="M95.07,58.27h-37.63c-2.08,0-3.76,1.68-3.76,3.76s1.68,3.76,3.76,3.76h37.63c2.08,0,3.76-1.68,3.76-3.76s-1.68-3.76-3.76-3.76Z"/>
</svg>