<?xml version="1.0" encoding="UTF-8"?>
<svg id="Camada_1" data-name="Camada 1" xmlns="http://www.w3.org/2000/svg" viewBox="0 0 20 20">
  <defs>
    <style>
      .cls-1 {
        fill: none;
        stroke: #ededed;
        stroke-miterlimit: 10;
        stroke-width: .1px;
      }

      .cls-2 {
        fill: #326bd7;
      }

      .cls-3 {
        fill: #ededed;
      }
    </style>
  </defs>
  <rect class="cls-2" x=".22" y=".31" width="19.56" height="19.38" rx="9.69" ry="9.69"/>
  <g>
    <polygon class="cls-1" points="5.97 13.48 8.12 13.48 8.12 9 9.71 9 9.71 7.23 4.4 7.23 4.4 9 5.97 9 5.97 13.48"/>
    <path class="cls-1" d="M13.55,9.14c.18,0,.35.05.49.14.14.09.25.23.33.4l.04.08h2.23l-.03-.17c-.09-.49-.27-.93-.53-1.3-.27-.37-.62-.66-1.05-.87-.42-.2-.91-.3-1.45-.3-.62,0-1.17.14-1.64.4-.47.27-.83.65-1.08,1.13-.25.48-.37,1.03-.37,1.64s.13,1.16.37,1.64c.25.48.61.86,1.08,1.13.46.27,1.01.4,1.64.4.54,0,1.02-.1,1.45-.3.43-.2.78-.49,1.05-.87.27-.37.45-.81.53-1.3l.03-.17h-2.23l-.04.08c-.08.17-.19.3-.33.4h0c-.14.1-.31.14-.49.14-.27,0-.48-.1-.63-.3-.16-.21-.24-.5-.24-.86s.08-.66.24-.86c.16-.2.36-.3.63-.3Z"/>
  </g>
  <g>
    <polygon class="cls-3" points="5.53 13.17 7.69 13.17 7.69 8.69 9.27 8.69 9.27 6.93 3.97 6.93 3.97 8.69 5.53 8.69 5.53 13.17"/>
    <path class="cls-3" d="M13.12,8.84c.18,0,.35.05.49.14.14.09.25.23.33.4l.04.08h2.23l-.03-.17c-.09-.49-.27-.93-.53-1.3-.27-.37-.62-.66-1.05-.87-.42-.2-.91-.3-1.45-.3-.62,0-1.17.14-1.64.4-.47.27-.83.65-1.08,1.13-.25.48-.37,1.03-.37,1.64s.13,1.16.37,1.64c.25.48.61.86,1.08,1.13.46.27,1.01.4,1.64.4.54,0,1.02-.1,1.45-.3.43-.2.78-.49,1.05-.87.27-.37.45-.81.53-1.3l.03-.17h-2.23l-.04.08c-.08.17-.19.3-.33.4h0c-.14.1-.31.14-.49.14-.27,0-.48-.1-.63-.3-.16-.21-.24-.5-.24-.86s.08-.66.24-.86c.16-.2.36-.3.63-.3Z"/>
  </g>
</svg>