<?xml version="1.0" encoding="UTF-8"?>
<svg id="Camada_1" xmlns="http://www.w3.org/2000/svg" version="1.1" viewBox="0 0 170 87">
  <!-- Generator: Adobe Illustrator 29.8.2, SVG Export Plug-In . SVG Version: 2.1.1 Build 3)  -->
  <defs>
    <style>
      .st0 {
        fill: #326bd7;
      }
    </style>
  </defs>
  <g>
    <path class="st0" d="M44.5,40.4h-9c-.2,0-.3.1-.3.3v17c0,.2.1.3.3.3h1.3c.2,0,.3-.1.3-.3v-7.7h5c.2,0,.3-.1.3-.3v-1c0-.2-.1-.3-.3-.3h-5s0-6.1,0-6.1h7.4c.2,0,.3-.1.3-.3v-1c0-.2-.1-.3-.3-.3Z"/>
    <path class="st0" d="M46,40.4h1.3c.2,0,.3.2.3.3v17c0,.2-.2.3-.3.3h-1.3c-.2,0-.3-.2-.3-.3v-17c0-.2.2-.3.3-.3Z"/>
    <path class="st0" d="M57.6,41c-.8-.4-2-.6-3-.6s-2.1.2-2.9.6c-.8.4-1.4,1-1.8,1.8-.4.8-.6,1.7-.6,2.7v7.5c0,1,.2,1.9.6,2.7.4.8,1,1.4,1.8,1.8.8.4,1.8.6,2.9.6s2.2-.2,3-.6c.8-.4,1.4-1,1.8-1.8.4-.8.7-1.7.7-2.7v-7.5c0-1-.2-1.9-.7-2.7-.4-.8-1-1.4-1.8-1.8ZM58.2,45.4v7.6c0,1-.3,1.8-.9,2.4-.6.6-1.7.9-2.7.9s-1.9-.3-2.5-.9c-.6-.6-.9-1.4-.9-2.4v-7.6c0-1,.3-1.8.9-2.4.6-.6,1.5-.9,2.5-.9s2.1.3,2.7.9c.6.6.9,1.4.9,2.4Z"/>
    <path class="st0" d="M67,40.3c-1.5,0-2.9.5-3.8,1.3-.9.9-1.4,2.1-1.4,3.6v7.8c0,1.5.5,2.7,1.4,3.6.9.9,2.6,1.4,4.1,1.4s2.8-.5,3.7-1.3c.9-.9,1.4-2.1,1.4-3.6v-.2c0-.2-.1-.3-.3-.3h-1.3c-.2,0-.3,0-.3.2v.3c0,.9-.3,1.7-.9,2.3-.6.6-1.4.9-2.3.9s-2.2-.3-2.7-.9c-.6-.6-.9-1.3-.9-2.3v-8.1c0-.9.3-1.7.9-2.3.6-.6,1.5-.9,2.4-.9s2,.3,2.6.9c.6.6.9,1.3.9,2.3v.3c0,.2.1.3.3.3h1.3c.2,0,.3-.2.3-.4v-.2c0-1.5-.5-2.7-1.4-3.6-.9-.9-2.5-1.3-4-1.3Z"/>
    <path class="st0" d="M81.7,49.9h0c1-.3,1.7-.8,2.3-1.6s.8-1.9.8-3.1-.2-1.8-.6-2.5c-.4-.7-.9-1.3-1.6-1.7-.7-.4-1.5-.6-2.3-.6h-5.9c-.2,0-.3.1-.3.3v17c0,.2.1.3.3.3h1.3c.2,0,.3-.1.3-.3v-7.6h3.8s3.1,7.7,3.1,7.7c0,.2.2.3.4.3h1.3c.2,0,.3-.1.3-.3h0c0-.1-3.2-7.8-3.2-7.8ZM82.8,45.2c0,.9-.3,1.8-.8,2.4-.5.6-1.2.9-2,.9h-4v-6.4h0s4,0,4,0c.8,0,1.5.3,2,.9.5.6.8,1.3.8,2.3Z"/>
    <path class="st0" d="M96.8,40.4h-1.3c-.2,0-.3.1-.3.3v12.2c0,1-.3,1.9-.9,2.5-.6.6-1.6.9-2.6.9s-2-.3-2.6-.9c-.6-.6-.9-1.5-.9-2.5v-12.2c0-.2-.1-.3-.3-.3h-1.3c-.2,0-.3.1-.3.3v12.1c0,1,.2,2,.6,2.7.4.8,1,1.4,1.8,1.8.8.4,1.9.7,2.9.7s2.2-.2,2.9-.7c.8-.4,1.4-1.1,1.8-1.8.4-.8.6-1.7.6-2.7v-12.1c0-.2-.1-.3-.3-.3Z"/>
    <path class="st0" d="M107.7,41.9v-1.2c0-.2-.1-.3-.3-.3h-9.1c-.2,0-.3.1-.3.3v1c0,.2.1.3.3.3h7.2s-7.5,13.9-7.5,13.9c0,.1,0,.4,0,.5v1.2c0,.2.1.3.3.3h9.1c.2,0,.3-.1.3-.3v-1c0-.2-.1-.3-.3-.3h-7.2s7.5-14.1,7.5-14.1c0-.1,0-.3,0-.4Z"/>
  </g>
  <path class="st0" d="M30.8,55.7s0,0,0,0h0s0,0,0,0l-.5-.5v-12.2l.4-.4v-1.5c0-.2,0-.3,0-.4,0-.1-.2-.2-.4-.2h-.8v-4.7c0-.2,0-.3-.2-.4h0s0,0,0,0c.3-.5.5-1,.5-1.6,0-1.3-.9-2.5-2.1-2.9h0s-.2-1.4-.2-1.4c0-.4-.4-.5-.7-.6-.3,0-.6.2-.6.5l-.3,1.4h0c-1.3.4-2.2,1.6-2.2,3s.2,1.1.4,1.6h0c0,0,0,0,0,0-.1,0-.2.2-.2.4v3.7h-1v-2.4l.3-.3v-1.2c0-.3-.2-.5-.5-.5h-1.4c-.1,0-.2,0-.3,0l-.3.3h-.4v-.4c.2-.1.1-.3,0-.4,0-.1-.2-.2-.4-.2h-4.9c-.2,0-.3,0-.4.2-.1.1-.1.3,0,.5v.3c0,0-.4,0-.4,0l-.2-.3c0,0-.2-.1-.3-.1h-1.4c-.3,0-.5.2-.5.5v1.2l.3.3v2.4h-1v-3.7c0-.2,0-.3-.2-.4h0s0,0,0,0c.3-.5.5-1,.5-1.6,0-1.3-.9-2.5-2.1-2.9h0s-.2-1.4-.2-1.4c0-.4-.4-.6-.7-.6-.3,0-.6.2-.6.5l-.3,1.4h0c-1.3.4-2.1,1.6-2.1,3s.2,1.1.4,1.6h0c0,0,0,0,0,0-.1,0-.2.2-.2.4v4.7h-.7c-.2,0-.3,0-.4.2,0,.1,0,.2,0,.4v1.5l.4.4v12.2l-.5.5c0,0-.1.2-.1.3v1.7c0,.3.2.5.5.5h6.3l1-1.1h11.6l1.1,1.1h6.3c.3,0,.5-.2.5-.5v-1.5c0,0,0-.3,0-.3M29.5,56.7h-4.9l-1.1-1.1h-12.8l-1.1,1.1h-4.7v-.4l.6-.7v-13l-.4-.4v-.7h1.2v-5.2l.4-.4v-1c0,0-.1,0-.2-.1-.1-.1-.2-.2-.3-.4-.1-.2-.2-.5-.2-.8,0-.9.8-1.7,1.7-1.7s1.7.8,1.7,1.7-.1.7-.3,1c0,0,0,0,0,0,0,0,0,0,0,0,0,0,0,0,0,0,0,0,0,0-.1.1v1l.4.4v4.5h3.1l.8-.8v-3.3h2.7v-.9h2.7v.9h2.7s0,3.3,0,3.3l.8.8h3v-4.5l.4-.4v-1c0,0-.1-.1-.2-.2,0,0-.2-.2-.2-.3-.1-.2-.2-.5-.2-.8,0-.9.8-1.7,1.7-1.7s1.7.8,1.7,1.7-.1.7-.3,1c0,0,0,0,0,0,0,0,0,0,0,0,0,0,0,0,0,0,0,0,0,0-.1.1v1l.4.4v5.3h1.2v.7l-.4.4v12.9l.8.8v.2Z"/>
  <g>
    <line class="st0" x1="113.4" y1="40.4" x2="113.4" y2="58"/>
    <path class="st0" d="M113.4,58.3c-.2,0-.3-.1-.3-.3v-17.7c0-.2.1-.3.3-.3s.3.1.3.3v17.7c0,.2-.1.3-.3.3Z"/>
  </g>
  <g>
    <path class="st0" d="M125.3,57.1c-.6.6-1.5.9-2.5.9h-3.5c-.1,0-.2,0-.2-.2v-11.6c0-.1,0-.2.2-.2h3.4c1.1,0,2,.3,2.6.8.6.5.9,1.3.9,2.4s-.5,2.1-1.5,2.5c0,0,0,0,0,0,.5.3.9.6,1.2,1.1s.4,1.1.4,1.7c0,1-.3,1.9-.9,2.4ZM120.7,47.5v3.6s0,0,0,0h1.8c.6,0,1.1-.2,1.4-.5.3-.3.5-.8.5-1.3s-.2-1.1-.5-1.4c-.3-.3-.8-.5-1.4-.5h-1.8s0,0,0,0ZM124.1,56c.3-.4.5-.9.5-1.5s-.2-1.1-.5-1.5c-.3-.4-.8-.6-1.4-.6h-1.9s0,0,0,0v3.9s0,0,0,0h1.9c.6,0,1.1-.2,1.4-.5Z"/>
    <path class="st0" d="M132.6,49.4c0,0,.1.1,0,.2l-.3,1.3c0,.1,0,.1-.2.1-.2,0-.4,0-.6,0s-.3,0-.3,0c-.4,0-.8.2-1.1.6-.3.4-.4.8-.4,1.3v4.9c0,.1,0,.2-.2.2h-1.3c-.1,0-.2,0-.2-.2v-8.4c0-.1,0-.2.2-.2h1.3c.1,0,.2,0,.2.2v1.1s0,0,0,0,0,0,0,0c.4-.9,1-1.4,1.9-1.4s.6,0,.9.2Z"/>
    <path class="st0" d="M139.1,49.9c.6.5.9,1.2.9,2.1v5.8c0,.1,0,.2-.2.2h-1.3c-.1,0-.2,0-.2-.2v-.5s0,0,0,0c0,0,0,0,0,0-.5.5-1.2.8-2.1.8s-1.4-.2-1.9-.6c-.5-.4-.8-1.1-.8-2s.3-1.6.9-2.1c.6-.5,1.4-.7,2.5-.7h1.4s0,0,0,0v-.5c0-.5-.1-.9-.4-1.2s-.6-.4-1.1-.4-.7,0-.9.3c-.2.2-.4.4-.5.8,0,.1,0,.2-.2.2h-1.4c0,0,0,0-.1-.1,0,0,0,0,0-.1,0-.7.4-1.3,1-1.7.6-.4,1.3-.7,2.2-.7s1.7.3,2.3.8ZM137.8,56.3c.4-.3.6-.7.6-1.1v-1.1s0,0,0,0h-1.3c-.6,0-1,.1-1.3.4-.3.3-.5.6-.5,1.1s.1.7.4.9.6.3,1,.3.9-.1,1.3-.4Z"/>
    <path class="st0" d="M142.4,57.4c-.6-.4-.8-1-.8-1.7v-.2c0-.1,0-.2.2-.2h1.2c.1,0,.2,0,.2.2h0c0,.4.1.7.4.9.3.2.7.3,1.1.3s.8-.1,1-.3c.3-.2.4-.5.4-.8s0-.5-.2-.6-.3-.3-.6-.4c-.2,0-.5-.2-1-.4-.5-.2-1-.3-1.4-.5-.4-.2-.7-.5-.9-.8-.3-.3-.4-.8-.4-1.3,0-.8.3-1.4.8-1.8.5-.4,1.3-.7,2.2-.7s1.6.2,2.2.7c.6.5.8,1.1.8,1.8h0c0,.1,0,.2-.2.2h-1.2c-.1,0-.2,0-.2-.2h0c0-.4-.1-.7-.4-.9-.3-.2-.6-.3-1.1-.3s-.8.1-1,.3c-.3.2-.4.5-.4.8s0,.4.2.6c.1.2.3.3.6.4.2.1.5.2,1,.4.6.2,1,.4,1.4.6.4.2.7.4,1,.8.3.3.4.8.4,1.3,0,.8-.3,1.4-.8,1.8-.6.4-1.3.7-2.3.7s-1.7-.2-2.2-.6Z"/>
    <path class="st0" d="M149.2,48.1s0,0,0-.1l1-1.8c0,0,.1-.1.2-.1h1.1c0,0,.1,0,.1,0,0,0,0,0,0,.1l-1.2,1.9c0,0-.1.1-.2.1h-.9c0,0-.1,0-.1,0ZM149.2,57.8v-8.4c0-.1,0-.2.2-.2h1.3c.1,0,.2,0,.2.2v8.4c0,.1,0,.2-.2.2h-1.3c-.1,0-.2,0-.2-.2Z"/>
    <path class="st0" d="M152.7,57.8v-11.6c0-.1,0-.2.2-.2h1.3c.1,0,.2,0,.2.2v11.6c0,.1,0,.2-.2.2h-1.3c-.1,0-.2,0-.2-.2Z"/>
    <path class="st0" d="M156.6,47.6c-.2-.2-.3-.5-.3-.8s.1-.6.3-.8c.2-.2.5-.3.8-.3s.6.1.8.3.3.5.3.8-.1.6-.3.8-.5.3-.8.3-.6-.1-.8-.3ZM156.5,57.8v-8.4c0-.1,0-.2.2-.2h1.3c.1,0,.2,0,.2.2v8.4c0,.1,0,.2-.2.2h-1.3c-.1,0-.2,0-.2-.2Z"/>
    <path class="st0" d="M165.6,49.9c.6.5.9,1.2.9,2.1v5.8c0,.1,0,.2-.2.2h-1.3c-.1,0-.2,0-.2-.2v-.5s0,0,0,0,0,0,0,0c-.5.5-1.2.8-2.1.8s-1.4-.2-1.9-.6c-.5-.4-.8-1.1-.8-2s.3-1.6.9-2.1c.6-.5,1.4-.7,2.5-.7h1.4s0,0,0,0v-.5c0-.5-.1-.9-.4-1.2s-.6-.4-1.1-.4-.7,0-.9.3c-.2.2-.4.4-.5.8,0,.1,0,.2-.2.2h-1.4c0,0,0,0-.1-.1,0,0,0,0,0-.1,0-.7.4-1.3,1-1.7.6-.4,1.3-.7,2.2-.7s1.7.3,2.3.8ZM164.3,56.3c.4-.3.6-.7.6-1.1v-1.1s0,0,0,0h-1.3c-.6,0-1,.1-1.3.4-.3.3-.5.6-.5,1.1s.1.7.4.9c.2.2.6.3,1,.3s.9-.1,1.3-.4Z"/>
  </g>
</svg>