<?xml version="1.0" encoding="UTF-8"?>
<svg id="Camada_1" xmlns="http://www.w3.org/2000/svg" version="1.1" viewBox="0 0 170 87">
  <!-- Generator: Adobe Illustrator 29.8.2, SVG Export Plug-In . SVG Version: 2.1.1 Build 3)  -->
  <defs>
    <style>
      .st0, .st1 {
        fill: #326bd7;
      }

      .st1 {
        fill-rule: evenodd;
      }
    </style>
  </defs>
  <path class="st0" d="M15.3,23.4c.3.4.5.9.5,1.5,0,.9-.4,1.5-1.1,2-.7.5-1.7.7-3.1.7h-5.5v-9.7h5.2c1.3,0,2.3.2,2.9.7.7.5,1,1.1,1,1.8s-.1.9-.3,1.2c-.2.4-.6.7-1,.9.6.2,1,.5,1.3.9ZM9.4,20.1v1.4h1.5c.7,0,1.1-.2,1.1-.7s-.4-.7-1.1-.7h-1.5ZM12.5,24.5c0-.5-.4-.8-1.1-.8h-2v1.5h2c.7,0,1.1-.3,1.1-.8Z"/>
  <path class="st0" d="M22.6,25.1h-.9v2.4h-3.3v-9.7h4.7c.9,0,1.7.1,2.3.4.7.3,1.2.7,1.5,1.3s.5,1.2.5,1.9-.2,1.3-.5,1.8c-.3.5-.8.9-1.4,1.2l2,3h-3.5l-1.7-2.4ZM23.9,20.6c-.2-.2-.6-.3-1-.3h-1.2v2.3h1.2c.4,0,.8,0,1-.3.2-.2.3-.5.3-.8s-.1-.6-.3-.8Z"/>
  <path class="st0" d="M36.9,25.8h-3.7l-.7,1.7h-3.3l4.2-9.7h3.2l4.2,9.7h-3.4l-.7-1.7ZM36,23.5l-.9-2.4-.9,2.4h1.9Z"/>
  <path class="st0" d="M44.3,27.5c-.8-.2-1.4-.4-1.9-.7l1.1-2.4c.5.3,1,.5,1.6.6.6.2,1.1.2,1.7.2s.8,0,1-.1c.2,0,.3-.2.3-.4s-.1-.4-.4-.5c-.3-.1-.7-.2-1.3-.3-.7-.2-1.4-.3-1.9-.5-.5-.2-.9-.5-1.3-.9-.4-.4-.6-1-.6-1.7s.2-1.2.5-1.7c.3-.5.9-.9,1.5-1.2.7-.3,1.5-.4,2.5-.4s1.3,0,2,.2c.6.1,1.2.4,1.7.6l-1,2.4c-1-.5-1.9-.7-2.7-.7s-1.3.2-1.3.6.1.3.4.4c.2,0,.7.2,1.2.3.7.1,1.4.3,1.9.5.5.2,1,.5,1.3.9.4.4.6,1,.6,1.7s-.2,1.2-.5,1.7c-.3.5-.9.9-1.5,1.2-.7.3-1.5.4-2.5.4s-1.6,0-2.4-.3Z"/>
  <path class="st0" d="M53.7,17.8h3.3v9.7h-3.3v-9.7Z"/>
  <path class="st0" d="M60.1,17.8h3.3v7.2h4.4v2.5h-7.7v-9.7Z"/>
  <path class="st0" d="M84.9,23.4c.3.4.5.9.5,1.5,0,.9-.4,1.5-1.1,2-.7.5-1.7.7-3.1.7h-5.5v-9.7h5.2c1.3,0,2.3.2,2.9.7.7.5,1,1.1,1,1.8s-.1.9-.3,1.2c-.2.4-.6.7-1,.9.6.2,1,.5,1.3.9ZM79,20.1v1.4h1.5c.7,0,1.1-.2,1.1-.7s-.4-.7-1.1-.7h-1.5ZM82.1,24.5c0-.5-.4-.8-1.1-.8h-2v1.5h2c.7,0,1.1-.3,1.1-.8Z"/>
  <path class="st0" d="M96.2,25.1v2.5h-8.1v-9.7h7.9v2.5h-4.7v1.1h4.1v2.4h-4.1v1.3h4.9Z"/>
  <path class="st0" d="M107.6,27.5v-4.4s-2.1,3.6-2.1,3.6h-1.4l-2.1-3.4v4.3h-3v-9.7h2.7l3.2,5.2,3.1-5.2h2.7v9.7s-3,0-3,0Z"/>
  <path class="st0" d="M11.8,68.6v-2.9s-1.4,2.4-1.4,2.4h-.3l-1.4-2.4v2.9h-.5v-3.9h.5l1.6,2.8,1.6-2.8h.5v3.9s-.5,0-.5,0Z"/>
  <path class="st0" d="M17.2,67.6h-2.1l-.4,1h-.6l1.8-3.9h.6l1.8,3.9h-.6l-.4-1ZM17,67.1l-.8-1.9-.8,1.9h1.7Z"/>
  <path class="st0" d="M19.9,64.6h.6v3.9h-.6v-3.9Z"/>
  <path class="st0" d="M23,68.5c-.3,0-.5-.2-.6-.4l.2-.4c.1.1.3.2.6.3.2,0,.5.1.7.1s.6,0,.7-.2c.2-.1.2-.3.2-.4s0-.2-.1-.3-.2-.1-.3-.2c-.1,0-.3,0-.5-.2-.3,0-.5-.1-.7-.2-.2,0-.3-.2-.5-.3-.1-.1-.2-.3-.2-.6s0-.4.2-.6c.1-.2.3-.3.5-.4.2-.1.5-.2.8-.2s.5,0,.7,0,.4.1.6.3l-.2.5c-.2-.1-.3-.2-.5-.2-.2,0-.4,0-.6,0-.3,0-.6,0-.7.2s-.2.3-.2.5,0,.2.1.3c0,0,.2.2.3.2.1,0,.3,0,.5.1.3,0,.5.1.7.2.2,0,.3.2.5.3.1.1.2.3.2.6s0,.4-.2.6-.3.3-.5.4c-.2,0-.5.1-.8.1s-.6,0-.9-.1Z"/>
  <path class="st0" d="M30.3,68.5c-.3,0-.5-.2-.6-.4l.2-.4c.1.1.3.2.6.3.2,0,.5.1.7.1s.6,0,.7-.2c.2-.1.2-.3.2-.4s0-.2-.1-.3-.2-.1-.3-.2c-.1,0-.3,0-.5-.2-.3,0-.5-.1-.7-.2-.2,0-.3-.2-.5-.3-.1-.1-.2-.3-.2-.6s0-.4.2-.6c.1-.2.3-.3.5-.4.2-.1.5-.2.8-.2s.5,0,.7,0,.4.1.6.3l-.2.5c-.2-.1-.3-.2-.5-.2-.2,0-.4,0-.6,0-.3,0-.6,0-.7.2s-.2.3-.2.5,0,.2.1.3c0,0,.2.2.3.2.1,0,.3,0,.5.1.3,0,.5.1.7.2.2,0,.3.2.5.3.1.1.2.3.2.6s0,.4-.2.6-.3.3-.5.4c-.2,0-.5.1-.8.1s-.6,0-.9-.1Z"/>
  <path class="st0" d="M37.1,67.6h-2.1l-.4,1h-.6l1.8-3.9h.6l1.8,3.9h-.6l-.4-1ZM36.9,67.1l-.8-1.9-.8,1.9h1.7Z"/>
  <path class="st0" d="M40.3,68.2c-.3-.3-.4-.7-.4-1.3v-2.2h.6v2.2c0,.8.4,1.3,1.1,1.3s.6-.1.8-.3c.2-.2.3-.5.3-1v-2.2h.5v2.2c0,.6-.1,1-.4,1.3-.3.3-.7.4-1.2.4s-.9-.2-1.2-.5ZM41.8,63.6h.7l-.9.7h-.5l.8-.7Z"/>
  <path class="st0" d="M45.4,64.6h1.7c.4,0,.8,0,1.1.2.3.2.6.4.8.7.2.3.3.6.3,1s0,.7-.3,1c-.2.3-.4.5-.8.7-.3.2-.7.2-1.1.2h-1.7v-3.9ZM47.1,68.1c.3,0,.6,0,.8-.2s.4-.3.6-.5c.1-.2.2-.5.2-.8s0-.6-.2-.8-.3-.4-.6-.5c-.2-.1-.5-.2-.8-.2h-1.1v3h1.1Z"/>
  <path class="st0" d="M54.1,68.1v.5h-2.9v-3.9h2.8v.5h-2.2v1.2h2v.5h-2v1.3h2.3Z"/>
  <path class="st0" d="M61.5,65c.3.2.4.6.4,1s-.1.8-.4,1c-.3.2-.7.4-1.2.4h-1v1.2h-.6v-3.9h1.5c.5,0,.9.1,1.2.4ZM61.1,66.7c.2-.2.3-.4.3-.7s0-.5-.3-.7-.5-.2-.8-.2h-1v1.8h1c.4,0,.6,0,.8-.2Z"/>
  <path class="st0" d="M66.4,67.6h-2.1l-.4,1h-.6l1.8-3.9h.6l1.8,3.9h-.6l-.4-1ZM66.2,67.1l-.8-1.9-.8,1.9h1.7Z"/>
  <path class="st0" d="M71.8,68.6l-.8-1.2c-.1,0-.2,0-.2,0h-1v1.2h-.6v-3.9h1.5c.5,0,.9.1,1.2.4.3.2.4.6.4,1s0,.6-.2.8c-.1.2-.4.4-.6.5l.9,1.3h-.6ZM71.5,66.7c.2-.2.3-.4.3-.7s0-.5-.3-.7-.5-.2-.8-.2h-1v1.8h1c.4,0,.6,0,.8-.2Z"/>
  <path class="st0" d="M76.9,67.6h-2.1l-.4,1h-.6l1.8-3.9h.6l1.8,3.9h-.6l-.4-1ZM76.7,67.1l-.8-1.9-.8,1.9h1.7Z"/>
  <path class="st0" d="M86.3,68.9c-.1.1-.3.3-.4.3-.2,0-.4.1-.5.1s-.5,0-.7-.2c-.2-.1-.5-.3-.7-.6-.4,0-.7-.1-1-.3-.3-.2-.5-.4-.7-.7-.2-.3-.3-.6-.3-1s0-.7.3-1c.2-.3.4-.5.8-.7.3-.2.7-.3,1.1-.3s.7,0,1.1.3c.3.2.6.4.7.7s.3.7.3,1,0,.6-.2.9c-.1.3-.3.5-.5.7-.2.2-.5.3-.8.4.1.1.3.2.4.3.1,0,.2,0,.4,0,.3,0,.5-.1.7-.3l.3.3ZM82.7,67.4c.1.2.3.4.6.5s.5.2.8.2.5,0,.8-.2c.2-.1.4-.3.5-.5.1-.2.2-.5.2-.8s0-.5-.2-.8c-.1-.2-.3-.4-.5-.5-.2-.1-.5-.2-.8-.2s-.5,0-.8.2c-.2.1-.4.3-.6.5-.1.2-.2.5-.2.8s0,.5.2.8Z"/>
  <path class="st0" d="M88.5,68.2c-.3-.3-.4-.7-.4-1.3v-2.2h.6v2.2c0,.8.4,1.3,1.1,1.3s.6-.1.8-.3c.2-.2.3-.5.3-1v-2.2h.5v2.2c0,.6-.1,1-.4,1.3-.3.3-.7.4-1.2.4s-.9-.2-1.2-.5Z"/>
  <path class="st0" d="M96.5,68.1v.5h-2.9v-3.9h2.8v.5h-2.2v1.2h2v.5h-2v1.3h2.3Z"/>
  <path class="st0" d="M102.2,68.6v-2.9s-1.4,2.4-1.4,2.4h-.3l-1.4-2.4v2.9h-.5v-3.9h.5l1.6,2.8,1.6-2.8h.5v3.9s-.5,0-.5,0Z"/>
  <path class="st0" d="M111.3,68.6v-2.9s-1.4,2.4-1.4,2.4h-.3l-1.4-2.4v2.9h-.5v-3.9h.5l1.6,2.8,1.6-2.8h.5v3.9s-.5,0-.5,0Z"/>
  <path class="st0" d="M116.7,67.6h-2.1l-.4,1h-.6l1.8-3.9h.6l1.8,3.9h-.6l-.4-1ZM116.5,67.1l-.8-1.9-.8,1.9h1.7Z"/>
  <path class="st0" d="M119.4,64.6h.6v3.9h-.6v-3.9Z"/>
  <path class="st0" d="M122.5,68.5c-.3,0-.5-.2-.6-.4l.2-.4c.1.1.3.2.6.3.2,0,.5.1.7.1s.6,0,.7-.2c.2-.1.2-.3.2-.4s0-.2-.1-.3c0,0-.2-.1-.3-.2-.1,0-.3,0-.5-.2-.3,0-.5-.1-.7-.2-.2,0-.3-.2-.5-.3-.1-.1-.2-.3-.2-.6s0-.4.2-.6c.1-.2.3-.3.5-.4.2-.1.5-.2.8-.2s.5,0,.7,0,.4.1.6.3l-.2.5c-.2-.1-.3-.2-.5-.2-.2,0-.4,0-.6,0-.3,0-.6,0-.7.2s-.2.3-.2.5,0,.2.1.3c0,0,.2.2.3.2.1,0,.3,0,.5.1.3,0,.5.1.7.2.2,0,.3.2.5.3.1.1.2.3.2.6s0,.4-.2.6c-.1.2-.3.3-.5.4-.2,0-.5.1-.8.1s-.6,0-.9-.1Z"/>
  <path class="st0" d="M132.2,65c.3.2.4.6.4,1s-.1.8-.4,1c-.3.2-.7.4-1.2.4h-1v1.2h-.6v-3.9h1.5c.5,0,.9.1,1.2.4ZM131.8,66.7c.2-.2.3-.4.3-.7s0-.5-.3-.7-.5-.2-.8-.2h-1v1.8h1c.4,0,.6,0,.8-.2Z"/>
  <path class="st0" d="M137.3,68.6l-.8-1.2c-.1,0-.2,0-.2,0h-1v1.2h-.6v-3.9h1.5c.5,0,.9.1,1.2.4.3.2.4.6.4,1s0,.6-.2.8c-.1.2-.4.4-.6.5l.9,1.3h-.6ZM137,66.7c.2-.2.3-.4.3-.7s0-.5-.3-.7-.5-.2-.8-.2h-1v1.8h1c.4,0,.6,0,.8-.2Z"/>
  <path class="st0" d="M142.7,68.1v.5h-2.9v-3.9h2.8v.5h-2.2v1.2h2v.5h-2v1.3h2.3Z"/>
  <path class="st0" d="M145.5,68.4c-.3-.2-.6-.4-.7-.7-.2-.3-.3-.7-.3-1s0-.7.3-1,.4-.5.7-.7c.3-.2.7-.3,1.1-.3s.6,0,.8.2.5.3.7.5l-.4.4c-.3-.3-.7-.5-1.1-.5s-.6,0-.8.2c-.2.1-.4.3-.6.5-.1.2-.2.5-.2.8s0,.5.2.8c.1.2.3.4.6.5.2.1.5.2.8.2.4,0,.8-.2,1.1-.5l.4.4c-.2.2-.4.4-.7.5-.3.1-.5.2-.8.2s-.7,0-1.1-.3Z"/>
  <path class="st0" d="M150,64.6h.6v3.9h-.6v-3.9Z"/>
  <path class="st0" d="M153.1,68.5c-.3,0-.5-.2-.6-.4l.2-.4c.1.1.3.2.6.3.2,0,.5.1.7.1s.6,0,.7-.2c.2-.1.2-.3.2-.4s0-.2-.1-.3c0,0-.2-.1-.3-.2-.1,0-.3,0-.5-.2-.3,0-.5-.1-.7-.2-.2,0-.3-.2-.5-.3-.1-.1-.2-.3-.2-.6s0-.4.2-.6c.1-.2.3-.3.5-.4.2-.1.5-.2.8-.2s.5,0,.7,0,.4.1.6.3l-.2.5c-.2-.1-.3-.2-.5-.2-.2,0-.4,0-.6,0-.3,0-.6,0-.7.2s-.2.3-.2.5,0,.2.1.3c0,0,.2.2.3.2.1,0,.3,0,.5.1.3,0,.5.1.7.2.2,0,.3.2.5.3.1.1.2.3.2.6s0,.4-.2.6c-.1.2-.3.3-.5.4-.2,0-.5.1-.8.1s-.6,0-.9-.1Z"/>
  <path class="st0" d="M160,67.6h-2.1l-.4,1h-.6l1.8-3.9h.6l1.8,3.9h-.6l-.4-1ZM159.8,67.1l-.8-1.9-.8,1.9h1.7Z"/>
  <path class="st0" d="M118,50.8h0c-.7.9-1.5,1.7-2.4,2.3-1.6,1.1-3.5,1.7-5.7,1.8v-22.6c1.5,0,2.8.5,4.1,1.1,1.5.7,2.8,1.8,3.9,3h0c1.6,2,2.5,4.5,2.5,7.2s-.9,5.3-2.3,7.3Z"/>
  <rect class="st0" x="102.2" y="32.2" width="6.9" height="22.6"/>
  <path class="st0" d="M136.7,24.9h0c0,0,0,0,0,0h0s0,0,0,0l-18,11.2c1.6,2,2.6,4.6,2.6,7.4s-.9,5.5-2.4,7.5l17.8,11.1h0s0,0,0,0h0s0,0,0,0l29.9-18.6-29.9-18.6ZM136.6,56.6h-.2s-.3,0-.3,0c-7-.2-12.8-6-12.8-13.1s5.6-12.8,12.5-13.1h0s.5,0,.5,0h.3c7.1.2,12.8,6,12.8,13.1s-5.7,12.9-12.8,13.1Z"/>
  <path class="st0" d="M148.6,43.6c0,6.7-5.5,12.3-12.2,12.3h0c-6.7,0-12.2-5.5-12.2-12.3s5.5-12.3,12.2-12.3h0c6.7,0,12.2,5.5,12.2,12.3Z"/>
  <path class="st0" d="M68.4,43.5"/>
  <path class="st0" d="M79,43.5c0,6.4-4.4,11.7-10.6,11.8v-23.5c5.9.4,10.6,5.5,10.6,11.8Z"/>
  <polyline class="st0" points="67.6 31.7 67.6 55.3 60 55.3 60 31.7"/>
  <rect class="st0" x="49.9" y="31.7" width="7.8" height="23.6"/>
  <polygon class="st1" points="94.9 44.5 82.1 44.5 82.8 43 88.5 30.8 94.2 43 94.9 44.5"/>
  <polygon class="st1" points="99.9 55.3 77.1 55.3 81.9 45.3 95.1 45.3 99.9 55.3"/>
  <polygon class="st1" points="94.9 44.5 82.1 44.5 82.8 43 88.5 30.8 94.2 43 94.9 44.5"/>
  <rect class="st0" x="29.2" y="43.5" width="9.4" height="0"/>
  <path class="st1" d="M48.1,43.5v2.3c0,5.2-4.2,9.4-9.4,9.4s-9.4-4.2-9.4-9.4v-2.3h18.9Z"/>
  <rect class="st0" x="29.2" y="31.7" width="18.9" height="10.9"/>
  <rect class="st0" x="38.7" y="43.5" width="9.4" height="0"/>
  <path class="st0" d="M8,33.6c-.3.2-.5.4-.7.7-2.2,2.2-3.5,5.1-3.8,8,.3-2.9,1.5-5.8,3.8-8.1.2-.2.5-.5.7-.7Z"/>
  <path class="st0" d="M26.8,51.6c-.3.4-.7.8-1,1.2-4.6,4.6-11.8,5.1-16.9,1.3l10.3-10.3,7.7,7.7Z"/>
  <path class="st0" d="M26.5,35.1l-8.1,8.1-10.3,10.3c-.3-.2-.6-.5-.9-.8-2.2-2.3-3.5-5.1-3.8-8,0,0,0-.2,0-.3,0-.6,0-1.2,0-1.9,0,0,0-.2,0-.3.3-2.9,1.5-5.8,3.8-8,.2-.2.5-.5.7-.7,0,0,.1-.1.2-.2,0,0,.2-.1.2-.2,5.1-4,12.6-3.7,17.3,1.1.3.3.6.6.8.9Z"/>
  <path class="st0" d="M68.4,43.5"/>
  <path class="st0" d="M110.3,43.5"/>
  <path class="st0" d="M110.3,43.5"/>
</svg>