<?xml version="1.0" encoding="UTF-8"?>
<svg id="Camada_1" xmlns="http://www.w3.org/2000/svg" version="1.1" viewBox="0 0 170 87">
  <!-- Generator: Adobe Illustrator 29.8.2, SVG Export Plug-In . SVG Version: 2.1.1 Build 3)  -->
  <defs>
    <style>
      .st0 {
        fill: #326bd7;
      }
    </style>
  </defs>
  <g>
    <g>
      <path class="st0" d="M5.2,40.4c0-.8,0-1.7,0-2.2h0c-.2.7-.9,2.7-1.4,4.1h-.5c-.4-1.2-1.1-3.3-1.3-4.1h0c0,.5,0,1.5,0,2.3v1.8h-.6v-4.5h.9c.5,1.4,1.1,3.2,1.3,3.8h0c.1-.4.8-2.4,1.4-3.8h.9v4.5h-.6v-1.9Z"/>
      <path class="st0" d="M8.9,37.8v4.5h-.6v-4.5h.6Z"/>
      <path class="st0" d="M11.4,42.3v-4.5h.8c.6,1.1,2.1,3.3,2.3,3.8h0c0-.6,0-1.3,0-2v-1.8h.6v4.5h-.7c-.6-1-2.1-3.4-2.3-3.9h0c0,.5,0,1.3,0,2.1v1.8h-.6Z"/>
      <path class="st0" d="M18.2,37.8v4.5h-.6v-4.5h.6Z"/>
      <path class="st0" d="M20.9,41.1c.1.5.5.8,1.1.8s1-.3,1-.8-.2-.7-1.1-.9c-1.1-.3-1.4-.6-1.4-1.3s.5-1.2,1.5-1.2,1.5.6,1.6,1.2h-.6c0-.4-.3-.7-1-.7s-.9.2-.9.7.3.6,1,.8c1.3.3,1.5.8,1.5,1.4s-.5,1.3-1.6,1.3-1.6-.6-1.7-1.3h.6Z"/>
      <path class="st0" d="M26.7,38.4h-1.5v-.5h3.5v.5h-1.5v4h-.6v-4Z"/>
      <path class="st0" d="M33.6,40.2h-2.2v1.6h2.5v.5h-3v-4.5h2.9v.5h-2.3v1.4h2.2v.5ZM33.5,36.5l-1.1.9h-.6l1-.9h.7Z"/>
      <path class="st0" d="M36.5,40.4v2h-.6v-4.5h1.8c.9,0,1.4.5,1.4,1.2s-.3.9-.8,1.1c.4,0,.7.4.7,1.2v.2c0,.3,0,.7,0,.9h-.6c0-.2,0-.5,0-1h0c0-.7-.2-1-1-1h-.9ZM36.5,39.9h1c.7,0,1-.3,1-.8s-.3-.8-.9-.8h-1v1.5Z"/>
      <path class="st0" d="M42,37.8v4.5h-.6v-4.5h.6Z"/>
      <path class="st0" d="M48.4,40.1c0,1.2-.7,2.3-2.1,2.3s-2.1-1-2.1-2.3.8-2.3,2.1-2.3,2.1,1,2.1,2.3ZM44.8,40.1c0,1,.5,1.8,1.5,1.8s1.5-.9,1.5-1.8-.5-1.8-1.5-1.8-1.5.8-1.5,1.8Z"/>
      <path class="st0" d="M53.5,37.8h1.6c1.3,0,2.1.9,2.1,2.2s-.8,2.3-2.1,2.3h-1.6v-4.5ZM54.1,41.8h.9c1.1,0,1.6-.8,1.6-1.8s-.5-1.7-1.6-1.7h-.9v3.5Z"/>
      <path class="st0" d="M60.1,41l-.5,1.4h-.6l1.6-4.5h.7l1.7,4.5h-.6l-.5-1.4h-1.8ZM61.7,40.5c-.4-1.2-.7-1.8-.8-2.2h0c-.1.4-.4,1.1-.7,2.2h1.5Z"/>
    </g>
    <g>
      <path class="st0" d="M37.3,50.2c.1.5.4.7,1,.7s.8-.2.8-.6-.2-.6-1-.8c-1.2-.3-1.5-.7-1.5-1.3s.6-1.3,1.6-1.3,1.6.6,1.7,1.3h-.8c0-.3-.2-.6-.8-.6s-.7.2-.7.5.2.5,1,.7c1.3.3,1.6.8,1.6,1.4s-.6,1.3-1.7,1.3-1.7-.6-1.8-1.4h.8Z"/>
      <path class="st0" d="M42.9,50.3l-.4,1.1h-.8l1.5-4.5h1l1.6,4.5h-.9l-.4-1.1h-1.7ZM44.4,49.6c-.4-1-.6-1.6-.7-2h0c-.1.4-.3,1.1-.6,2h1.3Z"/>
      <path class="st0" d="M48.5,47v2.7c0,.9.5,1.2,1,1.2s1-.3,1-1.2v-2.7h.8v2.6c0,1.5-.9,1.9-1.8,1.9s-1.8-.4-1.8-1.9v-2.7h.8ZM50.9,45.7l-1.1.9h-.8l.9-.9h1Z"/>
      <path class="st0" d="M53.7,47h1.7c1.3,0,2.1.9,2.1,2.2s-.8,2.3-2.2,2.3h-1.7v-4.5ZM54.5,50.8h.8c.9,0,1.3-.7,1.3-1.6s-.4-1.5-1.3-1.5h-.8v3.1Z"/>
      <path class="st0" d="M62.7,49.5h-2.2v1.3h2.4v.7h-3.2v-4.5h3.1v.7h-2.3v1.1h2.2v.7Z"/>
    </g>
  </g>
  <g>
    <path class="st0" d="M86.5,62.3c0,.1,0,.3,0,.4,0,.1,0,.2,0,.3,0,.1-.1.2-.2.3,0,0-.2.1-.3.2-.1,0-.2,0-.4,0s-.3,0-.4,0c-.1,0-.2-.1-.3-.2,0,0-.1-.2-.2-.3,0-.1,0-.2,0-.3,0-.1,0-.2,0-.4v-1.7h-.5v1.7c0,.2,0,.4,0,.5,0,.2,0,.3.2.5,0,.1.2.3.3.4.1.1.3.2.4.3.2,0,.4,0,.6,0s.5,0,.7-.1c.2,0,.3-.2.5-.4s.2-.3.3-.5c0-.2,0-.4,0-.7v-1.7h-.5v1.7ZM91.1,63l-1.9-2.5h-.4v3.4h.5v-2.4l1.9,2.4h.5v-3.4h-.5v2.5ZM93.4,64h.5v-3.4h-.5v3.4ZM96.7,60.6l-1.3,3.4h.6l.4-.9h1.3l.4.9h.6l-1.3-3.4h-.5ZM96.4,62.6l.6-1.5.6,1.5h-1.1ZM96.4,60.1s0,0,0,0c0,0,0,0,0,0,0,0,0,0,.1,0s.1,0,.2,0c0,0,.1,0,.2.1,0,0,.2,0,.2,0s.2,0,.2,0c0,0,.1,0,.2-.1,0,0,0,0,0-.2,0,0,0-.1,0-.1,0,0,0,0,0,0h-.3s0,0,0,0,0,0,0,0c0,0,0,0,0,0,0,0,0,0,0,0,0,0,0,0-.1,0,0,0-.1,0-.2,0,0,0-.1,0-.2-.1,0,0-.1,0-.2,0s-.1,0-.2,0c0,0-.1,0-.1.1,0,0,0,0,0,.2,0,0,0,.1,0,.1,0,0,0,0,0,0h.3s0,0,0,0ZM102.4,61.1c-.1-.2-.3-.3-.5-.4-.2-.1-.4-.2-.7-.2s-.4,0-.7.1c-.2,0-.4.2-.5.4-.1.2-.3.3-.3.6,0,.2-.1.4-.1.7s0,.3,0,.5c0,.2.1.3.2.5,0,.1.2.3.3.4.1.1.3.2.5.3s.4,0,.5,0,.4,0,.7-.1c.2,0,.4-.2.5-.4.1-.2.3-.3.3-.6,0-.2.1-.4.1-.7s0-.4-.1-.6c0-.2-.2-.4-.3-.6ZM102.2,62.7c0,.1-.1.3-.2.4,0,.1-.2.2-.3.3-.1,0-.3.1-.5.1s-.4,0-.6-.2c-.2-.1-.3-.3-.4-.5,0-.2-.1-.4-.1-.6s0-.3,0-.5c0-.1.1-.3.2-.4,0-.1.2-.2.3-.3s.3-.1.5-.1.3,0,.4.1c.1,0,.3.2.3.3,0,.1.2.2.2.4,0,.2,0,.3,0,.5s0,.3,0,.5ZM107,62.5h1.5v-.4h-1.5v-1h1.8v-.5h-2.3v3.4h2.3v-.5h-1.8v-1ZM114.9,62.3c.1-.2.2-.4.2-.6s0-.3,0-.4c0-.1-.1-.3-.2-.4,0-.1-.2-.2-.3-.3-.1,0-.3,0-.4,0h-1.5v3.4h.5v-1.2h.8l.7,1.2h.6l-.8-1.3c.2,0,.4-.2.5-.4ZM114,62.3h-.9v-1.3h.9c.1,0,.3,0,.4.2.1.1.2.3.2.4s0,.3-.1.5c0,.1-.2.2-.4.2ZM117.2,62.5h1.5v-.4h-1.5v-1h1.8v-.5h-2.3v3.4h2.3v-.5h-1.8v-1ZM122.6,63.3c-.1,0-.2.1-.3.2-.1,0-.2,0-.3,0-.2,0-.4,0-.6-.2-.2-.1-.3-.3-.4-.5s-.1-.4-.1-.6,0-.2,0-.4c0-.1,0-.2.1-.3s.1-.2.2-.3c0,0,.2-.1.3-.2.1,0,.2,0,.4,0s.2,0,.3,0c0,0,.2,0,.2,0,0,0,.2,0,.2.2,0,0,.1.2.2.3l.4-.3c-.1-.2-.3-.4-.5-.5-.2-.1-.5-.2-.8-.2s-.4,0-.6,0c-.2,0-.3.2-.5.3-.1.1-.2.2-.3.4,0,.1-.2.3-.2.5,0,.2,0,.3,0,.5s0,.4.1.6c0,.2.2.4.3.6.1.2.3.3.5.4.2.1.4.2.7.2s.4,0,.5,0c.2,0,.3-.2.5-.3.2-.1.3-.3.3-.4l-.4-.3c0,.1-.1.2-.2.3ZM127.3,61.1c-.1-.2-.3-.3-.5-.4-.2-.1-.4-.2-.7-.2s-.4,0-.7.1c-.2,0-.4.2-.5.4-.1.2-.3.3-.3.6,0,.2-.1.4-.1.7s0,.3,0,.5c0,.2.1.3.2.5,0,.1.2.3.3.4.1.1.3.2.5.3s.4,0,.5,0,.4,0,.7-.1c.2,0,.4-.2.5-.4.1-.2.3-.3.3-.6,0-.2.1-.4.1-.7s0-.4-.1-.6c0-.2-.2-.4-.3-.6ZM127.1,62.7c0,.1-.1.3-.2.4,0,.1-.2.2-.3.3-.1,0-.3.1-.5.1s-.4,0-.6-.2c-.2-.1-.3-.3-.4-.5,0-.2-.1-.4-.1-.6s0-.3,0-.5c0-.1.1-.3.2-.4,0-.1.2-.2.3-.3s.3-.1.5-.1.3,0,.4.1c.1,0,.3.2.3.3,0,.1.2.2.2.4,0,.2,0,.3,0,.5s0,.3,0,.5ZM131.6,63l-1.9-2.5h-.4v3.4h.5v-2.4l1.9,2.4h.5v-3.4h-.5v2.5ZM136.1,62.5c0,0-.1-.1-.2-.2,0,0-.2,0-.3-.1-.1,0-.2,0-.4-.1,0,0-.2,0-.2,0,0,0-.1,0-.2,0s-.1,0-.2,0c0,0,0,0-.1,0,0,0,0,0,0,0,0,0,0,0,0-.1,0,0,0,0,0-.1,0-.2,0-.3.2-.3.1,0,.3-.1.5-.1s.4,0,.5.1c.2,0,.3.2.4.2l.2-.4c-.3-.3-.7-.4-1.2-.4s-.3,0-.5,0c-.2,0-.3.1-.4.2-.1,0-.2.2-.3.3,0,.1,0,.3,0,.4s0,.2,0,.3c0,0,.1.2.2.3,0,0,.2.1.3.2.1,0,.3,0,.4.1.1,0,.2,0,.3,0,0,0,.1,0,.2,0,0,0,.1,0,.2,0,0,0,0,0,.1,0,0,0,0,0,0,.1,0,0,0,0,0,.2,0,.1,0,.2-.2.3-.1,0-.3.1-.5.1s-.5,0-.7-.1c-.2,0-.4-.2-.5-.3l-.2.5c.2.1.4.3.7.3.2,0,.5.1.8.1s.3,0,.4,0c.1,0,.2,0,.3-.1.1,0,.2-.1.3-.2,0,0,.1-.2.2-.3,0-.1,0-.2,0-.4s0-.2,0-.3c0,0,0-.2-.1-.2ZM137.5,61h1.1v2.9h.5v-2.9h1.1v-.5h-2.8v.5ZM144.1,62.3c.1-.2.2-.4.2-.6s0-.3,0-.4c0-.1-.1-.3-.2-.4,0-.1-.2-.2-.3-.3-.1,0-.3,0-.4,0h-1.5v3.4h.5v-1.2h.8l.7,1.2h.6l-.8-1.3c.2,0,.4-.2.5-.4ZM143.2,62.3h-.9v-1.3h.9c.1,0,.3,0,.4.2.1.1.2.3.2.4s0,.3-.1.5c0,.1-.2.2-.4.2ZM148.2,62.3c0,.1,0,.3,0,.4,0,.1,0,.2,0,.3,0,.1-.1.2-.2.3,0,0-.2.1-.3.2-.1,0-.2,0-.4,0s-.3,0-.4,0c-.1,0-.2-.1-.3-.2,0,0-.1-.2-.2-.3,0-.1,0-.2,0-.3,0-.1,0-.2,0-.4v-1.7h-.5v1.7c0,.2,0,.4,0,.5,0,.2,0,.3.2.5,0,.1.2.3.3.4.1.1.3.2.4.3.2,0,.4,0,.6,0s.5,0,.7-.1c.2,0,.3-.2.5-.4.1-.2.2-.3.3-.5,0-.2,0-.4,0-.7v-1.7h-.5v1.7ZM152.6,63.3c-.1,0-.2.1-.3.2-.1,0-.2,0-.3,0-.2,0-.4,0-.6-.2-.2-.1-.3-.3-.4-.5s-.1-.4-.1-.6,0-.2,0-.4c0-.1,0-.2.1-.3s.1-.2.2-.3c0,0,.2-.1.3-.2.1,0,.2,0,.4,0s.2,0,.3,0c0,0,.2,0,.2,0,0,0,.2,0,.2.2,0,0,.1.2.2.3l.4-.3c-.1-.2-.3-.4-.5-.5-.2-.1-.5-.2-.8-.2s-.4,0-.6,0c-.2,0-.3.2-.5.3-.1.1-.2.2-.3.4,0,.1-.2.3-.2.5,0,.2,0,.3,0,.5s0,.4.1.6c0,.2.2.4.3.5.1.2.3.3.5.4.2.1.4.2.6.2.2.1.3.2.3.4s0,.1,0,.2c0,0-.1,0-.2,0s-.2,0-.3-.1v.3c0,0,.2.1.4.1s.3,0,.4-.1c0,0,.1-.2.1-.3s0-.3-.2-.5c.3,0,.5-.1.7-.3.2-.1.4-.3.5-.5l-.4-.3c0,.1-.1.2-.2.3ZM155.7,60.6l-1.3,3.4h.6l.4-.9h1.3l.4.9h.6l-1.3-3.4h-.5ZM155.4,62.6l.6-1.5.6,1.5h-1.1ZM155.4,60.1s0,0,0,0c0,0,0,0,0,0,0,0,0,0,.1,0s.1,0,.2,0c0,0,.1,0,.2.1,0,0,.2,0,.2,0s.2,0,.2,0c0,0,.1,0,.2-.1,0,0,0,0,0-.2,0,0,0-.1,0-.1,0,0,0,0,0,0h-.3s0,0,0,0,0,0,0,0c0,0,0,0,0,0,0,0,0,0,0,0,0,0,0,0-.1,0,0,0-.1,0-.2,0,0,0-.1,0-.2-.1,0,0-.1,0-.2,0s-.1,0-.2,0c0,0-.1,0-.1.1,0,0,0,0,0,.2,0,0,0,.1,0,.1,0,0,0,0,0,0h.3s0,0,0,0ZM161.7,61.6c0-.2-.2-.4-.3-.6-.1-.2-.3-.3-.5-.4-.2-.1-.4-.2-.7-.2s-.4,0-.7.1c-.2,0-.4.2-.5.4-.1.2-.3.3-.3.6,0,.2-.1.4-.1.7s0,.3,0,.5c0,.2.1.3.2.5,0,.1.2.3.3.4.1.1.3.2.5.3.2,0,.4,0,.5,0s.4,0,.7-.1c.2,0,.4-.2.5-.4s.3-.3.3-.6c0-.2.1-.4.1-.7s0-.4-.1-.6ZM161.2,62.7c0,.1-.1.3-.2.4,0,.1-.2.2-.3.3-.1,0-.3.1-.5.1s-.4,0-.6-.2c-.2-.1-.3-.3-.4-.5,0-.2-.1-.4-.1-.6s0-.3,0-.5c0-.1.1-.3.2-.4,0-.1.2-.2.3-.3s.3-.1.5-.1.3,0,.4.1c.1,0,.3.2.3.3,0,.1.2.2.2.4,0,.2,0,.3,0,.5s0,.3,0,.5Z"/>
    <path class="st0" d="M86,26h1.2c-.1.3-.4.5-.9.5-.7,0-1.1-.5-1.1-1.1s.5-1.2,1.1-1.2.8.2,1,.5l1-.6c-.4-.7-1.1-1.1-1.9-1.1-1.3,0-2.3,1-2.3,2.3s1,2.3,2.3,2.3,2.1-.9,2.1-2.2v-.3h-2.4v.9ZM92.4,23.1c-1.3,0-2.3,1-2.3,2.3s1,2.3,2.3,2.3,2.3-1,2.3-2.3-1-2.3-2.3-2.3ZM92.4,26.5c-.6,0-1-.5-1-1.1s.4-1.1,1-1.1,1,.5,1,1.1-.4,1.1-1,1.1ZM98,25.9l-1-2.7h-1.3l1.7,4.4h1.2l1.7-4.4h-1.3l-1,2.7ZM101.8,27.6h3.1v-1.1h-1.9v-.6h1.3v-.9h-1.3v-.6h1.9v-1.1h-3.1v4.4ZM110.4,24.6c0-.8-.7-1.4-1.5-1.4h-2.1v4.4h1.2v-1.5h.5l.9,1.5h1.3l-1-1.7c.5-.2.8-.7.8-1.3ZM108.7,25.1h-.8v-.8h.8c.3,0,.4.2.4.4s-.2.4-.4.4ZM114.9,25.5l-1.8-2.3h-1v4.4h1.2v-2.3l1.8,2.3h1v-4.4h-1.2v2.3ZM120.1,23.1c-1.3,0-2.3,1-2.3,2.3s1,2.3,2.3,2.3,2.3-1,2.3-2.3-1-2.3-2.3-2.3ZM120.1,26.5c-.6,0-1-.5-1-1.1s.4-1.1,1-1.1,1,.5,1,1.1-.4,1.1-1,1.1ZM126.9,27.6h1.2v-1.6h1.3v-1h-1.3v-.7h1.9v-1h-3.1v4.4ZM131.8,27.6h3.1v-1.1h-1.9v-.6h1.3v-.9h-1.3v-.6h1.9v-1.1h-3.1v4.4ZM138.5,23.2h-1.8v4.4h1.8c1.3,0,2.3-.9,2.3-2.2s-1-2.2-2.3-2.2ZM138.4,26.4h-.5v-2.1h.5c.7,0,1.2.4,1.2,1s-.5,1-1.2,1ZM142.5,27.6h3.1v-1.1h-1.9v-.6h1.3v-.9h-1.3v-.6h1.9v-1.1h-3.1v4.4ZM151.1,24.6c0-.8-.7-1.4-1.5-1.4h-2.1v4.4h1.2v-1.5h.5l.9,1.5h1.3l-1-1.7c.5-.2.8-.7.8-1.3ZM149.4,25.1h-.8v-.8h.8c.3,0,.4.2.4.4s-.2.4-.4.4ZM154.4,23.2l-1.8,4.4h1.2l.3-.8h1.7l.3.8h1.2l-1.8-4.4h-1.1ZM154.5,25.8l.4-1.1.4,1.1h-.9ZM160.1,26.4v-3.2h-1.2v4.4h3.1v-1.1h-1.8Z"/>
    <path class="st0" d="M127.5,48.5l3.9,6.5h3.2v-12.4h-7.1s0,5.8,0,5.8ZM137.4,40.8h-2.4v14.2h2.4c3.9,0,7.1-3.2,7.1-7.1s-3.2-7.1-7.1-7.1ZM132.4,42.3h2.2v-9.8h-2.2c-2.7,0-4.9,2.2-4.9,4.9s2.2,4.9,4.9,4.9ZM93.6,33v13h8.4l-8.4-13ZM154.2,47.3h7.5v-14.8h-7.5v14.8ZM143.2,32.5h-8.2v7.9h8.2v-7.9ZM162.1,47.7v7.3h7.5v-7.3h-7.5ZM154.2,55h7.5v-7.3h-7.5v7.3ZM144.9,55h7.5v-22.6h-7.5v22.6ZM127.5,55h3.4l-3.4-5.7v5.7ZM90.2,36.9c0-2.4-2-4.4-4.4-4.4h-1.6v8.8h1.6c2.4,0,4.4-2,4.4-4.4ZM76.2,41.3h7.5v-8.8h-7.5v8.8ZM76.2,55h7.5v-13.3h-7.5v13.3ZM86.6,41.7h-2.4v13.3h2.4c3.7,0,6.7-3,6.7-6.7s-3-6.7-6.7-6.7ZM106.1,52.1l-1.7,2.9h3.6,0s-1.9-2.9-1.9-2.9ZM106.3,51.8l2.1,3.3h.6c0-2.2,1-4.3,2.6-5.9,1.6-1.6,3.7-2.5,6-2.5s4.4.9,6,2.5c1.6,1.6,2.5,3.7,2.6,5.9h.9v-6.4l-9.5-15.9-11.3,19.1ZM109.2,39.2c0-3.7-3-6.7-6.7-6.7h-8.6l8.7,13.5c3.6,0,6.6-3.1,6.6-6.7ZM117.6,47.1c-2.1,0-4.2.8-5.7,2.3-1.5,1.5-2.4,3.5-2.4,5.6h16.3c0-2.1-.9-4.1-2.4-5.6-1.5-1.5-3.6-2.3-5.7-2.3ZM102.3,46.4h-8.7v8.7h10.2l2-3.3-3.5-5.4Z"/>
  </g>
</svg>