<?xml version="1.0" encoding="UTF-8"?>
<svg id="Camada_1" xmlns="http://www.w3.org/2000/svg" version="1.1" viewBox="0 0 170 87">
  <!-- Generator: Adobe Illustrator 29.8.2, SVG Export Plug-In . SVG Version: 2.1.1 Build 3)  -->
  <defs>
    <style>
      .st0 {
        fill: #326bd7;
        fill-rule: evenodd;
      }
    </style>
  </defs>
  <path class="st0" d="M160.3,29.7v27.2c-.2,0-.4,0-.6,0-9.8,0-19.6,0-29.4,0-.5,0-.9-.2-1.3-.6-7.7-8.3-15.3-16.6-23-24.9-.2-.2-.6-.4-.9-.4-2.3-.2-4.7-.4-7-.6-2.3-.2-4.7-.4-7-.6-.6,0-1.2-.1-1.9-.2h71.1"/>
  <path class="st0" d="M130.1,60.1c-1.4,0-2.7,0-4,0-5,0-10.1-.1-15.1-.3-4.4-.1-8.8-.4-13.2-.6-3.8-.2-7.5-.6-11.3-.9-1.6-.1-3.2-.4-4.8-.5-.6,0-.5-.4-.5-.8,0-7.3,0-14.5,0-21.8v-4.9c.9.1,1.7.2,2.6.3,2.5.3,5,.6,7.5.9,3,.3,5.9.5,8.9.7,1.3.1,2.7.1,4,.2.3,0,.6.1.8.3,8.3,8.9,16.5,17.9,24.8,26.8.1.1.2.3.5.5"/>
  <path class="st0" d="M133.7,27.8h-25.4V1.1h25.4v26.8"/>
  <path class="st0" d="M105.3,61.1c8.6.2,17,.4,25.5.6.3,8.1,1,16.2,2.2,24.2h-25.8c-.6-8.2-1.3-16.5-1.9-24.8"/>
  <path class="st0" d="M31.6,31.2h7.7c0,.3,0,.5,0,.7,0,6.2,0,12.3,0,18.5,0,2.3,1.4,4.2,3.5,4.7,2.5.6,5-.9,5.7-3.5,0-.3,0-.6,0-.9,0-6.2,0-12.4,0-18.5v-.8h3.6v.7c0,5.8,0,11.6,0,17.4,0,3-1.1,5.5-3.2,7.5-2.2,2.2-5,2.9-7.9,2.7-3.7-.2-6.6-2-8.5-5.4-.8-1.4-1.1-2.9-1.1-4.6,0-5.9,0-11.9,0-17.8s0-.4,0-.6"/>
  <path class="st0" d="M71.4,31c0,1.1,0,2.1,0,3.1,0,.5-.3.4-.6.4-1.8,0-3.7,0-5.5,0-.9,0-1.7.2-2.3.9-1.2,1.4-.7,3.6,1.1,4.3,1.4.5,2.8.9,4.2,1.5,1,.4,2,1,2.9,1.7,1.3,1,1.7,2.7,2,4.2.6,3.1.3,6-1.7,8.6-1.6,2.1-3.8,3.1-6.3,3.2-3.2,0-6.4,0-9.5,0h-.7v-3.9c.2,0,.5,0,.7,0h7.6c1.4,0,2.7-1,3-2.4.4-1.4-.2-2.9-1.5-3.6-.7-.4-1.5-.6-2.3-.8-2.3-.5-4.5-1.3-6.2-3.2-4-4.3-2.2-11.7,3.3-13.4.9-.3,1.8-.4,2.7-.4,3,0,6,0,9.1,0"/>
  <path class="st0" d="M26.9,31v3.4c-.5,0-.9,0-1.4,0-1.8,0-3.7,0-5.5.1-1.2,0-2,1-2.1,2.2-.1,1.4.5,2.4,1.7,2.9,1.4.5,2.8.9,4.2,1.4l.5.2c3.6,1.4,4.7,4.4,4.8,8.3,0,2.9-.9,5.4-3,7.2-1.5,1.3-3.3,2-5.3,2h-10.1v-3.9c.3,0,.6,0,.8,0,2.4,0,4.8,0,7.2,0,1.9,0,3.2-1.4,3.4-2.8.2-1.8-.8-3.3-2.6-3.8-1.3-.4-2.6-.6-3.9-1.1-3-1.1-5-3.2-5.6-6.7-.6-3.5,1.3-7.4,4.4-8.8,1.2-.5,2.4-.8,3.7-.8,2.8,0,5.6,0,8.4,0s.3,0,.5,0"/>
  <path class="st0" d="M130.4,59.2h3.3v17.8c-.2-2.6-.5-5.8-.8-8.9-.2-2.2-.4-4.3-.6-6.5,0-.3-.2-.6-.4-.9-.4-.5-.9-.9-1.4-1.5"/>
</svg>